<ttFont>
          <CharString index="0">
            510 69 rmoveto
            -43 54 -9 19 103 vvcurveto
            89 6 103 2 63 vhcurveto
            -135 hlineto
            3 -79 0 -70 -122 vvcurveto
            -38 0 -30 1 -24 vhcurveto
            -19 -23 -26 -15 -39 hhcurveto
            -47 -28 25 78 hvcurveto
            49 9 84 76 vvcurveto
            26 -1 41 -9 30 vhcurveto
            -137 -24 rlineto
            15 -27 5 -43 -44 -40 -4 -124 -36 vvcurveto
            -144 64 -42 66 72 51 50 44 40 vhcurveto
            8 -30 15 -26 27 -38 rrcurveto
            return
          </CharString>
          <CharString index="1">
            419 226 rmoveto
            9 21 7 37 42 vvcurveto
            84 -29 102 -137 -132 -102 -95 -195 -196 103 -38 98 60 71 14 38 42 vhcurveto
            0 callgsubr
            -51 -21 -53 hhcurveto
            -70 -34 36 101 -6 hvcurveto
            86 213 rmoveto
            67 13 -76 -42 hvcurveto
            -6 -1 -10 -5 vvcurveto
            -165 hlineto
            95 5 29 44 52 hhcurveto
            return
          </CharString>
          <CharString index="2">
            149 hmoveto
            15 70 18 67 18 65 rrcurveto
            247 hlineto
            19 -72 18 -72 19 -70 136 12 rcurveline
            -71 271 -74 221 -106 220 -125 -12 rcurveline
            -107 -225 -73 -217 -71 -270 rrcurveto
            314 599 rmoveto
            36 -93 31 -100 29 -100 rrcurveto
            -197 hlineto
            29 101 33 96 39 96 rrcurveto
            return
          </CharString>
          <CharString index="3">
            -53 callgsubr
            1 -101 -102 vvcurveto
            -205 -5 -46 -3 -128 vhcurveto
            return
          </CharString>
          <CharString index="4">
            -7 44 73 -5 92 hhcurveto
            213 141 -30 callsubr
            -123 136 -210 -93 -81 -11 -11 -53 hvcurveto
            213 -68 rmoveto
            132 81 -61 -202 -207 -108 -82 -136 -15 -16 3 7 -15 hvcurveto
            -1 76 0 82 118 vvcurveto
            114 0 76 2 64 vhcurveto
            7 27 26 5 23 hhcurveto
            return
          </CharString>
          <CharString index="5">
            550 rmoveto
            3 -56 18 -154 53 -206 43 -146 rlinecurve
            131 12 87 225 57 217 56 270 rlinecurve
            -137 -12 -34 -216 -39 -188 -51 -183 rlinecurve
            -45 179 -35 203 -31 187 -151 -12 rcurveline
            -36 -205 -27 -178 -47 -174 -50 188 -43 214 -33 197 -136 -12 rcurveline
            56 -271 58 -221 86 -220 131 12 rcurveline
            43 144 49 201 17 149 3 56 rcurveline
            return
          </CharString>
          <CharString index="6">
            495 69 rmoveto
            -43 54 -9 19 103 vvcurveto
            178 0 185 8 162 vhcurveto
            -136 -11 2 -76 1 -78 1 -108 rlinecurve
            10 -18 -19 5 -21 hhcurveto
            -134 -92 -103 -209 -170 72 -42 72 66 53 45 40 39 hvcurveto
            12 -27 22 -24 37 -34 rrcurveto
            -159 115 rmoveto
            -50 -33 20 109 138 33 72 58 27 20 -10 -19 15 hvcurveto
            -184 vlineto
            -42 0 -32 3 -25 vhcurveto
            -16 -20 -24 -11 -29 hhcurveto
            return
          </CharString>
          <CharString index="7">
            28 -9 11 -16 -18 vvcurveto
            -26 -20 -29 -17 -21 vhcurveto
            45 -26 rlineto
            38 43 41 55 42 vvcurveto
            31 -22 28 -38 -31 -32 -18 -36 -3 vhcurveto
            endchar
          </CharString>
          <CharString index="8">
            rmoveto
            -35 31 -19 35 41 24 27 33 35 -30 22 -35 -41 -25 -29 -34 vhcurveto
            endchar
          </CharString>
          <CharString index="9">
            64 -22 123 73 123 -73 64 22 -114 127 rlineto
            -2 -14 -35 -5 -24 hhcurveto
            -24 -35 5 2 -14 hvcurveto
            endchar
          </CharString>
          <CharString index="10">
            467 700 rmoveto
            -46 -122 -44 -113 -67 -104 -66 108 -45 130 -46 113 -136 -12 rcurveline
            64 -170 68 -143 96 -136 -1 -105 -4 -50 -2 -96 rrcurveto
            -20 callgsubr
            78 0 79 101 vvcurveto
            97 141 66 143 65 170 rrcurveto
            return
          </CharString>
          <CharString index="11">
            -3 103 0 24 callsubr
            172 1 86 -26 callgsubr
            return
          </CharString>
          <CharString index="12">
            -1 -79 0 -122 -228 vvcurveto
            124 hlineto
            -4 57 -1 45 71 vvcurveto
            246 vlineto
            79 -9 9 90 rlineto
            -88 54 hlineto
            71 33 59 76 12 12 -2 -4 14 vhcurveto
            3 -95 1 -71 -98 vvcurveto
            -223 return
          </CharString>
          <CharString index="13">
            -90 callsubr
            202 -92 callgsubr
            endchar
          </CharString>
          <CharString index="14">
            471 98 rmoveto
            -261 hlineto
            -1 71 0 78 109 vvcurveto
            172 1 86 7 86 vhcurveto
            -143 -10 rlineto
            -104 callsubr
            400 hlineto
            return
          </CharString>
          <CharString index="15">
            2 14 35 5 24 hhcurveto
            24 35 -5 -2 14 hvcurveto
            114 127 -64 22 -123 -73 -123 73 -64 -22 rlineto
            endchar
          </CharString>
          <CharString index="16">
            16 -35 -47 13 -46 hhcurveto
            -55 -56 -18 -52 -36 hvcurveto
            -20 -28 -19 -37 -8 -94 rrcurveto
            -1 -10 -1 -10 -11 vvcurveto
            -73 -4 rlineto
            188 29 rmoveto
            94 25 49 59 17 26 -7 -9 26 vhcurveto
            -9 -27 -6 -30 -2 -32 -2 -19 -1 -19 -1 -22 rrcurveto
            -132 hlineto
            endchar
          </CharString>
          <CharString index="17">
            -36 26 -20 30 37 25 27 34 35 -27 23 -32 -35 -24 -30 -33 vhcurveto
            return
          </CharString>
          <CharString index="18">
            -73 callgsubr
            182 -92 callgsubr
            endchar
          </CharString>
          <CharString index="19">
            -95 callsubr
            -5 -52 -3 -139 -37 callgsubr
            hlineto
            return
          </CharString>
          <CharString index="20">
            2 14 35 5 24 hhcurveto
            24 35 -5 -2 14 hvcurveto
            99 167 -69 12 -103 -113 -103 113 -69 -12 rlineto
            endchar
          </CharString>
          <CharString index="21">
            141 hlineto
            -96 callsubr
            return
          </CharString>
          <CharString index="22">
            rmoveto
            -135 -41 -49 -73 -8 vhcurveto
            76 -97 53 17 47 32 27 55 rlinecurve
            16 33 10 45 6 105 6 113 3 153 1 136 rrcurveto
            43 2 56 5 59 -66 callsubr
            2 -67 3 -52 -66 vvcurveto
            return
          </CharString>
          <CharString index="23">
            rmoveto
            -11 callgsubr
            103 25 callgsubr
            -99 16 callgsubr
            endchar
          </CharString>
          <CharString index="24">
            -43 34 -23 43 49 33 31 41 43 -36 26 -43 -49 -4 callsubr
            return
          </CharString>
          <CharString index="25">
            rmoveto
            -119 -127 79 -12 172 127 rlineto
            endchar
          </CharString>
          <CharString index="26">
            -43 -38 12 -65 hhcurveto
            -206 -115 -128 -263 -277 133 -56 141 77 82 25 35 53 hvcurveto
            36 -60 46 12 rlineto
            -3 49 0 45 77 vvcurveto
            75 1 38 7 38 vhcurveto
            return
          </CharString>
          <CharString index="27">
            rmoveto
            -79 -167 69 -12 132 -20 callsubr
            endchar
          </CharString>
          <CharString index="28">
            80 148 -5 -7 34 hvcurveto
            7 119 -204 -7 63 133 95 161 41 60 rlinecurve
            return
          </CharString>
          <CharString index="29">
            -6 -93 -8 -92 -60 vvcurveto
            -145 44 -51 88 -1 callsubr
            -27 hhcurveto
            -39 -11 17 109 48 2 70 5 79 37 callsubr
            53 6 53 12 73 -93 -27 rcurveline
            return
          </CharString>
          <CharString index="30">
            -3 -82 rlineto
            4 63 44 0 63 hhcurveto
            63 43 -2 -2 64 hvcurveto
            endchar
          </CharString>
          <CharString index="31">
            rmoveto
            24 -7 10 -14 -23 vvcurveto
            -21 -9 -19 -23 -38 vhcurveto
            42 -25 rlineto
            50 58 25 44 46 vvcurveto
            26 -8 28 -45 -43 -16 -26 -29 -7 vhcurveto
            endchar
          </CharString>
          <CharString index="32">
            2 45 7 47 35 vvcurveto
            117 -71 50 -112 5 vhcurveto
            105 109 46 37 61 55 -136 12 rcurveline
            -55 -64 -53 -61 -72 -79 rrcurveto
            return
          </CharString>
          <CharString index="33">
            487 4 rmoveto
            66 -41 34 -73 vhcurveto
            -33 -67 -7 -47 hhcurveto
            -43 -33 6 36 14 5 12 7 10 hvcurveto
            -7 23 25 -4 28 hhcurveto
            return
          </CharString>
          <CharString index="34">
            -480 rmoveto
            -40 -70 -26 -81 -78 -41 25 30 18 10 20 22 21 vhcurveto
            100 -11 138 25 -62 vvcurveto
            return
          </CharString>
          <CharString index="35">
            rmoveto
            -57 43 -31 51 62 42 44 54 57 -46 36 -51 -63 -38 -47 -56 vhcurveto
            58 5 rmoveto
            23 16 18 26 22 15 -15 -22 -23 -15 -17 -26 -20 -18 13 23 vhcurveto
            return
          </CharString>
          <CharString index="36">
            rmoveto
            -32 -14 17 42 hvcurveto
            -73 -7 rlineto
            -95 66 -13 51 81 52 32 68 46 -26 34 -47 6 vhcurveto
            return
          </CharString>
          <CharString index="37">
            rmoveto
            -37 30 -20 38 44 28 29 36 36 -31 24 -38 -44 -27 -31 -37 vhcurveto
            endchar
          </CharString>
          <CharString index="38">
            45 30 29 37 39 -33 24 -39 -45 -28 -32 -37 hvcurveto
            return
          </CharString>
          <CharString index="39">
            164 -12 rmoveto
            52 62 24 81 40 hvcurveto
            -85 29 63 -20 73 hhcurveto
            59 68 13 38 42 hvcurveto
            0 callgsubr
            -48 -20 -53 hhcurveto
            -70 -34 35 102 -6 hvcurveto
            254 hlineto
            9 21 7 38 38 vvcurveto
            87 -37 102 -135 -52 -43 -15 -28 -33 vhcurveto
            31 -25 -39 12 -50 hhcurveto
            -65 -94 -20 -27 -47 hvcurveto
            26 -89 rlineto
            28 44 48 13 41 hhcurveto
            40 29 -12 -69 hvcurveto
            -66 vlineto
            21 -33 -41 10 -36 hhcurveto
            -85 -69 -56 -101 -82 46 -74 93 hvcurveto
            return
          </CharString>
          <CharString index="40">
            -83 callsubr
            endchar
          </CharString>
          <CharString index="41">
            vhcurveto
            -143 -10 rlineto
            return
          </CharString>
          <CharString index="42">
            -36 -29 32 40 hvcurveto
            -91 hlineto
            -89 53 -58 98 92 69 51 96 vhcurveto
            endchar
          </CharString>
          <CharString index="43">
            10 112 rlineto
            -309 hlineto
            91 182 140 255 74 107 rrcurveto
            return
          </CharString>
          <CharString index="44">
            -73 -59 -52 -44 -41 vhcurveto
            -8 31 -15 26 -27 39 rrcurveto
            return
          </CharString>
          <CharString index="45">
            rmoveto
            41 27 -20 -109 -138 -33 -72 -58 -31 -23 16 29 -16 hvcurveto
            -1 73 0 80 112 vvcurveto
            16 24 32 13 38 hhcurveto
            return
          </CharString>
          <CharString index="46">
            165 -12 rmoveto
            59 52 32 52 26 hvcurveto
            return
          </CharString>
          <CharString index="47">
            34 -46 -58 19 -69 hhcurveto
            -192 -123 -151 -217 hvcurveto
            462 140 rmoveto
            7 -35 3 -42 -48 vvcurveto
            -175 -70 -108 -101 -51 -37 18 35 -27 vhcurveto
            91 119 92 118 93 118 rrcurveto
            -156 138 rmoveto
            54 38 -16 -31 25 hvcurveto
            -90 -118 -92 -118 -93 -118 rrcurveto
            -7 36 -4 42 48 vvcurveto
            176 66 99 103 vhcurveto
            return
          </CharString>
          <CharString index="48">
            -54 40 -29 48 59 39 41 51 54 -43 33 -48 -59 -36 -44 -52 vhcurveto
            54 4 rmoveto
            22 16 17 24 21 14 -14 -21 -21 -14 -16 -25 -19 -17 12 21 vhcurveto
            endchar
          </CharString>
          <CharString index="49">
            172 -128 79 12 -119 128 rlineto
            endchar
          </CharString>
          <CharString index="50">
            -39 callsubr
            -97 callgsubr
            return
          </CharString>
          <CharString index="51">
            rmoveto
            26 13 -18 -32 2 hvcurveto
            80 6 rlineto
            55 -4 -31 46 -87 hhcurveto
            -99 -41 -54 -141 -105 25 -62 107 83 56 37 77 90 -66 23 -59 -29 -15 -5 -13 -14 hvcurveto
            68 3 14 28 36 hhcurveto
            -5 -129 rmoveto
            34 11 -18 -40 -42 -17 -21 -30 -41 -8 35 61 hvcurveto
            14 11 14 11 26 hhcurveto
            endchar
          </CharString>
          <CharString index="52">
            -1 26 0 28 29 vvcurveto
            48 hlineto
            -5 61 rlineto
            -43 hlineto
            120 0 48 4 43 vhcurveto
            -135 -10 -32 -67 -46 -77 -42 -67 rlinecurve
            5 -51 rlineto
            164 hlineto
            return
          </CharString>
          <CharString index="53">
            rmoveto
            hintmask 11101100
            -36 callsubr
            hintmask 11011100
            -35 callgsubr
            hintmask 11101100
            -77 callsubr
          </CharString>
          <CharString index="54">
            rmoveto
            40 -23 48 -98 -99 -27 -48 -42 -34 15 -34 39 -12 vhcurveto
            return
          </CharString>
          <CharString index="55">
            -35 10 -15 20 34 vvcurveto
            30 12 28 35 55 vhcurveto
            -46 36 rlineto
            -72 -81 -37 -71 -55 vvcurveto
            -45 25 -27 53 -14 vhcurveto
            40 6 31 31 9 43 rrcurveto
            return
          </CharString>
          <CharString index="56">
            132 -167 69 12 -79 -20 callsubr
            endchar
          </CharString>
          <CharString index="57">
            -34 -44 -36 -31 -89 -119 91 -128 33 -30 38 -48 rrcurveto
            143 hlineto
            -53 55 -56 55 -84 94 108 127 36 24 48 45 rrcurveto
            return
          </CharString>
          <CharString index="58">
            59 32 -40 -50 -47 -29 -53 -67 -53 -37 34 58 55 34 43 61 hvcurveto
            return
          </CharString>
          <CharString index="59">
            9 -21 33 -42 callsubr
            return
          </CharString>
          <CharString index="60">
            -31 callgsubr
            hvcurveto
            hintmask 10111100
            -37 -6 -46 -5 -53 vhcurveto
            hintmask 01111100
            128 13 rlineto
            -75 callsubr
            return
          </CharString>
          <CharString index="61">
            64 -205 87 -210 89 -177 return
          </CharString>
          <CharString index="62">
            -22 0 98 211 92 201 98 return
          </CharString>
          <CharString index="63">
            690 rmoveto
            return
          </CharString>
          <CharString index="64">
            -33 -23 11 -41 hhcurveto
            -128 -94 -94 -201 hvcurveto
            return
          </CharString>
          <CharString index="65">
            -21 397 115 return
          </CharString>
          <CharString index="66">
            7 callsubr
            62 12 7 callsubr
            endchar
          </CharString>
          <CharString index="67">
            -27 -1 -23 -1 -33 vhcurveto
            4 144 rmoveto
            -94 hlineto
            33 56 23 44 36 50 rrcurveto
            2 -43 0 -33 -74 vvcurveto
            return
          </CharString>
          <CharString index="68">
            hhcurveto
            47 28 -63 callgsubr
            return
          </CharString>
          <CharString index="69">
            90 -37 37 -37 90 hstemhm
            return
          </CharString>
          <CharString index="70">
            160 219 return
          </CharString>
          <CharString index="71">
            -3 -64 -44 -1 -63 hhcurveto
            return
          </CharString>
          <CharString index="72">
            43 -54 9 -19 -103 vvcurveto
            return
          </CharString>
          <CharString index="73">
            58 87 0 -3 16 hvcurveto
            5 71 -121 -4 46 59 24 18 24 36 rlinecurve
            21 32 9 29 26 vvcurveto
            47 -31 45 -84 -53 -68 -18 -100 vhcurveto
            79 3 rlineto
            39 12 17 24 vhcurveto
            return
          </CharString>
          <CharString index="74">
            74 -44 callsubr
            4 -95 1 -92 -139 vvcurveto
            -140 -1 -42 -7 -182 vhcurveto
            -15 callgsubr
            -2 80 -1 83 128 vvcurveto
            5 25 23 3 20 hhcurveto
            101 47 -61 -133 return
          </CharString>
          <CharString index="75">
            10 callgsubr
            370 vmoveto
            -83 callsubr
            return
          </CharString>
          <CharString index="76">
            139 194 -6 -6 39 hvcurveto
            return
          </CharString>
          <CharString index="77">
            -37 callsubr
            209 return
          </CharString>
          <CharString index="78">
            702 rmoveto
            -69 callgsubr
            -40 -6 -31 -31 -9 -43 rrcurveto
            return
          </CharString>
          <CharString index="79">
            -40 -6 -31 -31 -9 -43 rrcurveto
            return
          </CharString>
          <CharString index="80">
            -69 callgsubr
            -40 -6 -31 -31 -9 -43 rrcurveto
            endchar
          </CharString>
          <CharString index="81">
            75 -75 147 hstemhm
            return
          </CharString>
          <CharString index="82">
            -33 94 -33 102 -24 99 -115 -11 rcurveline
            2 -54 0 -52 -47 vvcurveto
            -106 -5 -22 -4 -64 vhcurveto
            86 hlineto
            -2 51 -1 62 80 vvcurveto
            -4 71 6 -23 return
          </CharString>
          <CharString index="83">
            71 165 92 -73 86 -17 callgsubr
            151 124 return
          </CharString>
          <CharString index="84">
            112 134 88 306 72 -72 84 return
          </CharString>
          <CharString index="85">
            -54 -12 80 362 82 return
          </CharString>
          <CharString index="86">
            79 9 -21 214 92 return
          </CharString>
          <CharString index="87">
            167 rlineto
            return
          </CharString>
          <CharString index="88">
            -23 -113 -19 -42 -87 -5 rrcurveto
            return
          </CharString>
          <CharString index="89">
            hstemhm
            73 124 170 124 return
          </CharString>
          <CharString index="90">
            -319 13 callgsubr
            return
          </CharString>
          <CharString index="91">
            hstemhm
            -38 callgsubr
            return
          </CharString>
          <CharString index="92">
            853 98 rmoveto
            -269 hlineto
            -1 59 0 69 83 vvcurveto
            220 92 -220 hlineto
            83 0 66 2 52 vhcurveto
            249 98 -468 hlineto
            return
          </CharString>
          <CharString index="93">
            3 callsubr
            66 124 -124 137 return
          </CharString>
          <CharString index="94">
            -44 callsubr
            -53 callgsubr
            return
          </CharString>
          <CharString index="95">
            601 rmoveto
            69 -12 83 113 83 25 callgsubr
            -79 16 callgsubr
            return
          </CharString>
          <CharString index="96">
            -229 -21 199 return
          </CharString>
          <CharString index="97">
            -92 56 -63 84 vhcurveto
            return
          </CharString>
          <CharString index="98">
            -21 500 -20 return
          </CharString>
          <CharString index="99">
            9 30 39 47 hhcurveto
            -285 -359 rmoveto
            -33 -27 25 50 56 35 18 34 35 33 -19 -48 -55 -42 -27 -35 hvcurveto
            return
          </CharString>
          <CharString index="100">
            79 120 319 120 return
          </CharString>
          <CharString index="101">
            vvcurveto
            45 -25 27 -53 14 vhcurveto
            -28 callsubr
            return
          </CharString>
          <CharString index="102">
            -12 88 546 90 return
          </CharString>
          <CharString index="103">
            -31 -35 -40 vhcurveto
            return
          </CharString>
          <CharString index="104">
            7 61 vhcurveto
            return
          </CharString>
          <CharString index="105">
            41 344 rmoveto
            -92 21 -80 40 -61 vhcurveto
            -88 -111 rlineto
            115 hlineto
            11 15 11 15 12 15 rrcurveto
            return
          </CharString>
          <CharString index="106">
            38 25 9 17 32 vhcurveto
            -27 callgsubr
            return
          </CharString>
          <CharString index="107">
            -4 -69 rlineto
            -97 -4 -49 -2 -53 vhcurveto
            85 hlineto
            -4 52 -2 47 82 vvcurveto
            87 0 44 4 44 vhcurveto
            return
          </CharString>
          <CharString index="108">
            -40 26 callsubr
            65 30 callsubr
            hintmask 01111100
            return
          </CharString>
          <CharString index="109">
            -12 58 245 59 0 58 245 59 hstemhm
            29 91 128 90 141 91 128 90 return
          </CharString>
          <CharString index="110">
            -18 callgsubr
            hstemhm
            return
          </CharString>
          <CharString index="111">
            66 -48 -21 242 117 -59 59 hstemhm
            26 230 -80 80 hintmask 10101000
            140 return
          </CharString>
          <CharString index="112">
            hhcurveto
            1 78 2 57 4 70 -118 -10 rcurveline
            3 -69 0 -64 1 -62 rrcurveto
            -34 return
          </CharString>
          <CharString index="113">
            39 9 -21 33 33 callgsubr
            return
          </CharString>
          <CharString index="114">
            rmoveto
            -67 -167 69 -12 120 -20 callsubr
            return
          </CharString>
          <CharString index="115">
            35 131 153 124 return
          </CharString>
          <CharString index="116">
            39 242 rmoveto
            -64 13 -54 26 -41 vhcurveto
            -73 -83 rlineto
            78 hlineto
            32 37 rlineto
            return
          </CharString>
          <CharString index="117">
            -145 0 103 -94 -21 512 return
          </CharString>
          <CharString index="118">
            115 397 -20 32 -20 hstemhm
            return
          </CharString>
          <CharString index="119">
            117 -117 137 return
          </CharString>
          <CharString index="120">
            39 137 335 return
          </CharString>
          <CharString index="121">
            55 121 51 31 104 -57 57 hstem
            28 85 96 90 vstem
            169 return
          </CharString>
          <CharString index="122">
            144 -61 61 211 -20 hstemhm
            180 84 hintmask 10110000
            180 return
          </CharString>
          <CharString index="123">
            510 -21 293 -20 hstem
            return
          </CharString>
          <CharString index="124">
            -9 callsubr
            123 return
          </CharString>
          <CharString index="125">
            143 9 -21 33 -21 return
          </CharString>
          <CharString index="126">
            -40 -35 -32 -41 vhcurveto
            return
          </CharString>
          <CharString index="127">
            208 vvcurveto
            232 1 110 7 122 vhcurveto
            endchar
          </CharString>
          <CharString index="128">
            58 245 59 hstem
            26 91 128 90 vstem
            182 return
          </CharString>
          <CharString index="129">
            -20 39 callgsubr
            155 90 return
          </CharString>
          <CharString index="130">
            56 105 51 92 57 return
          </CharString>
          <CharString index="131">
            93 160 vvcurveto
            return
          </CharString>
          <CharString index="132">
            -200 -108 78 356 78 338 78 hstem
            return
          </CharString>
          <CharString index="133">
            -48 callsubr
            258 -20 hstemhm
            return
          </CharString>
          <CharString index="134">
            138 -12 101 137 75 116 95 -73 73 return
          </CharString>
          <CharString index="135">
            rmoveto
            11 -204 69 -5 22 199 rlineto
            endchar
          </CharString>
          <CharString index="136">
            22 13 -14 -23 -26 -17 -26 -19 -26 hvcurveto
            endchar
          </CharString>
          <CharString index="137">
            124 169 124 return
          </CharString>
          <CharString index="138">
            116 -12 88 -55 -21 622 90 -12 -20 return
          </CharString>
          <CharString index="139">
            760 -25 callgsubr
            return
          </CharString>
          <CharString index="140">
            803 -21 149 -20 hstem
            return
          </CharString>
          <CharString index="141">
            602 -21 179 -20 hstem
            return
          </CharString>
          <CharString index="142">
            118 64 118 return
          </CharString>
          <CharString index="143">
            -46 -12 80 -47 -21 430 82 -12 -20 return
          </CharString>
          <CharString index="144">
            hvcurveto
            104 -7 9 85 rlineto
            -108 hlineto
            5 return
          </CharString>
          <CharString index="145">
            -286 21 -21 return
          </CharString>
        <CharString name=".notdef">
          74 0 92 516 92 hstem
          89 114 241 114 vstem
          89 379 rmoveto
          -205 -5 -46 -3 -128 vhcurveto
          482 hlineto
          -4 108 -1 111 102 vvcurveto
          205 5 46 3 128 vhcurveto
          -482 hlineto
          -53 callgsubr
          1 -111 -102 vvcurveto
          114 -23 rmoveto
          113 0 76 2 63 vhcurveto
          238 hlineto
          1 -71 0 -84 -109 vvcurveto
          -113 0 -76 -3 -63 vhcurveto
          -237 hlineto
          -1 71 0 84 109 vvcurveto
          endchar
        </CharString>
        <CharString name="A">
          -21 callsubr
          418 -20 hstem
          -105 callsubr
          endchar
        </CharString>
        <CharString name="AE">
          20 callgsubr
          hstemhm
          445 138 hintmask 10111100
          -15 callsubr
          hintmask 01111100
          28 callgsubr
          hintmask 10111100
          -39 callgsubr
          endchar
        </CharString>
        <CharString name="AEacute">
          20 callgsubr
          220 -20 hstemhm
          445 138 hintmask 10111110
          -15 callsubr
          hintmask 01111110
          28 callgsubr
          hintmask 10111110
          -39 callgsubr
          184 333 -82 callsubr
        </CharString>
        <CharString name="Aacute">
          -21 callsubr
          626 -20 hstem
          -105 callsubr
          87 333 -82 callsubr
        </CharString>
        <CharString name="Abreve">
          -21 callsubr
          487 -26 callsubr
          165 91 hintmask 11011000
          -105 callsubr
          81 341 rmoveto
          hintmask 11101000
          19 callsubr
          hintmask 11011000
          -64 callgsubr
        </CharString>
        <CharString name="Acircumflex">
          -21 callsubr
          636 -20 hstem
          -105 callsubr
          -187 216 rmoveto
          -98 callsubr
        </CharString>
        <CharString name="Adieresis">
          -21 callsubr
          487 119 hstem
          165 23 callgsubr
          vstem
          -105 callsubr
          -161 250 rmoveto
          -94 callsubr
        </CharString>
        <CharString name="Agrave">
          -21 callsubr
          626 -20 hstem
          -105 callsubr
          -213 321 rmoveto
          -58 callsubr
        </CharString>
        <CharString name="Amacron">
          -21 callsubr
          487 78 4 -20 hstemhm
          hintmask 11010000
          -105 callsubr
          172 276 rmoveto
          hintmask 11100000
          -36 callsubr
          hintmask 11010000
          -35 callgsubr
          hintmask 11100000
          -77 callsubr
        </CharString>
        <CharString name="Aogonek">
          79 -230 63 369 92 418 -20 hstem
          432 94 vstem
          149 hmoveto
          15 70 18 67 18 65 rrcurveto
          247 hlineto
          18 -71 18 -71 19 -68 rrcurveto
          -32 -29 -38 -48 -55 -88 callgsubr
          42 22 44 21 29 hvcurveto
          70 6 -71 271 -74 221 -106 220 rlinecurve
          -125 -12 -107 -225 -73 -217 -71 -270 rlinecurve
          314 599 rmoveto
          36 -93 31 -100 29 -100 rrcurveto
          -197 hlineto
          29 101 33 96 39 96 rrcurveto
          endchar
        </CharString>
        <CharString name="Aring">
          -21 callsubr
          487 54 72 53 hstem
          238 54 75 57 vstem
          -105 callsubr
          -88 277 rmoveto
          -59 callsubr
        </CharString>
        <CharString name="Aringacute">
          79 9 -21 174 92 427 54 72 53 136 -20 hstem
          250 54 75 57 vstem
          149 hmoveto
          15 55 14 54 15 53 rrcurveto
          260 hlineto
          17 -59 16 -58 17 -57 136 12 rcurveline
          -76 251 -74 206 -101 205 -125 -12 rcurveline
          -102 -210 -73 -202 -76 -250 rrcurveto
          314 549 rmoveto
          38 -90 33 -96 29 -97 rrcurveto
          -205 hlineto
          30 97 34 94 41 92 rrcurveto
          -76 227 rmoveto
          -54 40 -29 48 59 39 41 51 54 -43 33 -48 -59 -36 -44 -52 vhcurveto
          165 232 rmoveto
          -93 -107 79 -12 146 107 rlineto
          -243 -216 rmoveto
          22 16 17 24 21 14 -14 -21 -21 -14 -16 -25 -19 -17 12 21 vhcurveto
          endchar
        </CharString>
        <CharString name="Atilde">
          -21 callsubr
          475 -38 callsubr
          hintmask 11010000
          -105 callsubr
          128 321 -60 callgsubr
          hintmask 11001000
          -39 -41 53 -53 -89 callgsubr
          hintmask 11100000
          39 41 -53 53 -66 callgsubr
        </CharString>
        <CharString name="B">
          23 -11 81 261 69 222 89 -16 callsubr
          195 125 -99 135 hintmask 11110100
          74 -13 callsubr
          1 -103 -95 vvcurveto
          -212 -3 -44 -5 -128 vhcurveto
          -7 51 76 -4 48 hhcurveto
          243 76 102 106 88 -53 78 -124 11 hvcurveto
          hintmask 11111000
          100 15 41 80 71 vvcurveto
          80 -51 91 -201 -66 -81 -10 -11 -56 -37 callgsubr
          -369 rmoveto
          7 31 27 3 25 hhcurveto
          hintmask 11110100
          101 37 -50 -70 -89 -59 -52 -83 -26 -27 5 8 -25 hvcurveto
          -1 67 0 75 96 vvcurveto
          2 289 rmoveto
          7 28 26 5 26 hhcurveto
          hintmask 11111000
          87 26 -53 -55 -69 -42 -45 -98 -17 -18 1 3 -20 hvcurveto
          87 0 65 2 54 vhcurveto
          endchar
        </CharString>
        <CharString name="C">
          3 callgsubr
          hstemhm
          42 131 277 104 hintmask 11011000
          -90 callgsubr
          hhcurveto
          hintmask 10111000
          -48 callgsubr
          endchar
        </CharString>
        <CharString name="CR">
          -289 endchar
        </CharString>
        <CharString name="Cacute">
          3 callgsubr
          208 -20 hstemhm
          42 131 277 104 hintmask 11011100
          -90 callgsubr
          hhcurveto
          hintmask 10111100
          -48 callgsubr
          393 599 -82 callsubr
        </CharString>
        <CharString name="Ccaron">
          30 -12 112 528 72 12 76 142 -20 hstem
          42 131 277 104 vstem
          -90 callgsubr
          -48 callgsubr
          233 460 rmoveto
          -92 callsubr
        </CharString>
        <CharString name="Ccedilla">
          30 -230 59 64 207 -111 111 528 72 -72 84 hstemhm
          42 131 220 96 -39 104 hintmask 10110110
          42 321 rmoveto
          -263 117 -63 138 -6 vhcurveto
          -16 -99 rlineto
          hintmask 11010110
          -76 callgsubr
          5 37 64 4 69 14 49 32 rlinecurve
          106 vlineto
          -23 -60 -65 -23 -65 hhcurveto
          -121 -62 69 178 186 60 95 116 hvcurveto
          hintmask 11010101
          75 26 -48 -82 -16 -1 -18 -1 -20 hvcurveto
          112 13 -11 254 rlineto
          -6 -25 -23 -5 -22 hhcurveto
          hintmask 11001110
          -48 callgsubr
          endchar
        </CharString>
        <CharString name="Ccircumflex">
          3 callgsubr
          218 -20 hstemhm
          42 131 277 104 hintmask 11011100
          -90 callgsubr
          hhcurveto
          hintmask 10111100
          -48 callgsubr
          119 482 rmoveto
          -98 callsubr
        </CharString>
        <CharString name="Cdotaccent">
          3 callgsubr
          69 125 hstemhm
          42 131 107 140 30 104 hintmask 11011110
          -90 callgsubr
          hhcurveto
          hintmask 10111110
          -48 callgsubr
          238 517 -70 callsubr
        </CharString>
        <CharString name="D">
          98 -12 82 552 90 -44 callgsubr
          291 134 vstem
          74 690 rmoveto
          -104 callsubr
          -103 callsubr
          endchar
        </CharString>
        <CharString name="Dcaron">
          98 -12 82 552 90 0 76 142 -20 -16 callsubr
          291 134 hintmask 11011100
          74 690 rmoveto
          -104 callsubr
          -103 callsubr
          -27 159 rmoveto
          hintmask 10111100
          -92 callsubr
        </CharString>
        <CharString name="Dcroat">
          104 -12 82 238 81 233 90 hstem
          20 195 -135 135 291 134 vstem
          80 -44 callsubr
          4 -106 1 -98 -100 vvcurveto
          -63 3 -3 -82 66 3 -1 -149 -5 -49 -2 -112 rlinecurve
          -7 44 73 -5 92 hhcurveto
          213 141 -30 callsubr
          -123 136 -210 -93 -81 -11 -11 -53 hvcurveto
          283 -301 rmoveto
          -3 -56 -41 -1 -51 hhcurveto
          96 0 71 2 58 vhcurveto
          7 27 26 5 23 hhcurveto
          132 81 -61 -202 -207 -108 -82 -136 -15 -16 3 7 -15 hvcurveto
          -1 64 0 75 92 vvcurveto
          49 -1 40 -2 55 -1 rrcurveto
          endchar
        </CharString>
        <CharString name="Ddotbelow">
          98 -34 callgsubr
          68 82 552 90 -44 callgsubr
          73 131 87 134 vstem
          74 690 rmoveto
          -104 callsubr
          -103 callsubr
          -5 -765 -99 callsubr
        </CharString>
        <CharString name="E">
          -45 callsubr
          -44 callgsubr
          vstem
          -103 callgsubr
          endchar
        </CharString>
        <CharString name="Eacute">
          -45 callsubr
          221 -10 callgsubr
          vstem
          -103 callgsubr
          -106 612 -82 callsubr
        </CharString>
        <CharString name="Ebreve">
          -45 callsubr
          82 -26 callsubr
          79 130 -74 91 hintmask 11101100
          -103 callgsubr
          -92 620 rmoveto
          hintmask 11110100
          19 callsubr
          hintmask 11101010
          -64 callgsubr
        </CharString>
        <CharString name="Ecaron">
          -22 0 98 211 92 0 201 98 89 142 -20 -16 callsubr
          hintmask 10111100
          469 401 rmoveto
          -260 hlineto
          83 0 66 2 52 vhcurveto
          289 hlineto
          hintmask 11111100
          98 -426 vlineto
          -82 callgsubr
          448 -75 callgsubr
          -246 473 rmoveto
          -92 callsubr
        </CharString>
        <CharString name="Ecircumflex">
          -45 callsubr
          231 -10 callgsubr
          vstem
          -103 callgsubr
          -360 495 rmoveto
          -98 callsubr
        </CharString>
        <CharString name="Edieresis">
          -45 callsubr
          82 119 -16 callsubr
          -74 23 callgsubr
          hintmask 11111010
          -103 callgsubr
          hintmask 11110110
          -334 529 rmoveto
          -94 callsubr
        </CharString>
        <CharString name="Edotaccent">
          -45 callsubr
          82 125 -44 callgsubr
          19 140 vstem
          -103 callgsubr
          -241 530 -70 callsubr
        </CharString>
        <CharString name="Edotbelow">
          -22 -34 callgsubr
          80 98 211 92 201 98 -44 callgsubr
          36 131 vstem
          -103 callgsubr
          -224 -452 -99 callsubr
        </CharString>
        <CharString name="Egrave">
          -45 callsubr
          221 -10 callgsubr
          vstem
          -103 callgsubr
          -347 600 rmoveto
          -58 callsubr
        </CharString>
        <CharString name="Emacron">
          -45 callsubr
          82 78 4 -20 -16 callsubr
          hintmask 11101100
          -103 callgsubr
          -1 555 rmoveto
          hintmask 11110100
          -36 callsubr
          hintmask 11101100
          -35 callgsubr
          hintmask 11110100
          -77 callsubr
        </CharString>
        <CharString name="Eng">
          143 -209 -21 251 -21 712 -20 hstem
          79 120 319 121 vstem
          508 -13 callsubr
          6 -101 -102 vvcurveto
          -130 -2 -96 -2 -64 vhcurveto
          -107 238 -71 212 -41 173 -221 -22 rcurveline
          -104 callsubr
          136 hlineto
          -3 103 -5 24 callsubr
          78 0 95 1 51 vhcurveto
          -46 callsubr
          77 22 rcurveline
          -7 -107 -40 -29 -66 -7 76 -97 rcurveline
          53 17 47 20 27 55 rrcurveto
          16 33 16 45 105 105 -1 46 160 vvcurveto
          172 1 86 -26 callgsubr
          endchar
        </CharString>
        <CharString name="Eogonek">
          -22 -230 63 167 98 211 92 201 98 -44 callgsubr
          13 94 vstem
          469 401 rmoveto
          -260 hlineto
          83 0 66 2 52 vhcurveto
          289 98 -426 hlineto
          -82 callgsubr
          231 hlineto
          -33 -26 -47 -53 -61 -88 callgsubr
          45 25 47 22 29 hvcurveto
          156 -75 callgsubr
          endchar
        </CharString>
        <CharString name="Eth">
          104 -12 82 238 81 233 90 hstem
          20 195 -135 135 291 134 vstem
          80 -44 callsubr
          4 -106 1 -98 -100 vvcurveto
          -63 3 -3 -82 66 3 -1 -149 -5 -49 -2 -112 rlinecurve
          -7 44 73 -5 92 hhcurveto
          213 141 -30 callsubr
          -123 136 -210 -93 -81 -11 -11 -53 hvcurveto
          283 -301 rmoveto
          -3 -56 -41 -1 -51 hhcurveto
          96 0 71 2 58 vhcurveto
          7 27 26 5 23 hhcurveto
          132 81 -61 -202 -207 -108 -82 -136 -15 -16 3 7 -15 hvcurveto
          -1 64 0 75 92 vvcurveto
          49 -1 40 -2 55 -1 rrcurveto
          endchar
        </CharString>
        <CharString name="Etilde">
          -45 callsubr
          70 -38 callsubr
          79 130 hintmask 11101010
          -103 callgsubr
          -45 600 -60 callgsubr
          hintmask 11100110
          -39 -41 53 -53 -89 callgsubr
          hintmask 11110010
          39 41 -53 53 -66 callgsubr
        </CharString>
        <CharString name="Euro">
          37 -12 87 146 85 86 85 147 88 hstem
          38 206 -132 132 vstem
          412 310 rmoveto
          -3 -46 -68 -1 -54 hhcurveto
          50 0 19 1 17 vhcurveto
          54 61 -2 -1 46 hvcurveto
          6 92 rlineto
          -2 -42 -61 -2 -51 hhcurveto
          108 26 58 39 71 hhcurveto
          35 34 -10 -48 28 hvcurveto
          -1 66 54 0 hvcurveto
          72 -51 -49 20 -66 hhcurveto
          -131 -112 -79 -156 -39 hvcurveto
          -30 1 -29 1 -27 2 -5 -92 rcurveline
          1 25 26 2 26 hhcurveto
          -1 -15 0 -16 -16 vvcurveto
          -13 0 -13 1 -12 vhcurveto
          -25 -24 1 2 -23 hvcurveto
          -5 -92 rlineto
          2 28 31 1 30 hhcurveto
          -155 36 105 -78 119 hhcurveto
          107 58 63 27 18 hvcurveto
          -65 54 rlineto
          -53 -42 -36 -4 -24 hhcurveto
          -78 -50 44 102 -20 hvcurveto
          52 57 -2 -1 44 hvcurveto
          endchar
        </CharString>
        <CharString name="F">
          -49 21 -21 299 92 211 98 -44 callgsubr
          vstem
          457 391 rmoveto
          -248 hlineto
          89 0 67 2 55 vhcurveto
          288 98 -425 hlineto
          -82 callgsubr
          -20 callgsubr
          88 0 88 123 vvcurveto
          248 hlineto
          endchar
        </CharString>
        <CharString name="G">
          84 -12 -23 callsubr
          hstemhm
          41 131 307 127 hintmask 11101100
          -81 callgsubr
          hintmask 11011100
          -81 callsubr
          endchar
        </CharString>
        <CharString name="Gbreve">
          84 -12 -23 callsubr
          69 -26 callsubr
          41 131 24 91 192 104 -104 127 hintmask 1110101101000000
          -81 callgsubr
          hintmask 1101011101000000
          -81 callsubr
          -176 606 rmoveto
          hintmask 1110101110000000
          19 callsubr
          hintmask 1110011110000000
          -64 callgsubr
        </CharString>
        <CharString name="Gcircumflex">
          84 -12 -23 callsubr
          218 -20 hstemhm
          41 131 307 127 hintmask 11101110
          -81 callgsubr
          hintmask 11011110
          -81 callsubr
          -444 481 rmoveto
          -98 callsubr
        </CharString>
        <CharString name="Gcommaaccent">
          84 -11 callsubr
          39 0 -23 callsubr
          hstemhm
          41 131 162 87 58 104 -104 127 hintmask 1101011110000000
          614 322 rmoveto
          -262 hlineto
          9 -91 122 6 rlineto
          -100 vlineto
          hintmask 1011101101000000
          -22 -43 -42 -15 -48 hhcurveto
          -115 -63 71 178 186 65 93 125 94 23 -64 -69 -9 0 -9 -1 -9 hvcurveto
          111 13 -11 230 rlineto
          -8 -27 -22 -3 -21 hhcurveto
          hintmask 1101011101000000
          -81 callsubr
          -319 -427 rmoveto
          -100 callsubr
        </CharString>
        <CharString name="Gdotaccent">
          84 -12 -23 callsubr
          69 125 hstemhm
          41 131 117 140 50 127 hintmask 11101111
          -81 callgsubr
          hintmask 11011111
          -81 callsubr
          -325 516 -70 callsubr
        </CharString>
        <CharString name="H">
          138 21 -21 309 92 299 -10 callgsubr
          289 135 vstem
          498 -44 callsubr
          3 -100 2 -95 -94 vvcurveto
          -294 hlineto
          141 1 80 7 78 vhcurveto
          -143 -10 rlineto
          -104 callsubr
          -20 callgsubr
          91 0 89 129 vvcurveto
          294 hlineto
          -1 -148 -5 -49 -2 -112 rrcurveto
          -86 callsubr
          endchar
        </CharString>
        <CharString name="Hbar">
          148 21 -21 309 92 126 64 -64 168 5 -20 hstem
          39 178 -133 133 291 130 -130 172 vstem
          503 -44 callsubr
          2 -34 0 -32 -33 vvcurveto
          -290 hlineto
          1 40 3 35 3 34 -144 -10 rcurveline
          4 -96 rlineto
          -14 -13 0 1 -14 hvcurveto
          -3 -68 rlineto
          15 15 1 15 hhcurveto
          -50 1 -49 -50 vvcurveto
          -205 -5 -46 -3 -128 vhcurveto
          -20 callgsubr
          91 0 89 129 vvcurveto
          294 hlineto
          -1 -148 -5 -49 -2 -112 rrcurveto
          -20 callgsubr
          103 0 24 callsubr
          171 40 vlineto
          4 68 rlineto
          -1 -15 -14 0 -13 hhcurveto
          1 39 2 33 3 34 rrcurveto
          -288 -169 rmoveto
          55 47 -1 47 hhcurveto
          -44 1 -43 -42 vvcurveto
          -294 130 hlineto
          endchar
        </CharString>
        <CharString name="Hcircumflex">
          138 21 -21 309 92 529 -10 callgsubr
          289 135 vstem
          498 -44 callsubr
          3 -100 2 -95 -94 vvcurveto
          -294 hlineto
          141 1 80 7 78 vhcurveto
          -143 -10 rlineto
          -104 callsubr
          -20 callgsubr
          91 0 89 129 vvcurveto
          294 hlineto
          -1 -148 -5 -49 -2 -112 rrcurveto
          -86 callsubr
          -470 103 rmoveto
          -98 callsubr
        </CharString>
        <CharString name="Hdotbelow">
          138 -34 callgsubr
          101 -21 309 92 299 -10 callgsubr
          83 131 75 135 vstem
          498 -44 callsubr
          3 -100 2 -95 -94 vvcurveto
          -294 hlineto
          141 1 80 7 78 vhcurveto
          -143 -10 rlineto
          -104 callsubr
          -20 callgsubr
          91 0 89 129 vvcurveto
          294 hlineto
          -1 -148 -5 -49 -2 -112 rrcurveto
          -86 callsubr
          -349 -843 -99 callsubr
        </CharString>
        <CharString name="I">
          38 callsubr
          700 -10 callgsubr
          vstem
          74 690 rmoveto
          -104 callsubr
          -86 callsubr
          endchar
        </CharString>
        <CharString name="IJ">
          -4 -126 -21 168 -21 700 -10 callgsubr
          157 121 vstem
          74 690 rmoveto
          -104 callsubr
          -86 callsubr
          149 -558 -67 callgsubr
        </CharString>
        <CharString name="Iacute">
          38 callsubr
          920 -10 callgsubr
          vstem
          74 690 rmoveto
          -104 callsubr
          -86 callsubr
          14 220 -82 callsubr
        </CharString>
        <CharString name="Ibreve">
          38 callsubr
          781 -26 callsubr
          -17 91 5 130 hintmask 10111000
          74 690 rmoveto
          -104 callsubr
          -86 callsubr
          8 228 rmoveto
          hintmask 11011000
          19 callsubr
          hintmask 10111000
          -64 callgsubr
        </CharString>
        <CharString name="Icircumflex">
          38 callsubr
          930 -10 callgsubr
          vstem
          74 690 rmoveto
          -104 callsubr
          -86 callsubr
          -260 103 rmoveto
          -98 callsubr
        </CharString>
        <CharString name="Idieresis">
          38 callsubr
          781 119 hstemhm
          -17 118 -22 130 -24 118 hintmask 11010000
          74 690 rmoveto
          -104 callsubr
          -86 callsubr
          hintmask 11101000
          -234 137 rmoveto
          -94 callsubr
        </CharString>
        <CharString name="Idotaccent">
          38 callsubr
          781 125 -44 callgsubr
          vstem
          74 690 rmoveto
          -104 callsubr
          -86 callsubr
          -141 138 -70 callsubr
        </CharString>
        <CharString name="Idotbelow">
          -286 -34 callgsubr
          101 -21 700 -10 callgsubr
          vstem
          74 690 rmoveto
          -104 callsubr
          -86 callsubr
          -139 -843 -99 callsubr
        </CharString>
        <CharString name="Igrave">
          38 callsubr
          920 -10 callgsubr
          vstem
          74 690 rmoveto
          -104 callsubr
          -86 callsubr
          -286 208 rmoveto
          -58 callsubr
        </CharString>
        <CharString name="Imacron">
          38 callsubr
          781 78 4 -20 -16 callsubr
          hintmask 10110000
          74 690 rmoveto
          -104 callsubr
          -86 callsubr
          99 163 rmoveto
          hintmask 11010000
          -36 callsubr
          hintmask 10110000
          -35 callgsubr
          hintmask 11010000
          -77 callsubr
        </CharString>
        <CharString name="Iogonek">
          -286 -230 63 188 -21 700 -20 hstemhm
          21 94 -36 36 -36 130 hintmask 11101000
          74 690 rmoveto
          -104 callsubr
          30 hlineto
          hintmask 11110000
          -33 -26 -47 -53 -61 -88 callgsubr
          45 25 47 22 29 hvcurveto
          50 hlineto
          hintmask 11100100
          -96 callsubr
          endchar
        </CharString>
        <CharString name="Itilde">
          38 callsubr
          769 -38 callsubr
          79 130 hintmask 10101000
          74 690 rmoveto
          -104 callsubr
          -86 callsubr
          55 208 -60 callgsubr
          hintmask 10011000
          -39 -41 53 -53 -89 callgsubr
          hintmask 11001000
          39 41 -53 53 -66 callgsubr
        </CharString>
        <CharString name="J">
          -291 -126 -21 847 -46 callgsubr
          endchar
        </CharString>
        <CharString name="Jcircumflex">
          -291 -126 -21 1078 -46 callgsubr
          -121 299 rmoveto
          -98 callsubr
        </CharString>
        <CharString name="K">
          31 9 -21 33 -21 299 81 332 -20 -16 callsubr
          216 135 hintmask 01111100
          -33 callsubr
          hvcurveto
          hintmask 10111100
          -28 -2 -39 -5 -50 vhcurveto
          hintmask 01111100
          -40 callgsubr
          endchar
        </CharString>
        <CharString name="Kcommaaccent">
          31 -229 -21 271 -21 299 81 332 -10 callgsubr
          70 87 59 135 vstem
          -33 callsubr
          -28 -2 -39 -5 -50 hvcurveto
          -40 callgsubr
          23 -805 rmoveto
          -100 callsubr
        </CharString>
        <CharString name="L">
          -91 0 98 602 -10 callgsubr
          vstem
          -93 callsubr
          endchar
        </CharString>
        <CharString name="Lacute">
          -91 0 98 822 -10 callgsubr
          vstem
          -93 callsubr
          -239 920 -82 callsubr
        </CharString>
        <CharString name="Lcaron">
          -89 0 98 672 -10 callgsubr
          151 85 vstem
          -93 callsubr
          -145 715 -76 callsubr
        </CharString>
        <CharString name="Lcommaaccent">
          -91 -11 callsubr
          51 0 98 602 -20 -16 callsubr
          38 87 hintmask 10111100
          -93 callsubr
          -263 -105 2 callgsubr
          hintmask 11011100
          31 -22 28 -38 -31 -32 -18 -36 -3 vhcurveto
          endchar
        </CharString>
        <CharString name="Ldot">
          -88 0 98 199 141 262 -10 callgsubr
          78 159 vstem
          -93 callsubr
          -184 363 rmoveto
          -67 callsubr
        </CharString>
        <CharString name="Lslash">
          -81 0 98 602 -20 hstem
          84 135 vstem
          481 98 rmoveto
          -261 hlineto
          -1 64 0 74 95 vvcurveto
          31 6 34 6 53 11 -15 91 rcurveline
          -51 -13 -23 -7 -29 -7 rrcurveto
          130 2 77 6 75 -54 callgsubr
          -105 1 -98 -99 vvcurveto
          -18 -3 -18 -4 -46 -7 16 -91 rcurveline
          66 18 -1 -142 -5 -49 -2 -110 rlinecurve
          400 hlineto
          endchar
        </CharString>
        <CharString name="M">
          275 9 -21 33 -21 712 -20 hstemhm
          79 117 456 117 hintmask 01111000
          589 700 rmoveto
          -45 -216 -56 -177 -64 -183 -66 188 -62 203 -47 197 -175 -22 rcurveline
          -53 callgsubr
          1 -89 -154 vvcurveto
          -154 -1 -57 -6 -128 vhcurveto
          130 hlineto
          -3 103 -3 123 160 vvcurveto
          96 vlineto
          -8 47 13 -47 rlineto
          hintmask 10111000
          44 -160 50 -175 69 -159 rrcurveto
          hintmask 01111000
          125 12 62 154 50 164 42 156 rlinecurve
          17 63 -8 -63 rlineto
          -75 vlineto
          -195 -4 -97 -3 -107 vhcurveto
          134 hlineto
          -7 105 -3 82 216 vvcurveto
          124 2 97 6 88 vhcurveto
          endchar
        </CharString>
        <CharString name="N">
          18 callsubr
          712 -20 hstemhm
          -7 callsubr
          hintmask 01111000
          508 -13 callsubr
          6 -101 -102 vvcurveto
          -130 -2 -96 -2 -64 vhcurveto
          -107 238 -71 212 -41 173 -221 -22 rcurveline
          -104 callsubr
          136 hlineto
          -3 103 -5 24 callsubr
          78 0 95 1 51 vhcurveto
          hintmask 10111000
          -46 callsubr
          rrcurveto
          hintmask 01111000
          201 12 rlineto
          -96 callsubr
          endchar
        </CharString>
        <CharString name="NULL">
          -573 endchar
        </CharString>
        <CharString name="Nacute">
          18 callsubr
          922 -20 hstemhm
          -7 callsubr
          hintmask 01111000
          508 -13 callsubr
          6 -101 -102 vvcurveto
          -130 -2 -96 -2 -64 vhcurveto
          -107 238 -71 212 -41 173 -221 -22 rcurveline
          -104 callsubr
          136 hlineto
          -3 103 -5 24 callsubr
          78 0 95 1 51 vhcurveto
          hintmask 10111000
          -46 callsubr
          rrcurveto
          hintmask 01111000
          201 12 rlineto
          -96 callsubr
          -212 222 -82 callsubr
        </CharString>
        <CharString name="Ncaron">
          18 callsubr
          932 -20 hstemhm
          -7 callsubr
          hintmask 01111000
          508 -13 callsubr
          6 -101 -102 vvcurveto
          -130 -2 -96 -2 -64 vhcurveto
          -107 238 -71 212 -41 173 -221 -22 rcurveline
          -104 callsubr
          136 hlineto
          -3 103 -5 24 callsubr
          78 0 95 1 51 vhcurveto
          hintmask 10111000
          -46 callsubr
          rrcurveto
          hintmask 01111000
          201 12 rlineto
          -96 callsubr
          -352 83 rmoveto
          -92 callsubr
        </CharString>
        <CharString name="Ncommaaccent">
          143 -11 callsubr
          45 27 -21 712 -20 hstem
          79 120 150 87 82 120 vstem
          508 -13 callsubr
          6 -101 -102 vvcurveto
          -130 -2 -96 -2 -64 vhcurveto
          -107 238 -71 212 -41 173 -221 -22 rcurveline
          -104 callsubr
          136 hlineto
          -3 103 -5 24 callsubr
          78 0 95 1 51 vhcurveto
          -46 callsubr
          201 12 rcurveline
          -96 callsubr
          -336 -805 rmoveto
          -100 callsubr
        </CharString>
        <CharString name="Ndotaccent">
          18 callsubr
          783 125 hstemhm
          79 120 103 140 76 120 hintmask 01111100
          508 -13 callsubr
          6 -101 -102 vvcurveto
          -130 -2 -96 -2 -64 vhcurveto
          -107 238 -71 212 -41 173 -221 -22 rcurveline
          -104 callsubr
          136 hlineto
          -3 103 -5 24 callsubr
          78 0 95 1 51 vhcurveto
          hintmask 10111100
          -46 callsubr
          rrcurveto
          hintmask 01111100
          201 12 rlineto
          -96 callsubr
          -344 140 -70 callsubr
        </CharString>
        <CharString name="Ntilde">
          18 callsubr
          771 -38 callsubr
          -7 callsubr
          hintmask 01100110
          508 -13 callsubr
          6 -101 -102 vvcurveto
          -130 -2 -96 -2 -64 vhcurveto
          -107 238 -71 212 -41 173 -221 -22 rcurveline
          -104 callsubr
          136 hlineto
          -3 103 -5 24 callsubr
          78 0 95 1 51 vhcurveto
          hintmask 10100110
          -46 callsubr
          rrcurveto
          hintmask 01010110
          201 12 rlineto
          -96 callsubr
          -149 210 -60 callgsubr
          hintmask 01001110
          -39 -41 53 -53 -89 callgsubr
          hintmask 01100110
          39 41 -53 53 -66 callgsubr
        </CharString>
        <CharString name="O">
          -5 callsubr
          hstem
          13 callsubr
          136 vstem
          -105 callgsubr
          endchar
        </CharString>
        <CharString name="OE">
          410 -12 88 -76 76 -76 98 211 92 201 98 -78 78 -78 90 hstemhm
          13 callsubr
          130 hintmask 1001100110000000
          901 401 rmoveto
          -260 hlineto
          83 0 66 2 52 vhcurveto
          289 98 -426 hlineto
          -12 1 -12 -12 vvcurveto
          hintmask 1001001110000000
          31 -42 -51 17 -60 hhcurveto
          -192 -123 -151 -217 -207 111 -149 183 66 58 23 39 47 hvcurveto
          hintmask 0101100110000000
          -1 -15 0 -17 -18 vvcurveto
          448 hlineto
          hintmask 0011010110000000
          98 -309 vlineto
          -1 59 0 69 83 vvcurveto
          260 hlineto
          -556 313 rmoveto
          130 36 -94 -169 hvcurveto
          hintmask 1001010110000000
          -181 -73 -102 -98 -115 -49 96 175 176 66 99 103 vhcurveto
          endchar
        </CharString>
        <CharString name="Oacute">
          -5 callsubr
          208 -20 hstem
          13 callsubr
          136 vstem
          -105 callgsubr
          394 576 -82 callsubr
        </CharString>
        <CharString name="Obreve">
          -5 callsubr
          69 -26 callsubr
          39 137 14 91 230 136 hintmask 11011110
          -105 callgsubr
          393 584 rmoveto
          hintmask 11101110
          19 callsubr
          hintmask 11011110
          -64 callgsubr
        </CharString>
        <CharString name="Ocircumflex">
          -5 callsubr
          218 -20 hstem
          13 callsubr
          136 vstem
          -105 callgsubr
          125 459 rmoveto
          -98 callsubr
        </CharString>
        <CharString name="Odieresis">
          -5 callsubr
          69 119 hstem
          39 137 14 23 callgsubr
          1 136 vstem
          -105 callgsubr
          151 493 rmoveto
          -94 callsubr
        </CharString>
        <CharString name="Odotbelow">
          -34 callgsubr
          68 88 546 90 hstem
          39 137 91 131 113 136 vstem
          -105 callgsubr
          228 -487 -99 callsubr
        </CharString>
        <CharString name="Ograve">
          -5 callsubr
          208 -20 hstem
          13 callsubr
          136 vstem
          -105 callgsubr
          140 564 rmoveto
          -58 callsubr
        </CharString>
        <CharString name="Ohungarumlaut">
          -5 callsubr
          218 -20 hstem
          13 callsubr
          136 vstem
          -105 callgsubr
          258 586 -41 callgsubr
        </CharString>
        <CharString name="Omacron">
          -5 callsubr
          69 78 4 -20 hstemhm
          13 callsubr
          136 hintmask 11011100
          -105 callgsubr
          484 519 -54 callsubr
        </CharString>
        <CharString name="Oogonek">
          -230 63 156 87 546 90 hstem
          39 137 66 94 175 136 vstem
          39 344 rmoveto
          -198 101 -145 169 -12 vhcurveto
          -31 -29 -36 -47 -53 -88 callgsubr
          41 20 42 21 29 hvcurveto
          164 23 106 151 202 vvcurveto
          209 -108 136 -185 -192 -123 -151 -217 vhcurveto
          306 278 rmoveto
          130 36 -94 -169 -175 -70 -108 -101 -115 -49 96 175 176 66 99 103 hvcurveto
          endchar
        </CharString>
        <CharString name="Oslash">
          31 callsubr
          hstemhm
          41 137 335 136 hintmask 01101100
          -2 callsubr
          hintmask 10011100
          -12 callgsubr
          hintmask 10101100
          -60 callsubr
          endchar
        </CharString>
        <CharString name="Oslashacute">
          31 callsubr
          241 -20 hstemhm
          41 137 335 136 hintmask 01101110
          -2 callsubr
          hintmask 10011110
          -12 callgsubr
          hintmask 10101110
          -60 callsubr
          65 299 -82 callsubr
        </CharString>
        <CharString name="Otilde">
          -5 callsubr
          57 -38 callsubr
          13 callsubr
          136 hintmask 11010110
          -105 callgsubr
          440 564 -60 callgsubr
          hintmask 11001110
          -39 -41 53 -53 -89 callgsubr
          hintmask 11100110
          39 41 -53 53 -66 callgsubr
        </CharString>
        <CharString name="P">
          4 21 -21 256 86 280 89 -44 callgsubr
          213 132 vstem
          554 501 rmoveto
          103 -49 107 -221 -68 -83 -10 -11 -59 vhcurveto
          -53 callgsubr
          1 -99 -112 vvcurveto
          -194 -3 -49 -5 -128 vhcurveto
          -20 callgsubr
          79 0 79 102 vvcurveto
          -3 21 21 -1 22 hhcurveto
          174 107 93 152 hvcurveto
          -345 -145 rmoveto
          113 0 76 2 64 vhcurveto
          8 31 28 5 27 hhcurveto
          80 45 -49 -87 -94 -53 -50 -100 -21 -20 1 4 -19 hvcurveto
          endchar
        </CharString>
        <CharString name="Q">
          -131 105 -105 207 546 90 hstemhm
          39 138 333 137 hintmask 10111000
          663 -24 rmoveto
          -2 -24 -22 0 -22 hhcurveto
          -68 -60 7 16 -60 hvcurveto
          147 36 93 144 192 vvcurveto
          206 -108 137 -185 -192 -123 -149 -223 -156 60 -102 102 -73 vhcurveto
          128 -92 193 -45 69 -3 rrcurveto
          -238 753 rmoveto
          122 35 -107 -144 hvcurveto
          hintmask 01111000
          -198 -69 -97 -106 -106 -52 96 170 181 59 99 117 vhcurveto
          endchar
        </CharString>
        <CharString name="R">
          6 callsubr
          -16 callsubr
          216 135 hintmask 01111100
          -79 callgsubr
          hvcurveto
          hintmask 10111100
          -36 -3 -40 -4 -44 vhcurveto
          hintmask 01111100
          -94 callgsubr
          endchar
        </CharString>
        <CharString name="Racute">
          6 callsubr
          211 -20 -16 callsubr
          216 135 hintmask 01111110
          -79 callgsubr
          hvcurveto
          hintmask 10111110
          -36 -3 -40 -4 -44 vhcurveto
          hintmask 01111110
          -94 callgsubr
          98 300 -82 callsubr
        </CharString>
        <CharString name="Rcaron">
          6 callsubr
          0 79 142 -20 -16 callsubr
          216 135 hintmask 01110111
          -79 callgsubr
          hvcurveto
          hintmask 10110111
          -36 -3 -40 -4 -44 vhcurveto
          hintmask 01110111
          -94 callgsubr
          -62 161 rmoveto
          hintmask 01101111
          -92 callsubr
        </CharString>
        <CharString name="Rcommaaccent">
          39 -229 -21 271 33 callgsubr
          -44 callgsubr
          69 87 60 135 vstem
          -79 callgsubr
          -36 -3 -40 -4 -44 hvcurveto
          -94 callgsubr
          -59 -727 rmoveto
          -100 callsubr
        </CharString>
        <CharString name="Rdotbelow">
          39 -34 callgsubr
          101 33 callgsubr
          -44 callgsubr
          34 131 51 135 vstem
          -79 callgsubr
          -36 -3 -40 -4 -44 hvcurveto
          -94 callgsubr
          -55 -765 -99 callsubr
        </CharString>
        <CharString name="S">
          -14 -12 -5 callgsubr
          hstem
          51 119 225 126 vstem
          -102 callgsubr
          endchar
        </CharString>
        <CharString name="Sacute">
          -14 -12 -5 callgsubr
          209 -20 hstem
          51 119 225 126 vstem
          -102 callgsubr
          68 818 -82 callsubr
        </CharString>
        <CharString name="Scaron">
          -14 -12 -5 callgsubr
          0 77 142 -20 hstemhm
          51 119 225 126 hintmask 11011100
          -102 callgsubr
          -52 679 rmoveto
          hintmask 10111100
          -92 callsubr
        </CharString>
        <CharString name="Schwa">
          60 -12 92 216 88 237 92 hstem
          31 124 299 140 vstem
          31 255 rmoveto
          -127 76 -140 180 184 123 147 232 241 -132 105 -163 -67 -105 -18 -46 -56 vhcurveto
          15 -88 rlineto
          35 74 58 25 70 hhcurveto
          130 34 -88 -149 2 hvcurveto
          -402 hlineto
          -12 -29 -9 -56 -44 vvcurveto
          261 -175 rmoveto
          -118 -19 109 62 19 1 16 2 10 hvcurveto
          293 hlineto
          -137 -12 -46 -79 -101 hhcurveto
          endchar
        </CharString>
        <CharString name="Scircumflex">
          -14 -12 -5 callgsubr
          219 -20 hstem
          51 119 225 126 vstem
          -102 callgsubr
          -166 701 rmoveto
          -98 callsubr
        </CharString>
        <CharString name="Sdotbelow">
          -14 -34 callgsubr
          68 -5 callgsubr
          hstem
          51 119 57 131 37 126 vstem
          -102 callgsubr
          -44 -245 -99 callsubr
        </CharString>
        <CharString name="T">
          -23 21 -21 602 98 hstem
          210 130 vstem
          540 700 rmoveto
          -530 -98 198 hlineto
          2 -76 0 -73 -74 vvcurveto
          -205 -5 -46 -3 -128 vhcurveto
          -20 callgsubr
          103 0 24 callsubr
          109 0 75 2 62 vhcurveto
          198 hlineto
          endchar
        </CharString>
        <CharString name="Tbar">
          4 21 -21 395 82 125 98 hstem
          224 130 vstem
          554 700 rmoveto
          -530 -98 198 hlineto
          1 -44 1 -43 -42 vvcurveto
          -58 -49 2 2 -67 hvcurveto
          -3 -82 rlineto
          3 67 51 1 59 hhcurveto
          -225 -5 -46 -3 -128 vhcurveto
          -20 callgsubr
          103 0 93 203 vvcurveto
          57 -1 49 -2 67 -1 4 82 rcurveline
          -2 -69 -50 -2 -58 hhcurveto
          49 1 43 1 37 vhcurveto
          198 hlineto
          endchar
        </CharString>
        <CharString name="Tcaron">
          -23 21 -21 602 98 0 90 142 -20 hstemhm
          210 130 hintmask 11011000
          540 700 rmoveto
          -530 -98 198 hlineto
          2 -76 0 -73 -74 vvcurveto
          -205 -5 -46 -3 -128 vhcurveto
          -20 callgsubr
          103 0 24 callsubr
          109 0 75 2 62 vhcurveto
          198 hlineto
          -337 181 rmoveto
          hintmask 10111000
          -92 callsubr
        </CharString>
        <CharString name="Tdotbelow">
          -23 -34 callgsubr
          101 -21 602 98 hstem
          210 130 vstem
          540 700 rmoveto
          -530 -98 198 hlineto
          2 -76 0 -73 -74 vvcurveto
          -205 -5 -46 -3 -128 vhcurveto
          -20 callgsubr
          103 0 24 callsubr
          109 0 75 2 62 vhcurveto
          198 hlineto
          -330 -745 -99 callsubr
        </CharString>
        <CharString name="Thorn">
          3 21 -21 133 86 255 94 132 -10 callgsubr
          213 132 vstem
          554 357 rmoveto
          116 -84 95 -191 -22 -23 -1 -2 -24 vhcurveto
          1 51 2 42 4 42 -143 -10 rcurveline
          -53 callgsubr
          1 -99 -112 vvcurveto
          -194 -3 -49 -5 -128 vhcurveto
          -15 callgsubr
          -2 45 0 44 -1 48 rrcurveto
          -3 21 21 -1 21 hhcurveto
          175 107 94 130 hvcurveto
          -345 107 rmoveto
          7 29 26 3 24 hhcurveto
          88 46 -47 -73 -79 -53 -56 -100 -21 -20 1 3 -19 hvcurveto
          endchar
        </CharString>
        <CharString name="U">
          105 -12 96 616 -20 hstem
          71 130 276 130 vstem
          -107 callgsubr
          endchar
        </CharString>
        <CharString name="Uacute">
          105 -12 96 836 -20 hstem
          71 130 276 130 vstem
          -107 callgsubr
          224 675 -82 callsubr
        </CharString>
        <CharString name="Ubreve">
          105 -12 96 697 -26 callsubr
          71 130 -24 91 209 130 hintmask 10110100
          -107 callgsubr
          218 683 rmoveto
          hintmask 11010100
          19 callsubr
          hintmask 10101100
          -64 callgsubr
        </CharString>
        <CharString name="Ucircumflex">
          105 -12 96 846 -20 hstem
          71 130 276 130 vstem
          -107 callgsubr
          -50 558 rmoveto
          -98 callsubr
        </CharString>
        <CharString name="Udieresis">
          105 -12 96 697 119 hstemhm
          71 130 -24 23 callgsubr
          -20 130 hintmask 11100100
          -107 callgsubr
          hintmask 11011000
          -24 592 rmoveto
          -94 callsubr
        </CharString>
        <CharString name="Udotbelow">
          105 -34 callgsubr
          68 96 616 -20 hstem
          71 130 71 131 74 130 vstem
          -107 callgsubr
          71 -388 -99 callsubr
        </CharString>
        <CharString name="Ugrave">
          105 -12 96 836 -20 hstem
          71 130 276 130 vstem
          -107 callgsubr
          -76 663 rmoveto
          -58 callsubr
        </CharString>
        <CharString name="Uhungarumlaut">
          105 -12 96 846 -20 hstem
          71 130 276 130 vstem
          -107 callgsubr
          83 685 -41 callgsubr
        </CharString>
        <CharString name="Umacron">
          105 -12 96 697 78 4 -20 hstemhm
          71 130 276 130 hintmask 10111000
          -107 callgsubr
          309 618 rmoveto
          hintmask 11011000
          -36 callsubr
          hintmask 10111000
          -35 callgsubr
          hintmask 11011000
          -77 callsubr
        </CharString>
        <CharString name="Uogonek">
          107 -230 63 156 95 616 -20 hstem
          72 130 44 94 138 130 vstem
          202 379 rmoveto
          160 0 80 8 81 -54 callgsubr
          -100 1 -93 -95 -68 -2 -46 -39 vvcurveto
          -156 105 -96 137 -8 vhcurveto
          -31 -29 -35 -47 -53 -88 callgsubr
          41 21 43 21 29 hvcurveto
          125 19 101 91 147 vvcurveto
          130 vlineto
          160 1 80 7 81 -54 callgsubr
          -100 1 -93 -95 vvcurveto
          -75 -1 -44 -1 -40 vhcurveto
          -112 -2 -76 -47 -58 hhcurveto
          -70 -68 46 115 hvcurveto
          endchar
        </CharString>
        <CharString name="Uring">
          105 -12 96 697 54 72 53 hstem
          71 130 49 54 75 57 41 130 vstem
          -107 callgsubr
          49 619 rmoveto
          -59 callsubr
        </CharString>
        <CharString name="Utilde">
          105 -12 96 685 -38 callsubr
          71 130 276 130 hintmask 10101100
          -107 callgsubr
          265 663 -60 callgsubr
          hintmask 10011100
          -39 -41 53 -53 -89 callgsubr
          hintmask 11001100
          39 41 -53 53 -66 callgsubr
        </CharString>
        <CharString name="V">
          55 9 -21 724 -20 hstem
          471 700 rmoveto
          -46 -216 -44 -188 -67 -183 -66 188 -45 214 -46 197 -136 -12 rcurveline
          65 -271 68 -221 98 -220 125 12 rcurveline
          99 225 67 217 65 270 rrcurveto
          endchar
        </CharString>
        <CharString name="W">
          365 9 -21 724 -20 hstem
          469 -102 callsubr
          endchar
        </CharString>
        <CharString name="Wacute">
          367 9 -21 934 -20 hstem
          471 -102 callsubr
          90 372 -82 callsubr
        </CharString>
        <CharString name="Wcircumflex">
          367 9 -21 944 -20 hstem
          471 -102 callsubr
          -184 255 rmoveto
          -98 callsubr
        </CharString>
        <CharString name="Wdieresis">
          367 9 -21 688 107 0 119 hstem
          309 23 callgsubr
          vstem
          471 -102 callsubr
          -158 289 rmoveto
          -94 callsubr
        </CharString>
        <CharString name="Wgrave">
          367 9 -21 934 -20 hstem
          471 -102 callsubr
          -210 360 rmoveto
          -58 callsubr
        </CharString>
        <CharString name="X">
          40 21 -21 700 -20 hstem
          458 700 rmoveto
          -53 -92 -46 -77 -52 -84 -73 115 -35 61 -39 77 rrcurveto
          -151 hlineto
          81 -116 72 -111 71 -111 -109 -176 -39 -58 -81 -128 rrcurveto
          149 hlineto
          48 90 46 81 60 103 55 -100 35 -67 60 -107 rrcurveto
          149 hlineto
          -69 107 -60 96 -96 157 128 197 38 60 62 83 rrcurveto
          endchar
        </CharString>
        <CharString name="Y">
          46 21 -21 712 -20 hstem
          245 131 vstem
          -97 callsubr
          endchar
        </CharString>
        <CharString name="Yacute">
          46 21 -21 922 -20 hstem
          245 131 vstem
          -97 callsubr
          -269 210 -82 callsubr
        </CharString>
        <CharString name="Ycircumflex">
          46 21 -21 932 -20 hstem
          245 131 vstem
          -97 callsubr
          -479 93 rmoveto
          -98 callsubr
        </CharString>
        <CharString name="Ydieresis">
          46 21 -21 783 119 hstemhm
          151 118 -24 131 -23 118 hintmask 11010000
          -97 callsubr
          hintmask 11101000
          -453 127 rmoveto
          -94 callsubr
        </CharString>
        <CharString name="Ygrave">
          46 21 -21 922 -20 hstem
          245 131 vstem
          -97 callsubr
          -505 198 rmoveto
          -58 callsubr
        </CharString>
        <CharString name="Ytilde">
          46 21 -21 771 -38 callsubr
          245 131 hintmask 10101000
          -97 callsubr
          -164 198 -60 callgsubr
          hintmask 10011000
          -39 -41 53 -53 -89 callgsubr
          hintmask 11001000
          39 41 -53 53 -66 callgsubr
        </CharString>
        <CharString name="Z">
          11 callgsubr
          12 -20 hstemhm
          hintmask 10100000
          502 700 rmoveto
          -70 hlineto
          hintmask 10010000
          -30 callgsubr
          hintmask 10100000
          -74 callgsubr
          hintmask 01100000
          -31 callsubr
          hintmask 10100000
          -64 callsubr
          endchar
        </CharString>
        <CharString name="Zacute">
          11 callgsubr
          222 -20 hstemhm
          hintmask 10110000
          502 700 rmoveto
          -70 hlineto
          -30 callgsubr
          -74 callgsubr
          hintmask 01110000
          -31 callsubr
          hintmask 10110000
          -64 callsubr
          -147 278 -82 callsubr
        </CharString>
        <CharString name="Zcaron">
          11 callgsubr
          0 90 142 -20 hstemhm
          hintmask 10101000
          502 700 rmoveto
          -70 hlineto
          -30 callgsubr
          -74 callgsubr
          hintmask 01101000
          -31 callsubr
          hintmask 10101000
          -64 callsubr
          -307 139 rmoveto
          hintmask 10011000
          -92 callsubr
        </CharString>
        <CharString name="Zdotaccent">
          11 callgsubr
          83 125 hstemhm
          209 140 hintmask 10111000
          502 700 rmoveto
          -70 hlineto
          -30 callgsubr
          -74 callgsubr
          hintmask 01111000
          -31 callsubr
          hintmask 10111000
          -64 callsubr
          -302 196 -70 callsubr
        </CharString>
        <CharString name="Zdotbelow">
          -28 -34 callgsubr
          80 100 501 99 12 -20 hstemhm
          210 131 hintmask 11101000
          502 700 rmoveto
          -70 hlineto
          hintmask 11011000
          -30 callgsubr
          hintmask 11101000
          -74 callgsubr
          -31 callsubr
          -64 callsubr
          -301 -787 -99 callsubr
        </CharString>
        <CharString name="a">
          -68 callgsubr
          hstemhm
          -16 callgsubr
          hintmask 00111110
          -61 callsubr
          hintmask 01011110
          -106 callgsubr
          hintmask 00111110
          -10 callsubr
          hintmask 10011110
          -83 callgsubr
          endchar
        </CharString>
        <CharString name="a.ss01">
          -95 -12 92 147 74 116 95 hstem
          -16 callgsubr
          vstem
          164 -12 rmoveto
          53 55 24 59 29 hvcurveto
          8 -27 13 -21 21 -14 18 -12 23 -7 27 -2 57 109 rcurveline
          -30 9 -11 5 -8 9 rrcurveto
          -8 10 -3 9 24 30 5 112 32 vvcurveto
          115 -63 60 -114 -61 -75 -17 -19 -39 vhcurveto
          31 -90 rlineto
          21 38 49 10 30 hhcurveto
          54 26 -32 -59 hvcurveto
          -56 vlineto
          21 -33 -41 10 -36 hhcurveto
          -85 -69 -56 -101 -82 46 -74 93 hvcurveto
          48 92 rmoveto
          -34 -27 25 48 57 37 17 34 35 33 -19 -48 -54 -43 -26 -35 hvcurveto
          endchar
        </CharString>
        <CharString name="aacute">
          -68 callgsubr
          248 -20 hstemhm
          -16 callgsubr
          hintmask 00111111
          -61 callsubr
          hintmask 01011111
          -106 callgsubr
          hintmask 00111111
          -10 callsubr
          hintmask 10011111
          -83 callgsubr
          45 680 -80 callsubr
        </CharString>
        <CharString name="abreve">
          -68 callgsubr
          90 -26 callsubr
          25 126 -66 91 113 124 hintmask 0011110101000000
          -61 callsubr
          hintmask 0101110101000000
          -106 callgsubr
          hintmask 0011110101000000
          -10 callsubr
          hintmask 1001101101000000
          -83 callgsubr
          94 669 rmoveto
          hintmask 1001110101000000
          19 callgsubr
          hintmask 1001101011000000
          -65 callsubr
        </CharString>
        <CharString name="acircumflex">
          -68 callgsubr
          256 -20 hstemhm
          -16 callgsubr
          hintmask 00111111
          -61 callsubr
          hintmask 01011111
          -106 callgsubr
          hintmask 00111111
          -10 callsubr
          hintmask 10011111
          -83 callgsubr
          -144 521 -84 callsubr
        </CharString>
        <CharString name="acute">
          -289 34 callsubr
          162 760 -80 callsubr
        </CharString>
        <CharString name="acute.cap">
          -322 803 -21 139 -20 hstem
          119 921 -82 callsubr
        </CharString>
        <CharString name="adieresis">
          -68 callgsubr
          91 119 hstemhm
          25 126 -53 118 73 109 -109 124 hintmask 0011111010000000
          -61 callsubr
          hintmask 0101111001000000
          -106 callgsubr
          hintmask 0011111010000000
          -10 callsubr
          hintmask 1001111010000000
          -83 callgsubr
          hintmask 1001110110000000
          -115 579 -89 callsubr
        </CharString>
        <CharString name="ae">
          27 callsubr
          hstemhm
          25 128 136 122 166 104 hintmask 11101110
          -68 callsubr
          hintmask 11011110
          334 451 rmoveto
          65 14 -75 -42 hvcurveto
          -11 -1 -4 -7 vvcurveto
          -164 15 hlineto
          85 -8 callsubr
          endchar
        </CharString>
        <CharString name="aeacute">
          27 callsubr
          248 -20 hstemhm
          25 128 136 122 165 105 hintmask 11101111
          -68 callsubr
          hintmask 11011111
          334 451 rmoveto
          74 4 -91 -48 hvcurveto
          -164 hlineto
          100 -8 callsubr
          209 680 -80 callsubr
        </CharString>
        <CharString name="agrave">
          -68 callgsubr
          248 -20 hstemhm
          -16 callgsubr
          hintmask 00111111
          -61 callsubr
          hintmask 01011111
          -106 callgsubr
          hintmask 00111111
          -10 callsubr
          hintmask 10011111
          -83 callgsubr
          -117 668 rmoveto
          -51 callsubr
        </CharString>
        <CharString name="amacron">
          -68 callgsubr
          110 78 4 -20 hstemhm
          -16 callgsubr
          hintmask 0011110110000000
          -61 callsubr
          hintmask 0101110110000000
          -106 callgsubr
          hintmask 0011110110000000
          -10 callsubr
          hintmask 1001101110000000
          -83 callgsubr
          197 624 rmoveto
          hintmask 1001110110000000
          -36 callsubr
          hintmask 1001101110000000
          -35 callgsubr
          hintmask 1001110110000000
          -77 callsubr
        </CharString>
        <CharString name="ampersand">
          148 -12 91 -58 -21 623 89 hstemhm
          59 132 -84 115 hintmask 10101000
          451 409 rmoveto
          3 -48 12 -102 -44 vvcurveto
          -134 120 -110 125 92 vvcurveto
          60 47 11 30 39 47 -18 -19 31 vhcurveto
          104 vlineto
          14 -34 -40 8 -43 hhcurveto
          -73 -119 -23 -136 -52 17 -52 29 -51 hvcurveto
          hintmask 10110000
          -56 -49 -38 -62 -88 vvcurveto
          -154 118 -57 141 89 59 23 36 38 vhcurveto
          hintmask 01110000
          63 -47 rlineto
          162 hlineto
          -55 42 -60 47 -59 50 rrcurveto
          6 23 2 26 26 vvcurveto
          33 -4 36 -6 49 vhcurveto
          95 5 9 90 rlineto
          -234 -316 rmoveto
          hintmask 10110000
          -19 -22 -34 -13 -49 hhcurveto
          -95 -32 48 77 39 8 35 19 29 hvcurveto
          58 -70 74 -66 73 -60 rrcurveto
          endchar
        </CharString>
        <CharString name="aogonek">
          -91 -230 63 155 92 -92 108 131 74 110 101 hstemhm
          25 126 114 94 -70 124 hintmask 10111110
          -61 callsubr
          4 -33 17 -24 25 -12 rrcurveto
          -33 -25 -50 -55 -63 -88 callgsubr
          42 21 43 21 29 hvcurveto
          16 1 16 4 18 6 16 96 rcurveline
          -3 -13 -10 -1 -7 hhcurveto
          -25 -8 12 31 hvcurveto
          hintmask 10111101
          29 9 133 39 vvcurveto
          113 -60 59 -116 -57 -80 -14 -17 -39 vhcurveto
          31 -96 rlineto
          15 26 51 11 40 hhcurveto
          58 22 -23 -62 hvcurveto
          -56 vlineto
          20 -31 -40 11 -39 hhcurveto
          -93 -61 -63 -95 -92 56 -63 84 hvcurveto
          hintmask 11011110
          -83 callgsubr
          endchar
        </CharString>
        <CharString name="apostrophe">
          -250 582 -21 209 -20 hstem
          114 770 28 callsubr
        </CharString>
        <CharString name="aring">
          -68 callgsubr
          62 57 77 57 31 callgsubr
          hintmask 0011111101000000
          -61 callsubr
          hintmask 0101111100100000
          -106 callgsubr
          hintmask 0011111101000000
          -10 callsubr
          hintmask 1001111101000000
          -83 callgsubr
          hintmask 1001111011000000
          -74 582 -72 callsubr
          endchar
        </CharString>
        <CharString name="aringacute">
          -68 callgsubr
          51 57 77 57 225 -20 31 callgsubr
          hintmask 0011111110100000
          -61 callsubr
          hintmask 0101111110010000
          -106 callgsubr
          hintmask 0011111110100000
          -10 callsubr
          hintmask 1001111110100000
          -83 callgsubr
          hintmask 1001111101100000
          -74 571 -72 callsubr
          61 323 -80 callsubr
        </CharString>
        <CharString name="asciicircum">
          -141 206 -21 229 -20 hstem
          44 197 rmoveto
          69 -12 103 163 103 -163 69 12 -99 217 rlineto
          -2 -14 -35 -5 -24 hhcurveto
          -24 -35 5 2 -14 hvcurveto
          endchar
        </CharString>
        <CharString name="asciitilde">
          -62 178 -38 callsubr
          hintmask 01000000
          403 317 -60 callgsubr
          hintmask 00100000
          -51 -53 53 -69 -89 callgsubr
          hintmask 10000000
          51 53 -53 69 -66 callgsubr
        </CharString>
        <CharString name="asterisk">
          -118 410 -21 381 -20 hstem
          181 770 rmoveto
          7 -133 -112 55 -41 -94 133 -38 -94 -102 77 -69 75 117 64 -114 89 52 -89 109 127 28 -22 101 -127 -53 15 131 rlineto
          endchar
        </CharString>
        <CharString name="at">
          206 -142 85 70 79 113 58 91 77 66 85 hstem
          41 90 104 102 109 99 120 84 vstem
          385 86 rmoveto
          -26 -22 20 40 45 28 14 27 28 26 -15 -38 -44 -33 -22 -28 hvcurveto
          127 -124 rmoveto
          -12 -35 -40 -7 -45 hhcurveto
          -182 -79 99 168 186 96 101 182 178 78 -96 -148 -133 -46 -28 -50 -16 -16 7 29 hvcurveto
          21 8 109 39 vvcurveto
          91 -45 43 -90 -44 -68 -10 -19 -34 vhcurveto
          23 -75 rlineto
          23 36 47 4 21 hhcurveto
          47 8 -20 -45 hvcurveto
          -51 vlineto
          17 -27 -32 8 -29 hhcurveto
          -68 -55 -45 -80 -66 37 -59 74 43 44 20 47 23 hvcurveto
          -46 7 56 -17 46 hhcurveto
          94 90 72 160 191 -128 142 36 callgsubr
          -207 131 -149 213 54 60 9 17 44 hvcurveto
          endchar
        </CharString>
        <CharString name="atilde">
          -68 callgsubr
          84 -38 callsubr
          -16 callgsubr
          hintmask 0011110011000000
          -61 callsubr
          hintmask 0101110011000000
          -106 callgsubr
          hintmask 0011110011000000
          -10 callsubr
          hintmask 1001101011000000
          -83 callgsubr
          142 655 -60 callgsubr
          hintmask 1001100111000000
          -33 -35 53 -45 -89 callgsubr
          hintmask 1001110011000000
          33 35 -53 45 -66 callgsubr
        </CharString>
        <CharString name="b">
          -55 -12 70 -37 -42 callsubr
          258 -20 hstemhm
          67 124 162 129 hintmask 01111100
          62 32 callsubr
          -114 -113 vvcurveto
          -223 -3 -130 -16 -61 vhcurveto
          53 hlineto
          37 52 rlineto
          hintmask 10111100
          -38 32 40 -26 58 -23 callgsubr
          161 1 93 -26 callgsubr
          86 -373 -62 callsubr
          endchar
        </CharString>
        <CharString name="backslash">
          -53 -103 -21 824 -20 hstem
          497 -124 rmoveto
          -130 271 -122 272 -115 271 -108 10 rcurveline
          134 -277 126 -270 119 -275 rrcurveto
          endchar
        </CharString>
        <CharString name="bar">
          -345 -199 -21 920 -20 hstem
          72 85 vstem
          67 -44 callsubr
          4 -144 1 -149 -138 vvcurveto
          -265 -5 -50 -3 -164 vhcurveto
          96 hlineto
          -3 139 0 109 20 callsubr
        </CharString>
        <CharString name="braceleft">
          25 callsubr
          100 110 vstem
          100 522 rmoveto
          -95 -13 -23 -38 vhcurveto
          -32 -78 28 hlineto
          41 14 -18 -100 hvcurveto
          -96 vlineto
          -171 67 -49 80 31 42 10 21 33 vhcurveto
          -11 69 rlineto
          -13 -30 -32 -9 -25 hhcurveto
          -28 -17 20 108 hvcurveto
          96 vlineto
          86 -22 44 -40 41 vhcurveto
          40 41 22 44 86 vvcurveto
          78 vlineto
          108 17 20 28 25 32 -10 -12 30 vhcurveto
          11 69 rlineto
          21 -33 -42 10 -31 hhcurveto
          -80 -67 -49 -171 hvcurveto
          endchar
        </CharString>
        <CharString name="braceright">
          25 callsubr
          163 110 vstem
          273 600 rmoveto
          171 -67 49 -80 -31 -42 -10 -21 -33 vhcurveto
          11 -69 rlineto
          12 30 32 10 25 hhcurveto
          28 17 -20 -108 hvcurveto
          -78 vlineto
          -86 22 -44 40 -41 vhcurveto
          -40 -41 -22 -44 -86 vvcurveto
          -96 vlineto
          -108 -17 -20 -28 -25 -32 9 13 -30 vhcurveto
          -11 -69 rlineto
          -21 33 42 -10 31 hhcurveto
          80 67 49 171 hvcurveto
          96 vlineto
          100 14 18 41 vhcurveto
          28 78 -32 hlineto
          -38 -13 23 95 hvcurveto
          endchar
        </CharString>
        <CharString name="bracketleft">
          -244 -98 78 752 78 hstemhm
          73 109 -109 220 -220 239 hintmask 11001000
          293 810 rmoveto
          -225 hlineto
          -53 callgsubr
          1 -221 -102 vvcurveto
          -205 -5 -144 -3 -128 vhcurveto
          247 78 -129 hlineto
          hintmask 11100000
          -1 71 0 196 109 vvcurveto
          110 0 204 2 62 vhcurveto
          hintmask 11010000
          109 hlineto
          endchar
        </CharString>
        <CharString name="bracketright">
          -244 -98 78 752 78 hstemhm
          17 239 -220 220 -109 109 hintmask 11010000
          36 732 rmoveto
          109 hlineto
          hintmask 11001000
          2 -62 0 -204 -110 vvcurveto
          -109 0 -196 -1 -71 vhcurveto
          hintmask 11100000
          -129 -78 247 hlineto
          -3 128 -5 144 205 vvcurveto
          102 1 221 4 108 vhcurveto
          hintmask 11010000
          -225 hlineto
          endchar
        </CharString>
        <CharString name="breve">
          -51 602 -26 callsubr
          105 91 hintmask 01100000
          327 749 rmoveto
          hintmask 10100000
          19 callgsubr
          hintmask 01100000
          -65 callsubr
        </CharString>
        <CharString name="breve.cap">
          -241 782 -26 callsubr
          0 91 hintmask 01100000
          242 929 rmoveto
          hintmask 10100000
          19 callsubr
          hintmask 01100000
          -64 callgsubr
        </CharString>
        <CharString name="brokenbar">
          -321 -201 -21 390 142 390 -20 hstem
          72 107 vstem
          67 -44 callsubr
          4 -51 1 -44 -51 vvcurveto
          -128 -5 -26 -3 -80 vhcurveto
          118 hlineto
          -3 61 0 55 95 vvcurveto
          94 1 40 7 45 vhcurveto
          -3 -912 rmoveto
          -4 51 -1 44 51 vvcurveto
          128 5 26 3 80 vhcurveto
          -118 hlineto
          3 -61 0 -55 -95 vvcurveto
          -94 -1 -40 -7 -45 vhcurveto
          endchar
        </CharString>
        <CharString name="bullet">
          -250 216 191 hstem
          73 178 vstem
          73 304 rmoveto
          -57 38 -31 46 56 38 44 54 57 -41 36 -46 -57 -34 -47 -56 vhcurveto
          endchar
        </CharString>
        <CharString name="c">
          -13 callgsubr
          39 callgsubr
          155 90 hintmask 11011000
          -85 callgsubr
          hintmask 10111000
          12 callgsubr
          hintmask 11011000
          -43 callsubr
          endchar
        </CharString>
        <CharString name="cacute">
          -13 callgsubr
          279 22 callsubr
          hintmask 11011100
          -85 callgsubr
          hintmask 10111100
          12 callgsubr
          hintmask 11011100
          -43 callsubr
          247 543 -80 callsubr
        </CharString>
        <CharString name="caron">
          -111 622 -21 179 -20 hstem
          162 601 rmoveto
          -87 callsubr
        </CharString>
        <CharString name="caron.alt">
          -288 589 -21 202 -20 hstem
          117 85 vstem
          83 715 -76 callsubr
        </CharString>
        <CharString name="caron.cap">
          -199 33 callsubr
          114 782 rmoveto
          -92 callsubr
        </CharString>
        <CharString name="ccaron">
          -13 callgsubr
          31 84 172 22 callsubr
          hintmask 11001110
          -85 callgsubr
          hintmask 10111110
          12 callgsubr
          -43 callsubr
          157 372 rmoveto
          -87 callsubr
        </CharString>
        <CharString name="ccedilla">
          -121 -230 59 64 199 -103 103 351 69 -11 -20 hstemhm
          36 130 127 96 -68 90 hintmask 11010110
          36 217 rmoveto
          -170 76 -48 86 -9 vhcurveto
          -17 -100 rlineto
          -76 callgsubr
          hintmask 10110101
          5 36 51 4 49 15 36 32 rlinecurve
          88 vlineto
          -15 -34 -50 -21 -46 hhcurveto
          -68 -36 45 109 129 30 68 64 29 32 -29 -73 -13 -1 -11 -1 -13 hvcurveto
          98 13 -11 194 rlineto
          hintmask 11001110
          12 callgsubr
          hintmask 11010110
          -43 callsubr
          endchar
        </CharString>
        <CharString name="ccircumflex">
          -13 callgsubr
          287 22 callsubr
          hintmask 11011100
          -85 callgsubr
          hintmask 10111100
          12 callgsubr
          hintmask 11011100
          -43 callsubr
          58 384 -84 callsubr
        </CharString>
        <CharString name="cdotaccent">
          -13 callgsubr
          122 117 39 callgsubr
          34 131 -10 90 hintmask 11011010
          -85 callgsubr
          hintmask 10111100
          12 callgsubr
          hintmask 11011100
          -43 callsubr
          164 440 -70 callgsubr
        </CharString>
        <CharString name="cedilla">
          -229 -230 59 64 115 hstem
          188 96 vstem
          96 8 rmoveto
          -20 -118 rlineto
          -76 callgsubr
          8 55 rlineto
          endchar
        </CharString>
        <CharString name="cent">
          -119 -99 -21 750 -20 hstemhm
          39 123 63 56 -56 178 -72 89 hintmask 11110100
          39 219 rmoveto
          -187 89 -41 96 -3 vhcurveto
          -4 -108 rlineto
          65 hlineto
          -4 111 rlineto
          hintmask 11101000
          46 5 43 15 33 29 rrcurveto
          88 vlineto
          hintmask 11110100
          -31 -24 -50 -20 -41 -4 rrcurveto
          238 0 68 1 59 vhcurveto
          29 -13 20 -38 -54 vvcurveto
          -12 -1 -11 -1 -13 vhcurveto
          91 13 rlineto
          108 -20 82 -117 5 vhcurveto
          1 44 4 38 3 36 -68 -10 rcurveline
          4 -112 rlineto
          -118 -20 -70 -104 -165 vvcurveto
          188 -132 rmoveto
          -44 18 -21 55 90 vvcurveto
          101 27 68 39 23 vhcurveto
          -61 1 -59 -59 vvcurveto
          -59 -1 -59 -1 -58 vhcurveto
          endchar
        </CharString>
        <CharString name="circumflex">
          -111 622 -21 172 -20 27 -20 hstemhm
          hintmask 10100000
          63 613 rmoveto
          -11 callgsubr
          103 25 callgsubr
          -99 -20 callsubr
          hintmask 11000000
          -2 -14 -35 -5 -24 hhcurveto
          hintmask 10100000
          -24 -35 5 2 -14 hvcurveto
          endchar
        </CharString>
        <CharString name="circumflex.cap">
          -199 33 callsubr
          804 vmoveto
          -98 callsubr
        </CharString>
        <CharString name="colon">
          -306 -11 141 229 141 hstem
          54 159 vstem
          54 55 -32 callsubr
          endchar
        </CharString>
        <CharString name="comma">
          -329 -142 -21 293 -20 hstem
          90 108 vstem
          40 50 rmoveto
          -27 callsubr
        </CharString>
        <CharString name="commaaccent">
          -288 -11 callsubr
          -20 hstem
          122 87 vstem
          83 -105 rmoveto
          -100 callsubr
        </CharString>
        <CharString name="copyright">
          215 -12 85 107 74 223 51 99 85 hstem
          40 90 113 96 103 70 147 89 vstem
          243 332 rmoveto
          -127 70 -25 71 44 45 9 26 32 vhcurveto
          63 vlineto
          -10 -26 -36 -14 -35 hhcurveto
          -45 -24 29 68 83 20 43 43 19 21 -18 -45 -8 0 -8 -1 -8 hvcurveto
          75 8 -7 129 rlineto
          -5 -18 -7 -1 -9 -25 -18 7 -32 hhcurveto
          -89 -68 -69 -127 hvcurveto
          153 295 rmoveto
          206 57 -96 -172 -178 -110 -108 -158 -182 -79 96 178 179 106 101 160 hvcurveto
          -356 -283 rmoveto
          -207 131 -149 213 219 145 -30 callsubr
          -128 136 36 callgsubr
          vhcurveto
          endchar
        </CharString>
        <CharString name="currency">
          20 38 -21 21 80 262 82 29 -20 hstemhm
          88 111 191 110 hintmask 10111100
          88 242 rmoveto
          -37 6 -32 12 -28 vhcurveto
          -19 -18 -20 -17 -25 -23 61 -70 rcurveline
          21 24 17 18 17 18 rrcurveto
          -25 33 42 -14 51 hhcurveto
          56 49 17 31 37 hvcurveto
          20 -21 19 -20 25 -28 61 70 rcurveline
          -30 27 -21 19 -23 22 rrcurveto
          15 31 8 37 42 vvcurveto
          35 -6 32 -12 26 vhcurveto
          21 20 20 18 28 25 -61 70 rcurveline
          -24 -27 -18 -19 -18 -19 rrcurveto
          23 -32 -42 13 -51 hhcurveto
          -55 -46 -15 -26 -36 hvcurveto
          -21 21 -19 20 -25 29 -61 -70 rcurveline
          28 -27 21 -18 22 -21 rrcurveto
          -17 -32 -8 -38 -43 vvcurveto
          208 138 rmoveto
          76 18 -46 -77 hvcurveto
          hintmask 01111100
          -84 -37 -55 -62 -67 -25 46 81 84 35 51 62 vhcurveto
          endchar
        </CharString>
        <CharString name="d">
          -57 -12 115 339 70 258 -20 hstem
          8 callsubr
          vstem
          -101 callsubr
          endchar
        </CharString>
        <CharString name="dagger">
          -191 -189 -21 587 92 201 -20 hstem
          139 106 vstem
          354 469 rmoveto
          -2 -44 -30 -2 -35 5 callsubr
          -29 2 2 -42 hvcurveto
          -5 -92 rlineto
          1 44 31 2 36 hhcurveto
          -121 vlineto
          -265 -5 -40 -3 -164 vhcurveto
          116 hlineto
          -3 139 0 99 208 vvcurveto
          144 vlineto
          33 28 -2 -1 43 hvcurveto
          endchar
        </CharString>
        <CharString name="daggerdbl">
          -172 -189 -21 242 92 253 92 201 -20 hstem
          150 105 vstem
          364 124 rmoveto
          -2 -44 -30 -2 -35 hhcurveto
          260 vlineto
          32 29 -2 -1 42 hvcurveto
          6 92 rlineto
          -2 -44 -30 -2 -34 5 callsubr
          -30 2 2 -42 hvcurveto
          -5 -92 45 1 30 2 37 1 rlinecurve
          -178 0 -44 -1 -39 vhcurveto
          -34 -29 2 2 -43 hvcurveto
          -5 -92 rlineto
          1 44 30 2 36 hhcurveto
          -1 -89 -3 -54 -2 -102 rrcurveto
          116 hlineto
          -2 85 -1 72 88 vvcurveto
          32 29 -2 -1 42 hvcurveto
          endchar
        </CharString>
        <CharString name="dcaron">
          -57 -12 115 339 70 258 -20 hstem
          8 callsubr
          93 85 vstem
          -101 callsubr
          253 612 -76 callsubr
        </CharString>
        <CharString name="dcroat">
          -57 -12 115 339 70 68 88 102 -20 hstem
          8 callsubr
          -124 221 vstem
          543 670 rmoveto
          -96 -4 1 36 1 34 2 34 rlinecurve
          -136 -11 4 -93 -97 4 -5 -92 102 4 rlineto
          -85 vlineto
          10 -18 -19 5 -21 hhcurveto
          -134 -92 -103 -209 -170 72 -42 72 66 53 45 40 39 hvcurveto
          12 -27 22 -24 37 -34 87 81 rcurveline
          -43 54 -9 19 103 vvcurveto
          112 0 114 2 110 vhcurveto
          92 -3 rlineto
          -288 -475 rmoveto
          -50 -33 20 109 138 33 72 58 27 20 -10 -19 15 hvcurveto
          -184 vlineto
          -42 0 -32 3 -25 vhcurveto
          -16 -20 -24 -11 -29 hhcurveto
          endchar
        </CharString>
        <CharString name="ddotbelow">
          -57 -34 callgsubr
          68 115 339 70 258 -20 hstemhm
          35 131 23 131 -1 124 hintmask 11111010
          -101 callsubr
          hintmask 11111100
          -60 -246 -99 callsubr
        </CharString>
        <CharString name="degree">
          -219 438 68 137 69 hstem
          39 74 125 78 vstem
          180 643 rmoveto
          41 17 -27 -34 -42 -28 -34 -40 -36 -21 30 35 40 26 32 41 hvcurveto
          -141 -72 rmoveto
          -82 50 -51 80 88 59 57 88 82 -50 47 -83 -88 -56 -55 -86 vhcurveto
          endchar
        </CharString>
        <CharString name="dieresis">
          -269 603 119 hstem
          2 35 callsubr
          vstem
          2 659 -89 callsubr
        </CharString>
        <CharString name="dieresis.cap">
          -253 782 119 hstem
          0 23 callgsubr
          vstem
          838 vmoveto
          -94 callsubr
        </CharString>
        <CharString name="divide">
          -123 69 141 75 84 70 141 hstem
          148 159 vstem
          148 135 -32 callsubr
          260 -132 22 callgsubr
          -5 -92 rlineto
          2 71 38 2 71 hhcurveto
          30 callgsubr
        </CharString>
        <CharString name="dollar">
          -17 -110 -21 743 99 86 -20 hstemhm
          37 119 88 76 -76 232 -75 126 hintmask 11111010
          236 787 rmoveto
          3 -80 rlineto
          -98 -13 -104 -49 -140 vvcurveto
          -125 80 -35 127 -40 vhcurveto
          -212 vlineto
          -72 6 -83 23 -41 20 4 -113 rcurveline
          62 -23 67 -13 58 -4 -4 -117 rcurveline
          87 -3 -4 121 rlineto
          123 12 86 69 125 vvcurveto
          134 -110 45 -103 28 vhcurveto
          93 0 70 1 46 vhcurveto
          hintmask 11110100
          50 -2 55 -13 56 -16 rrcurveto
          106 vlineto
          -43 10 -50 12 -62 2 1 29 2 31 2 26 rrcurveto
          hintmask 11111010
          75 -609 rmoveto
          -51 -29 -33 -58 -10 vhcurveto
          187 vlineto
          50 -19 37 -26 -48 vvcurveto
          -245 328 rmoveto
          43 27 36 61 13 vhcurveto
          -184 vlineto
          -45 17 -43 26 49 vvcurveto
          endchar
        </CharString>
        <CharString name="dotaccent">
          -289 603 117 hstem
          79 131 vstem
          79 657 -70 callgsubr
        </CharString>
        <CharString name="dotaccent.cap">
          -293 782 125 hstem
          70 140 vstem
          70 839 -70 callsubr
        </CharString>
        <CharString name="dotbelow">
          -289 -34 callgsubr
          hstem
          76 131 vstem
          76 -143 -99 callsubr
        </CharString>
        <CharString name="dotlessi">
          -17 callsubr
          hstem
          66 124 vstem
          61 500 rmoveto
          -96 callgsubr
          endchar
        </CharString>
        <CharString name="dotlessj">
          -324 21 callgsubr
          619 -20 hstem
          63 117 vstem
          63 -4 rmoveto
          -100 callgsubr
          43 1 65 -3 callsubr
          -137 hlineto
          -22 callgsubr
          endchar
        </CharString>
        <CharString name="e">
          -45 callgsubr
          hstem
          35 130 166 104 vstem
          -106 callsubr
          endchar
        </CharString>
        <CharString name="eacute">
          -45 callgsubr
          248 -20 hstem
          35 130 166 104 vstem
          -106 callsubr
          38 321 -80 callsubr
        </CharString>
        <CharString name="ebreve">
          -45 callgsubr
          90 -26 callsubr
          35 130 -52 91 127 104 hintmask 11101101
          -106 callsubr
          84 310 rmoveto
          hintmask 11110101
          19 callgsubr
          hintmask 11101011
          -65 callsubr
        </CharString>
        <CharString name="ecaron">
          -107 -12 101 0 137 0 74 139 73 0 84 172 -20 39 callgsubr
          166 104 hintmask 01010111
          419 226 rmoveto
          9 21 7 37 42 vvcurveto
          84 -29 102 -137 -132 -102 -95 -195 vhcurveto
          hintmask 10110111
          -196 103 -38 98 60 71 14 38 42 vhcurveto
          0 callgsubr
          -51 -21 -53 hhcurveto
          -70 -34 36 101 -6 hvcurveto
          86 213 rmoveto
          67 13 -76 -42 hvcurveto
          -6 -1 -10 -5 vvcurveto
          -165 hlineto
          95 5 29 44 52 hhcurveto
          -52 150 rmoveto
          hintmask 10101111
          -87 callsubr
        </CharString>
        <CharString name="ecircumflex">
          -45 callgsubr
          256 -20 hstem
          35 130 166 104 vstem
          -106 callsubr
          -151 162 -84 callsubr
        </CharString>
        <CharString name="edieresis">
          -45 callgsubr
          91 119 39 callgsubr
          -36 118 64 124 -104 104 hintmask 11111001
          -106 callsubr
          hintmask 11110110
          -122 220 -89 callsubr
        </CharString>
        <CharString name="edotaccent">
          -45 callgsubr
          91 117 39 callgsubr
          41 131 -6 104 hintmask 11111010
          -106 callsubr
          hintmask 11111100
          -45 218 -70 callgsubr
        </CharString>
        <CharString name="edotbelow">
          -107 -34 callgsubr
          68 101 137 74 139 73 hstem
          35 130 32 131 3 104 vstem
          -106 callsubr
          -54 -582 -99 callsubr
        </CharString>
        <CharString name="egrave">
          -45 callgsubr
          248 -20 hstem
          35 130 166 104 vstem
          -106 callsubr
          -124 309 rmoveto
          -51 callsubr
        </CharString>
        <CharString name="eight">
          -26 -12 82 256 86 212 87 hstemhm
          41 133 -107 107 -107 123 167 123 -107 107 -107 133 hintmask 1110101000000000
          480 534 rmoveto
          81 -38 96 -164 -165 -46 -96 -84 -69 30 -67 78 -24 vhcurveto
          hintmask 1111000010000000
          -95 -14 -39 -79 -88 vvcurveto
          -133 100 -69 137 140 88 72 125 93 -44 79 -91 14 vhcurveto
          hintmask 1111000100000000
          73 23 36 58 82 vvcurveto
          -107 -342 rmoveto
          -98 -42 -24 -56 -61 -40 30 94 108 48 24 51 48 52 -23 -111 vhcurveto
          hintmask 1110011000000000
          -16 322 rmoveto
          -64 -24 -38 -60 -59 -24 37 66 64 23 45 60 60 24 -45 -65 vhcurveto
          endchar
        </CharString>
        <CharString name="eightinferior">
          -250 18 callgsubr
          hstemhm
          25 9 callgsubr
          hintmask 11101100
          285 261 -53 callsubr
          hintmask 11110010
          -58 callgsubr
          hintmask 11110100
          -91 callgsubr
          endchar
        </CharString>
        <CharString name="eightsuperior">
          -250 351 56 106 58 83 58 hstemhm
          25 9 callgsubr
          hintmask 11101100
          285 624 -53 callsubr
          hintmask 11110010
          -58 callgsubr
          hintmask 11110100
          -91 callgsubr
          endchar
        </CharString>
        <CharString name="ellipsis">
          248 -11 141 hstem
          47 159 125 159 125 159 cntrmask 01110000
          47 55 10 callgsubr
          284 hmoveto
          -83 callsubr
          284 hmoveto
          -67 callsubr
        </CharString>
        <CharString name="emacron">
          -45 callgsubr
          110 78 4 -20 39 callgsubr
          166 104 hintmask 11101110
          -106 callsubr
          190 265 rmoveto
          hintmask 11110110
          -36 callsubr
          hintmask 11101110
          -35 callgsubr
          hintmask 11110110
          -77 callsubr
        </CharString>
        <CharString name="emdash">
          231 205 -19 callgsubr
          750 293 rmoveto
          hintmask 10000000
          -3 -140 -72 -1 -139 hhcurveto
          hintmask 01100000
          -136 -69 1 3 -135 -7 callgsubr
          135 70 2 135 hhcurveto
          hintmask 01100000
          139 71 -2 -2 140 hvcurveto
          endchar
        </CharString>
        <CharString name="endash">
          -39 205 -19 callgsubr
          480 293 rmoveto
          hintmask 10000000
          -3 -84 -44 -1 -83 hhcurveto
          hintmask 01100000
          -84 -43 1 3 -83 -7 callgsubr
          83 44 2 83 hhcurveto
          hintmask 01100000
          83 43 -2 -2 84 hvcurveto
          endchar
        </CharString>
        <CharString name="eng">
          -25 21 callgsubr
          140 -42 callsubr
          hstem
          73 124 170 117 vstem
          21 431 rmoveto
          -35 callsubr
          -89 -6 -103 -2 -63 -37 callgsubr
          hlineto
          -2 callgsubr
          70 122 vvcurveto
          40 0 30 -2 25 vhcurveto
          17 25 33 14 39 hhcurveto
          44 31 -23 -69 hvcurveto
          -309 vlineto
          -100 callgsubr
          140 -67 41 -63 -63 callsubr
          endchar
        </CharString>
        <CharString name="eogonek">
          -106 -230 63 393 74 139 73 39 callgsubr
          -24 94 96 104 hintmask 11110100
          419 226 rmoveto
          9 21 7 37 42 vvcurveto
          84 -29 102 -137 -132 -102 -95 -195 -178 84 -47 89 -8 vhcurveto
          hintmask 11101100
          -31 -29 -36 -47 -53 -88 callgsubr
          40 20 42 20 29 hvcurveto
          50 5 51 15 33 30 rrcurveto
          0 callgsubr
          -51 -21 -53 hhcurveto
          hintmask 11110100
          -70 -34 36 101 -6 hvcurveto
          86 213 rmoveto
          67 13 -76 -42 hvcurveto
          -6 -1 -10 -5 vvcurveto
          -165 hlineto
          95 5 29 44 52 hhcurveto
          endchar
        </CharString>
        <CharString name="equal">
          -73 101 84 -67 -21 216 84 4 -20 hstemhm
          hintmask 10010000
          443 401 rmoveto
          hintmask 10100000
          -3 -64 -64 -1 -63 hhcurveto
          hintmask 10010000
          -64 -63 -9 callgsubr
          -5 -92 rlineto
          hintmask 10100000
          2 63 64 2 63 hhcurveto
          63 63 -2 -2 64 hvcurveto
          hintmask 10010000
          6 -120 rmoveto
          -3 -64 -64 -1 -63 hhcurveto
          -64 -63 -9 callgsubr
          hintmask 01100000
          -5 -92 rlineto
          hintmask 10100000
          2 63 64 2 63 hhcurveto
          hintmask 01100000
          63 63 -2 -2 64 hvcurveto
          endchar
        </CharString>
        <CharString name="eth">
          -59 -12 80 282 72 290 -20 hstem
          25 130 192 120 vstem
          490 642 rmoveto
          -110 -21 -29 38 -34 28 -33 25 rlinecurve
          -123 -10 45 -32 40 -29 32 -39 rlinecurve
          -102 -19 16 -70 125 23 16 -38 9 -48 1 -60 rlinecurve
          20 -26 -30 12 -51 hhcurveto
          -104 -107 -48 -158 -155 103 -73 126 166 47 125 184 115 -18 83 -29 61 hvcurveto
          85 16 rlineto
          -259 -222 rmoveto
          52 27 -21 -29 22 hvcurveto
          -145 -15 -87 -83 -59 -35 44 105 89 25 44 66 vhcurveto
          endchar
        </CharString>
        <CharString name="etilde">
          -45 callgsubr
          84 -38 callsubr
          35 130 166 104 hintmask 11101011
          -106 callsubr
          135 296 -60 callgsubr
          hintmask 11100111
          -33 -35 53 -45 -89 callgsubr
          hintmask 11110011
          33 35 -53 45 -66 callgsubr
        </CharString>
        <CharString name="exclam">
          -311 -12 141 602 -20 hstemhm
          62 143 -127 103 hintmask 11100000
          62 721 rmoveto
          hintmask 11010000
          10 -205 6 -163 -155 vvcurveto
          103 hlineto
          hintmask 11100000
          138 14 229 10 166 vhcurveto
          -154 -677 rmoveto
          -67 callsubr
        </CharString>
        <CharString name="exclamdown">
          -325 -209 -21 601 141 hstemhm
          50 143 -118 102 hintmask 11100000
          193 -220 rmoveto
          hintmask 11010000
          -10 205 -6 162 155 vvcurveto
          -102 hlineto
          hintmask 11100000
          -138 -14 -228 -11 -166 vhcurveto
          154 676 37 callgsubr
          36 -26 43 49 31 35 40 vhcurveto
          endchar
        </CharString>
        <CharString name="f">
          -241 21 -21 418 82 168 102 hstem
          91 119 vstem
          22 429 rmoveto
          70 hlineto
          -1 -79 0 -122 -228 vvcurveto
          124 hlineto
          -4 57 -1 45 71 vvcurveto
          249 vlineto
          99 -7 9 85 rlineto
          -108 54 hlineto
          5 callgsubr
          -46 -49 -18 -33 -29 hvcurveto
          -26 -29 -12 -43 -7 -87 -42 callgsubr
          endchar
        </CharString>
        <CharString name="f.calt">
          -242 21 -21 418 82 165 92 hstem
          90 119 vstem
          209 522 rmoveto
          94 25 49 59 27 49 -16 -19 39 vhcurveto
          18 94 rlineto
          18 -36 -50 15 -50 hhcurveto
          -55 -56 -18 -52 -36 hvcurveto
          -19 -27 -30 -50 -114 vvcurveto
          -80 -4 7 -63 rlineto
          70 hlineto
          -85 0 -125 -1 -219 vhcurveto
          124 hlineto
          -4 57 -1 45 71 vvcurveto
          249 vlineto
          99 -7 9 85 rlineto
          -108 hlineto
          endchar
        </CharString>
        <CharString name="f_b">
          239 -12 70 -37 -42 callsubr
          -83 26 callgsubr
          162 129 hintmask 10101111
          776 300 rmoveto
          170 -64 42 -65 -67 -55 -42 -40 -40 vhcurveto
          155 1 71 7 86 38 callgsubr
          -160 -53 -84 -126 -10 hvcurveto
          -42 callgsubr
          hintmask 01011111
          7 -63 rlineto
          70 hlineto
          -95 callsubr
          -3 -130 -16 -61 vhcurveto
          53 hlineto
          37 52 rlineto
          hintmask 10101111
          -38 32 40 -26 58 hhcurveto
          127 87 103 209 hvcurveto
          -197 97 -62 callsubr
          endchar
        </CharString>
        <CharString name="f_f">
          5 21 -21 429 71 168 89 -89 102 -17 callgsubr
          hintmask 11011100
          457 554 rmoveto
          5 callgsubr
          -39 -41 -13 -24 -29 hvcurveto
          hintmask 11101100
          14 -33 -41 10 -41 hhcurveto
          -55 -56 -18 -52 -36 hvcurveto
          -20 -28 -19 -37 -8 -94 rrcurveto
          -1 -9 -1 -9 -10 vvcurveto
          -74 hlineto
          7 -71 rlineto
          64 -71 callgsubr
          131 vlineto
          -1 -79 0 -122 -228 vvcurveto
          124 hlineto
          -4 57 -1 45 71 vvcurveto
          250 vlineto
          100 -8 6 85 rlineto
          -106 hlineto
          -249 22 rmoveto
          94 25 49 59 16 24 -6 -9 25 vhcurveto
          -6 -23 -4 -30 -3 -37 -2 -19 -1 -19 -1 -22 rrcurveto
          -132 hlineto
          endchar
        </CharString>
        <CharString name="f_f_b">
          487 -12 70 -37 -42 callsubr
          -83 71 165 92 -73 86 hstemhm
          89 119 131 119 151 124 162 129 hintmask 0101011111000000
          27 429 rmoveto
          63 -71 callgsubr
          132 vlineto
          -1 -79 0 -122 -228 vvcurveto
          124 hlineto
          -4 57 -1 45 71 vvcurveto
          246 vlineto
          78 -9 9 90 rlineto
          -87 54 hlineto
          71 33 59 76 12 12 -2 -4 14 vhcurveto
          3 -95 1 -71 -98 vvcurveto
          -223 -3 -130 -16 -61 vhcurveto
          53 hlineto
          37 52 rlineto
          hintmask 1010011111000000
          -38 32 40 -26 58 -23 callgsubr
          155 1 71 7 86 32 callgsubr
          -49 -15 -27 -34 hvcurveto
          hintmask 1001101111000000
          16 -35 -47 13 -46 hhcurveto
          -55 -56 -18 -52 -36 hvcurveto
          -20 -28 -19 -37 -8 -94 rrcurveto
          -1 -10 -1 -10 -11 vvcurveto
          -73 -4 rlineto
          hintmask 1010101111000000
          807 -96 -62 callsubr
          -619 125 rmoveto
          94 25 49 59 17 26 -7 -9 27 vhcurveto
          -9 -27 -6 -30 -2 -32 rrcurveto
          hintmask 1001101111000000
          -2 -19 -1 -19 -1 -22 rrcurveto
          -133 hlineto
          endchar
        </CharString>
        <CharString name="f_f_h">
          503 -48 callsubr
          -83 -24 callsubr
          169 124 hintmask 0101011111000000
          27 429 rmoveto
          63 -71 callgsubr
          131 vlineto
          -88 callsubr
          -3 107 0 100 157 vvcurveto
          hintmask 1010011111000000
          -65 callgsubr
          161 1 68 7 87 32 callgsubr
          -48 -15 -27 -34 hvcurveto
          hintmask 0101101111000000
          -91 callsubr
        </CharString>
        <CharString name="f_f_i">
          191 21 -21 429 71 174 83 -83 96 -17 callgsubr
          120 124 hintmask 11011110
          27 429 rmoveto
          63 -71 callgsubr
          131 vlineto
          -1 -79 0 -122 -228 vvcurveto
          124 hlineto
          -4 57 -1 45 71 vvcurveto
          248 vlineto
          119 -10 rlineto
          1 -39 0 -37 -41 vvcurveto
          -158 -5 -38 -3 -98 -37 callgsubr
          hlineto
          -2 callgsubr
          70 122 vvcurveto
          124 1 44 -3 callsubr
          -252 54 hlineto
          6 callgsubr
          -68 -48 -15 -27 -34 hvcurveto
          hintmask 11101110
          -91 callsubr
        </CharString>
        <CharString name="f_f_j">
          190 21 callgsubr
          140 -21 429 71 174 83 -83 96 -17 callgsubr
          121 117 hintmask 11101111
          27 429 rmoveto
          63 -71 callgsubr
          131 vlineto
          -1 -79 0 -122 -228 vvcurveto
          124 hlineto
          -4 57 -1 45 71 vvcurveto
          248 vlineto
          120 -10 rlineto
          1 -39 0 -37 -41 vvcurveto
          -298 vlineto
          -100 callgsubr
          43 1 65 -3 callsubr
          -253 54 hlineto
          6 callgsubr
          -68 -48 -15 -27 -34 hvcurveto
          hintmask 11110111
          -91 callsubr
        </CharString>
        <CharString name="f_f_k">
          489 17 callgsubr
          130 -24 callsubr
          161 126 hintmask 0111011111000000
          27 429 rmoveto
          63 -71 callgsubr
          131 vlineto
          -88 callsubr
          -2 73 -1 71 85 -31 callgsubr
          hvcurveto
          hintmask 1011101111000000
          -37 -6 -46 -5 -53 vhcurveto
          hintmask 0111011111000000
          128 13 rlineto
          -57 callgsubr
          68 7 93 32 callgsubr
          -48 -15 -27 -34 hvcurveto
          hintmask 0111101111000000
          -91 callsubr
        </CharString>
        <CharString name="f_f_l">
          222 21 -21 429 -24 callsubr
          hintmask 11011110
          27 429 rmoveto
          63 -71 callgsubr
          131 vlineto
          -88 callsubr
          -3 114 0 101 176 vvcurveto
          190 1 68 7 93 32 callgsubr
          -48 -15 -27 -34 hvcurveto
          hintmask 11101110
          -91 callsubr
        </CharString>
        <CharString name="f_f_t">
          297 -12 111 -78 -21 429 71 169 88 -88 101 hstemhm
          89 118 131 118 150 121 -109 109 hintmask 0111011010000000
          26 429 rmoveto
          63 -429 123 hlineto
          -4 57 -1 45 71 vvcurveto
          256 131 -429 123 vlineto
          -4 57 -1 45 71 vvcurveto
          256 162 vlineto
          hintmask 1010111100000000
          -5 -95 -7 -92 -54 vvcurveto
          -149 43 -51 89 -56 callgsubr
          -27 hhcurveto
          -42 -41 -12 -25 -30 hvcurveto
          hintmask 1011011100000000
          14 -33 -41 10 -41 hhcurveto
          -55 -56 -18 -52 -36 hvcurveto
          -20 -28 -19 -37 -8 -94 rrcurveto
          -1 -10 -1 -10 -11 vvcurveto
          -73 -4 rlineto
          188 29 rmoveto
          94 25 49 59 16 24 -6 -8 24 vhcurveto
          -5 -23 -4 -29 -3 -39 -2 -19 -1 -19 -1 -22 rrcurveto
          -132 hlineto
          endchar
        </CharString>
        <CharString name="f_h">
          256 -48 callsubr
          -83 71 184 86 hstemhm
          91 119 151 30 callsubr
          hintmask 01011111
          22 429 rmoveto
          70 hlineto
          -88 callsubr
          -3 107 0 100 157 vvcurveto
          hintmask 10101111
          -65 callgsubr
          161 1 68 7 87 38 callgsubr
          -160 -53 -84 -126 -10 hvcurveto
          -42 callgsubr
          endchar
        </CharString>
        <CharString name="f_i">
          -56 21 -21 429 71 174 96 hstem
          91 119 120 124 vstem
          22 429 rmoveto
          70 hlineto
          -1 -79 0 -122 -228 vvcurveto
          124 hlineto
          -4 57 -1 45 71 vvcurveto
          248 vlineto
          119 -10 rlineto
          1 -39 0 -37 -41 vvcurveto
          -158 -5 -38 -3 -98 -37 callgsubr
          hlineto
          -2 callgsubr
          70 122 vvcurveto
          124 1 44 -3 callsubr
          -252 54 hlineto
          6 callgsubr
          -160 -53 -84 -126 -10 hvcurveto
          -42 callgsubr
          endchar
        </CharString>
        <CharString name="f_j">
          -56 21 callgsubr
          140 -21 429 71 174 96 hstem
          97 113 121 117 vstem
          210 554 rmoveto
          6 callgsubr
          -160 -53 -84 -126 -10 hvcurveto
          -42 callgsubr
          7 -63 rlineto
          70 hlineto
          -1 -79 0 -122 -228 vvcurveto
          124 hlineto
          -4 57 -1 45 71 vvcurveto
          248 vlineto
          120 -10 rlineto
          1 -39 0 -37 -41 vvcurveto
          -298 vlineto
          -100 callgsubr
          43 1 65 -3 callsubr
          -253 hlineto
          endchar
        </CharString>
        <CharString name="f_k">
          243 17 callgsubr
          130 26 callgsubr
          161 126 hintmask 01111111
          763 hmoveto
          -57 callgsubr
          68 7 93 38 callgsubr
          -160 -53 -84 -126 -10 hvcurveto
          -42 callgsubr
          7 -63 rlineto
          70 hlineto
          -88 callsubr
          -2 73 -1 71 85 -31 callgsubr
          hvcurveto
          hintmask 10111111
          -37 -6 -46 -5 -53 vhcurveto
          endchar
        </CharString>
        <CharString name="f_l">
          -25 21 -21 429 71 184 86 hstem
          91 119 151 124 vstem
          22 429 rmoveto
          70 hlineto
          -88 callsubr
          -3 114 0 101 176 vvcurveto
          190 1 68 7 93 38 callgsubr
          -160 -53 -84 -126 -10 hvcurveto
          -42 callgsubr
          endchar
        </CharString>
        <CharString name="f_t">
          51 -12 111 -78 -21 429 71 169 101 hstemhm
          91 119 150 121 -109 109 hintmask 01111010
          22 429 rmoveto
          70 hlineto
          -1 -79 0 -122 -228 vvcurveto
          124 hlineto
          -4 57 -1 45 71 vvcurveto
          256 162 vlineto
          hintmask 10111100
          -5 -95 -7 -91 -58 vvcurveto
          -147 44 -50 88 -56 callgsubr
          -26 hhcurveto
          -47 -51 -16 -34 -31 hvcurveto
          -27 -29 -10 -45 -8 -86 -42 callgsubr
          endchar
        </CharString>
        <CharString name="five">
          -75 -12 82 312 70 157 91 hstemhm
          41 115 -89 107 155 131 hintmask 11101100
          460 217 rmoveto
          161 -72 74 -123 -43 -27 -8 -11 -21 vhcurveto
          98 2 24 3 54 vhcurveto
          251 91 -365 hlineto
          1 -37 1 -39 -51 vvcurveto
          -71 -2 -95 -5 -67 vhcurveto
          104 6 rlineto
          19 14 21 17 41 hhcurveto
          62 27 -50 -116 -104 -21 -42 -58 hvcurveto
          hintmask 11110100
          -65 -29 41 107 hvcurveto
          -115 -13 rlineto
          -191 113 -26 93 127 86 53 176 vhcurveto
          endchar
        </CharString>
        <CharString name="fiveeighths">
          120 18 callgsubr
          -5 56 111 189 -169 50 58 61 hstemhm
          33 72 -59 216 -70 85 113 9 callgsubr
          hintmask 1110011101011000
          439 -86 callgsubr
          103 -439 -53 callsubr
          hintmask 1110100101100100
          -58 callgsubr
          hintmask 1110011101101000
          -91 callgsubr
          -291 207 7 callgsubr
          11 vlineto
          7 2 30 1 20 vhcurveto
          144 hlineto
          2 61 rlineto
          -218 hlineto
          hintmask 1110011010101000
          -19 1 -19 -26 vvcurveto
          -38 0 -52 -4 -36 vhcurveto
          67 3 rlineto
          9 7 11 9 20 hhcurveto
          hintmask 1101100101101000
          31 14 -22 -51 -41 -11 -17 -29 -32 -15 16 43 hvcurveto
          -72 -7 rlineto
          -95 64 -13 54 75 51 26 88 vhcurveto
          endchar
        </CharString>
        <CharString name="fiveinferior">
          -279 -12 1 callgsubr
          102 7 callgsubr
          18 -50 callgsubr
        </CharString>
        <CharString name="fivesuperior">
          -279 344 1 callgsubr
          458 7 callgsubr
          11 vlineto
          7 -50 callgsubr
        </CharString>
        <CharString name="florin">
          -85 21 callgsubr
          537 82 168 102 hstem
          80 429 rmoveto
          71 hlineto
          -21 -144 -13 -144 -20 -141 rrcurveto
          -36 -5 -18 -83 -49 hhcurveto
          -23 -18 5 8 -13 hvcurveto
          -43 -104 rlineto
          -12 25 34 -8 32 hhcurveto
          102 63 69 159 22 hvcurveto
          8 57 9 47 9 71 31 249 rcurveline
          102 -7 21 85 rlineto
          -113 hlineto
          7 54 rlineto
          91 11 27 23 45 hhcurveto
          21 29 -6 -12 28 hvcurveto
          24 89 rlineto
          21 -30 -28 10 -35 hhcurveto
          -46 -52 -18 -33 -33 hvcurveto
          -30 -29 -21 -43 -17 -87 -12 -64 rcurveline
          -79 -4 rlineto
          endchar
        </CharString>
        <CharString name="four">
          -37 21 -21 181 96 433 -20 hstem
          302 128 vstem
          302 hmoveto
          131 hlineto
          -2 59 -1 55 67 vvcurveto
          59 hlineto
          16 96 rlineto
          -75 hlineto
          251 1 96 -26 callgsubr
          -198 -21 -63 -134 -73 -154 -83 -134 rlinecurve
          9 -86 rlineto
          278 hlineto
          -2 -60 -3 -49 -1 -72 rrcurveto
          8 277 rmoveto
          -178 hlineto
          56 116 57 110 62 104 rrcurveto
          3 -86 0 -85 -159 vvcurveto
          endchar
        </CharString>
        <CharString name="fourinferior">
          -242 0 15 callsubr
          hmoveto
          85 hlineto
          hintmask 01110000
          -55 callsubr
          hintmask 10110000
          -40 callsubr
          endchar
        </CharString>
        <CharString name="foursuperior">
          -242 356 15 callsubr
          356 rmoveto
          85 hlineto
          hintmask 01110000
          -1 26 0 28 29 vvcurveto
          48 hlineto
          -5 61 rlineto
          -43 34 hlineto
          86 0 48 4 43 vhcurveto
          -135 -10 -32 -67 -46 -77 -42 -67 rlinecurve
          5 -51 rlineto
          164 hlineto
          hintmask 10110000
          -27 -1 -24 -1 -32 vhcurveto
          4 178 rmoveto
          -34 -94 vlineto
          33 56 23 44 36 50 rrcurveto
          2 -43 0 -33 -40 vvcurveto
          endchar
        </CharString>
        <CharString name="fraction">
          -433 11 -21 710 -20 hstem
          174 -86 callgsubr
          endchar
        </CharString>
        <CharString name="g">
          -67 -28 callgsubr
          100 -20 8 callgsubr
          186 110 -77 111 hintmask 11111001
          -74 callsubr
          hintmask 11110110
          -80 callgsubr
          hintmask 11111001
          -59 callgsubr
          vhcurveto
          -235 428 rmoveto
          hintmask 11110110
          -49 callsubr
          hintmask 11111001
          124 -73 callsubr
          endchar
        </CharString>
        <CharString name="g.ss02">
          -20 -28 callgsubr
          10 -20 hstemhm
          21 109 -85 105 -90 114 172 106 -52 111 hintmask 1101100100000000
          549 522 rmoveto
          -43 -19 -75 -13 -63 -3 rrcurveto
          hintmask 1110010100000000
          16 -29 -37 9 -41 hhcurveto
          -126 -90 -81 -104 -64 33 -50 55 -27 hvcurveto
          hintmask 1110001100000000
          -39 -26 -34 -36 -46 vvcurveto
          -37 21 -20 31 -11 vhcurveto
          hintmask 1110100010000000
          -59 callgsubr
          66 -41 34 -73 vhcurveto
          -33 -67 -7 -47 hhcurveto
          hintmask 1101001100000000
          -43 -33 6 36 11 3 11 5 8 hvcurveto
          -3 17 18 -2 20 hhcurveto
          123 92 77 107 30 -8 27 -13 23 hvcurveto
          39 -8 43 -11 21 -7 rrcurveto
          hintmask 1110010100000000
          -284 30 rmoveto
          62 34 -40 -50 -47 -31 -53 -70 -56 -39 34 58 55 36 43 64 hvcurveto
          hintmask 1110100010000000
          150 -73 callsubr
          endchar
        </CharString>
        <CharString name="gbreve">
          -67 -28 callgsubr
          90 75 -75 147 8 callgsubr
          -56 91 151 110 -77 111 hintmask 1111010001000000
          -74 callsubr
          hintmask 1111001010000000
          -80 callgsubr
          hintmask 1111010001000000
          -59 callgsubr
          vhcurveto
          -235 428 rmoveto
          hintmask 1111001010000000
          -49 callsubr
          hintmask 1110110001000000
          124 -73 callsubr
          -53 797 rmoveto
          hintmask 1111010010000000
          19 callgsubr
          hintmask 1110100110000000
          -65 callsubr
        </CharString>
        <CharString name="gcircumflex">
          -61 -28 callgsubr
          256 -20 8 callgsubr
          186 110 -77 111 hintmask 11111001
          -74 callsubr
          hintmask 11110110
          123 92 77 107 44 -16 38 -28 28 hvcurveto
          5 24 27 4 26 hhcurveto
          -5 115 -57 -6 -49 -46 -27 -33 rlinecurve
          9 -25 -29 6 -32 hhcurveto
          -126 -90 -81 -104 -58 27 -47 47 -29 hvcurveto
          -43 -26 -41 -38 -51 vvcurveto
          -37 21 -20 31 -11 vhcurveto
          hintmask 11111001
          -59 callgsubr
          vhcurveto
          -399 597 rmoveto
          hintmask 11110110
          -11 callgsubr
          88 -98 69 12 -84 152 rlineto
          -2 -14 -35 -5 -24 hhcurveto
          -24 -35 5 2 -14 hvcurveto
          65 -336 rmoveto
          -49 callsubr
          hintmask 11111001
          124 -73 callsubr
          endchar
        </CharString>
        <CharString name="gcommaaccent">
          -67 -28 callgsubr
          269 -20 8 callgsubr
          107 87 -8 110 -77 111 hintmask 1111101010000000
          -74 callsubr
          hintmask 1111010100000000
          -80 callgsubr
          hintmask 1111101010000000
          -59 callgsubr
          vhcurveto
          -235 428 rmoveto
          hintmask 1111010100000000
          -49 callsubr
          hintmask 1111101010000000
          124 -73 callsubr
          -151 775 rmoveto
          -100 callsubr
        </CharString>
        <CharString name="gdotaccent">
          -67 -28 callgsubr
          91 117 8 callgsubr
          37 131 18 110 -77 111 hintmask 1111101010000000
          -74 callsubr
          hintmask 1111011100000000
          -80 callgsubr
          hintmask 1111101010000000
          -59 callgsubr
          vhcurveto
          -235 428 rmoveto
          hintmask 1111011100000000
          -49 callsubr
          hintmask 1111101010000000
          124 -73 callsubr
          -182 705 -70 callgsubr
        </CharString>
        <CharString name="germandbls">
          -31 -12 101 -68 -21 701 69 hstemhm
          59 119 76 90 -7 98 -23 23 -23 102 hintmask 10111010
          344 440 rmoveto
          hintmask 01110100
          68 91 7 110 vvcurveto
          68 -35 77 -129 -69 -50 -22 -36 -31 vhcurveto
          -26 -30 -23 -52 -3 -88 -5 -140 -3 -146 -2 -256 rrcurveto
          124 hlineto
          -4 57 -1 45 71 vvcurveto
          401 vlineto
          87 31 40 51 39 38 -24 -56 vhcurveto
          hintmask 10111001
          -83 -83 1 -110 -151 158 2 -116 vvcurveto
          -44 -23 -31 -43 -41 -51 28 25 -29 vhcurveto
          -106 vlineto
          -25 21 55 -23 48 hhcurveto
          64 101 40 138 hvcurveto
          179 -170 1 94 vvcurveto
          endchar
        </CharString>
        <CharString name="grave">
          -289 34 callsubr
          748 vmoveto
          -51 callsubr
        </CharString>
        <CharString name="grave.cap">
          -322 802 -21 140 -20 hstem
          909 vmoveto
          -58 callsubr
        </CharString>
        <CharString name="greater">
          -120 121 -21 440 -20 hstem
          48 540 rmoveto
          67 -49 43 -31 147 -136 -110 -104 -76 -59 -72 -61 rrcurveto
          148 hlineto
          52 52 47 34 133 140 -131 131 -50 35 -48 48 rrcurveto
          endchar
        </CharString>
        <CharString name="guillemotleft">
          33 71 -21 400 -20 hstem
          190 450 rmoveto
          -50 callsubr
          87 hmoveto
          -50 callsubr
          endchar
        </CharString>
        <CharString name="guillemotright">
          33 71 -21 400 -20 hstem
          271 450 rmoveto
          -49 callgsubr
          -377 hmoveto
          -49 callgsubr
          endchar
        </CharString>
        <CharString name="guilsinglleft">
          -199 71 -21 400 -20 hstem
          190 450 rmoveto
          -50 callsubr
          endchar
        </CharString>
        <CharString name="guilsinglright">
          -199 71 -21 400 -20 hstem
          39 450 rmoveto
          -49 callgsubr
          endchar
        </CharString>
        <CharString name="h">
          1 callsubr
          60 32 callsubr
          -114 -113 -61 callgsubr
          -3 107 0 100 157 vvcurveto
          18 24 32 15 38 -32 callgsubr
          -67 -55 -44 -42 -41 vhcurveto
          165 1 92 7 87 vhcurveto
          endchar
        </CharString>
        <CharString name="hbar">
          -40 -48 callsubr
          68 82 108 -20 hstemhm
          -27 216 -124 30 callsubr
          hintmask 01111011
          315 662 rmoveto
          -2 -47 -36 -2 -41 hhcurveto
          1 41 2 36 3 35 -138 -10 rcurveline
          4 -102 -28 1 -28 1 -33 2 rlinecurve
          -3 -82 34 2 29 1 30 1 rlinecurve
          -57 1 -57 -56 -61 callgsubr
          -3 107 0 100 157 vvcurveto
          18 24 32 15 38 -39 callsubr
          hintmask 10111101
          -97 callgsubr
          -67 -55 -44 -42 -41 vhcurveto
          158 vlineto
          40 -1 36 -2 46 -1 rrcurveto
          endchar
        </CharString>
        <CharString name="hcircumflex">
          1 callsubr
          233 597 rmoveto
          51 -22 79 93 78 -93 51 22 -71 147 rlineto
          -2 -11 -28 -5 -19 hhcurveto
          -20 -28 5 2 -11 hvcurveto
          -244 16 -25 callgsubr
          -114 -113 -61 callgsubr
          -3 107 0 100 157 vvcurveto
          18 24 32 15 38 -32 callgsubr
          -67 -55 -44 -42 -41 vhcurveto
          165 1 92 7 87 vhcurveto
          endchar
        </CharString>
        <CharString name="hdotbelow">
          -40 -34 callgsubr
          101 -42 callsubr
          258 -20 hstem
          65 124 19 131 19 124 cntrmask 00001110
          60 32 callsubr
          -114 -113 -61 callgsubr
          -3 107 0 100 157 vvcurveto
          -65 callgsubr
          165 1 92 7 87 vhcurveto
          11 -913 -99 callsubr
        </CharString>
        <CharString name="hungarumlaut">
          -85 34 callsubr
          166 760 -41 callsubr
        </CharString>
        <CharString name="hungarumlaut.cap">
          -118 33 callsubr
          109 931 -41 callgsubr
        </CharString>
        <CharString name="hyphen">
          -43 callgsubr
        </CharString>
        <CharString name="i">
          -319 21 -14 callsubr
          hintmask 11110000
          61 500 rmoveto
          -96 callgsubr
          -140 163 -29 callgsubr
          hintmask 11101000
          -69 callsubr
          endchar
        </CharString>
        <CharString name="iacute">
          -17 callsubr
          280 -20 hstem
          66 124 vstem
          61 500 rmoveto
          -96 callgsubr
          -40 260 -80 callsubr
        </CharString>
        <CharString name="ibreve">
          -17 callsubr
          122 -26 callsubr
          -18 91 -7 124 hintmask 11010100
          61 500 rmoveto
          -96 callgsubr
          6 249 rmoveto
          hintmask 11101000
          19 callgsubr
          hintmask 11011000
          -65 callsubr
        </CharString>
        <CharString name="icircumflex">
          -17 callsubr
          288 -20 hstem
          66 124 vstem
          -11 -12 callsubr
          -7 -268 rmoveto
          -96 callgsubr
          endchar
        </CharString>
        <CharString name="idieresis">
          -17 callsubr
          123 119 hstemhm
          2 118 -54 124 -26 118 hintmask 11110100
          2 659 -73 callgsubr
          162 -92 callgsubr
          -103 -159 rmoveto
          hintmask 11101000
          -96 callgsubr
          endchar
        </CharString>
        <CharString name="idotbelow">
          -319 -34 callgsubr
          101 -14 callsubr
          hintmask 11111000
          61 500 rmoveto
          -96 callgsubr
          -140 163 -29 callgsubr
          hintmask 11110100
          -69 callsubr
          4 -806 -99 callsubr
        </CharString>
        <CharString name="igrave">
          -17 callsubr
          280 -20 hstem
          66 124 vstem
          61 500 rmoveto
          -96 callgsubr
          -202 248 rmoveto
          -51 callsubr
        </CharString>
        <CharString name="ij">
          -70 21 callgsubr
          140 -14 callsubr
          114 12 callsubr
          hintmask 11111010
          61 500 rmoveto
          -96 callgsubr
          -140 163 -29 callgsubr
          hintmask 11110110
          -69 callsubr
          259 -667 rmoveto
          -100 callgsubr
          43 1 65 -3 callsubr
          -137 hlineto
          -22 callgsubr
          -8 369 -29 callgsubr
          hintmask 11111001
          -69 callsubr
          endchar
        </CharString>
        <CharString name="imacron">
          -17 callsubr
          142 78 4 -20 hstemhm
          66 124 hintmask 11011000
          270 704 rmoveto
          hintmask 11101000
          -3 -64 -4 -1 -63 hhcurveto
          hintmask 11011000
          -64 -3 -9 callgsubr
          hintmask 11101000
          -3 -82 rlineto
          4 63 4 0 63 hhcurveto
          63 3 -2 -2 64 hvcurveto
          hintmask 11011000
          -205 -122 rmoveto
          -96 callgsubr
          endchar
        </CharString>
        <CharString name="iogonek">
          -319 -230 63 188 3 callsubr
          5 94 -33 33 -33 124 -124 137 hintmask 11110100
          61 500 rmoveto
          -22 callgsubr
          -158 -5 -38 -3 -98 vhcurveto
          27 hlineto
          hintmask 11111000
          -33 -26 -47 -53 -61 -88 callgsubr
          45 25 47 22 29 hvcurveto
          47 hlineto
          hintmask 11110010
          -2 callgsubr
          70 122 vvcurveto
          124 1 44 -3 callsubr
          -140 163 -29 callgsubr
          hintmask 11110001
          -69 callsubr
          endchar
        </CharString>
        <CharString name="itilde">
          -17 callsubr
          116 -38 callsubr
          66 124 hintmask 11010100
          61 500 rmoveto
          -96 callgsubr
          57 235 -60 callgsubr
          hintmask 11001100
          -33 -35 53 -45 -89 callgsubr
          hintmask 11100100
          33 35 -53 45 -66 callgsubr
        </CharString>
        <CharString name="j">
          -324 21 callgsubr
          619 -20 123 129 hstemhm
          63 12 callsubr
          hintmask 11110000
          63 -4 rmoveto
          -100 callgsubr
          43 1 65 -3 callsubr
          -137 hlineto
          -22 callgsubr
          -8 369 -29 callgsubr
          hintmask 11101000
          -69 callsubr
          endchar
        </CharString>
        <CharString name="jcircumflex">
          -324 21 callgsubr
          619 -20 288 -20 hstem
          63 117 vstem
          -14 -12 callsubr
          -2 -772 rmoveto
          -100 callgsubr
          43 1 65 -3 callsubr
          -137 hlineto
          -22 callgsubr
          endchar
        </CharString>
        <CharString name="k">
          -54 17 callgsubr
          471 -20 hstemhm
          65 124 161 126 hintmask 01111100
          60 32 callsubr
          -116 -104 vvcurveto
          -233 -5 -49 -62 callgsubr
          -2 73 -1 71 85 -47 callsubr
          83 vlineto
          -6 callgsubr
          endchar
        </CharString>
        <CharString name="kcommaaccent">
          -54 -228 -21 270 -21 235 64 471 -20 hstem
          65 124 52 87 22 126 vstem
          60 32 callsubr
          -116 -104 vvcurveto
          -233 -5 -49 -62 callgsubr
          -2 73 -1 71 85 -31 callgsubr
          -37 -6 -46 -5 -53 hvcurveto
          128 13 rlineto
          -57 callgsubr
          96 7 93 vhcurveto
          5 -874 rmoveto
          -100 callsubr
        </CharString>
        <CharString name="kgreenlandic">
          -53 17 callgsubr
          213 -20 hstemhm
          66 124 161 126 hintmask 01111100
          61 490 rmoveto
          4 -80 1 -78 -71 vvcurveto
          -144 -5 -26 -3 -91 -37 callgsubr
          hlineto
          -3 65 0 61 103 -47 callsubr
          86 2 53 6 53 vhcurveto
          endchar
        </CharString>
        <CharString name="l">
          -321 21 -21 770 -20 hstem
          65 124 vstem
          -84 callgsubr
          endchar
        </CharString>
        <CharString name="lacute">
          -321 21 -21 1000 -20 hstem
          65 124 vstem
          -84 callgsubr
          -49 230 -80 callsubr
        </CharString>
        <CharString name="lcaron">
          -321 21 -21 770 -20 hstem
          65 124 89 85 vstem
          -84 callgsubr
          47 -55 -76 callsubr
        </CharString>
        <CharString name="lcommaaccent">
          -321 -11 callsubr
          51 770 -20 hstemhm
          65 124 -94 94 hintmask 11110000
          -84 callgsubr
          -141 -875 rmoveto
          hintmask 11101000
          -100 callsubr
        </CharString>
        <CharString name="ldot">
          -210 21 -21 337 117 316 -20 hstem
          65 124 54 131 vstem
          -84 callgsubr
          46 -379 -70 callgsubr
        </CharString>
        <CharString name="less">
          -120 121 -21 440 -20 hstem
          255 540 rmoveto
          -48 -48 -50 -35 -131 -131 133 -140 47 -34 52 -52 rrcurveto
          148 hlineto
          -72 61 -76 59 -110 104 147 136 43 31 67 49 rrcurveto
          endchar
        </CharString>
        <CharString name="logicalnot">
          -31 74 -21 152 84 4 -20 hstemhm
          368 111 hintmask 10110000
          484 63 rmoveto
          -4 35 -1 47 35 45 4 65 3 vvcurveto
          hintmask 11010000
          -3 -84 -44 -1 -83 hhcurveto
          hintmask 10110000
          -84 -43 1 3 -83 hvcurveto
          -5 -92 rlineto
          hintmask 11010000
          2 83 44 2 83 40 30 -1 31 hhcurveto
          -91 0 -29 -5 -31 vhcurveto
          endchar
        </CharString>
        <CharString name="lslash">
          -146 21 -21 770 -20 hstem
          150 129 vstem
          150 760 rmoveto
          4 -114 1 -110 -108 vvcurveto
          -50 -14 -40 -10 -61 -15 21 -90 rcurveline
          130 41 -1 -163 -5 -55 -2 -122 rlinecurve
          135 hlineto
          -3 110 0 100 166 vvcurveto
          150 39 -20 90 -53 -17 -36 -12 -41 -12 rlinecurve
          141 2 85 6 80 vhcurveto
          endchar
        </CharString>
        <CharString name="m">
          241 -48 callsubr
          hstemhm
          73 125 158 122 160 125 hintmask 01111100
          779 12 rmoveto
          -16 27 -4 43 44 40 4 124 36 vvcurveto
          144 -64 42 -66 -68 -55 -51 -44 -40 vhcurveto
          71 -21 -49 24 -49 hhcurveto
          -68 -55 -51 -44 -40 hvcurveto
          -8 30 -15 26 -27 39 -117 -81 rcurveline
          -35 callsubr
          -89 -6 -103 -2 -63 vhcurveto
          136 hlineto
          -2 callgsubr
          70 122 vvcurveto
          41 0 30 -2 26 vhcurveto
          16 22 29 13 35 hhcurveto
          47 27 -63 callgsubr
          hintmask 10111100
          -26 1 -41 9 -30 vhcurveto
          141 24 rlineto
          -16 27 -4 43 44 40 4 124 36 vvcurveto
          15 -1 15 -2 13 vhcurveto
          16 22 29 12 34 hhcurveto
          47 27 -63 callgsubr
          -26 1 -41 9 -30 vhcurveto
          endchar
        </CharString>
        <CharString name="macron">
          -69 634 78 4 -20 hstemhm
          hintmask 01000000
          424 716 rmoveto
          hintmask 10000000
          -36 callsubr
          hintmask 01000000
          -35 callgsubr
          hintmask 10000000
          -77 callsubr
        </CharString>
        <CharString name="macron.cap">
          -229 782 78 4 -20 hstemhm
          hintmask 01000000
          344 864 rmoveto
          hintmask 10000000
          -36 callsubr
          hintmask 01000000
          -35 callgsubr
          hintmask 10000000
          -77 callsubr
        </CharString>
        <CharString name="minus">
          -93 285 -19 callgsubr
          423 373 rmoveto
          hintmask 10000000
          -3 -72 -38 -1 -71 hhcurveto
          hintmask 01100000
          -72 -37 1 3 -71 -7 callgsubr
          71 38 2 71 hhcurveto
          hintmask 01100000
          30 callgsubr
        </CharString>
        <CharString name="mu">
          -16 35 callgsubr
          11 callsubr
          72 106 -106 -21 callgsubr
          hintmask 11100110
          532 -72 callgsubr
        </CharString>
        <CharString name="multiply">
          -146 179 -21 338 -20 hstem
          110 158 rmoveto
          41 45 26 28 36 36 32 -32 23 -26 39 -40 69 61 rcurveline
          -42 39 -27 24 -34 34 36 35 26 25 44 40 -61 69 rcurveline
          -42 -44 -26 -28 -37 -38 -32 33 -23 26 -37 40 -69 -61 rcurveline
          41 -39 26 -24 35 -34 -105 -100 rcurveline
          endchar
        </CharString>
        <CharString name="n">
          -26 -48 callsubr
          -18 callsubr
          hintmask 01111000
          -98 callgsubr
          hintmask 10111000
          -97 callgsubr
          -63 callsubr
          endchar
        </CharString>
        <CharString name="nacute">
          -31 -48 callsubr
          248 -20 -18 callsubr
          hintmask 01111100
          -98 callgsubr
          hintmask 10111100
          -26 1 -41 9 -30 vhcurveto
          139 24 rlineto
          -15 27 -5 43 44 40 4 124 36 vvcurveto
          144 -64 42 -66 -63 callsubr
          163 248 -80 callsubr
        </CharString>
        <CharString name="napostrophe">
          -31 26 callsubr
          73 124 170 124 hintmask 01111100
          -98 callgsubr
          hintmask 10111100
          -26 1 -41 9 -30 vhcurveto
          139 24 rlineto
          -15 27 -5 43 44 40 4 124 36 vvcurveto
          144 -64 42 -66 -63 callsubr
          -199 258 28 callsubr
        </CharString>
        <CharString name="ncaron">
          -31 -48 callsubr
          0 84 172 -20 -18 callsubr
          hintmask 01101110
          -98 callgsubr
          hintmask 10101110
          -97 callgsubr
          -63 callsubr
          69 77 rmoveto
          hintmask 01011110
          -87 callsubr
        </CharString>
        <CharString name="ncommaaccent">
          -31 -229 -21 271 -42 callsubr
          hstem
          73 124 53 87 30 124 vstem
          -98 callgsubr
          -26 1 -41 9 -30 vhcurveto
          139 24 rlineto
          -15 27 -5 43 44 40 4 124 36 vvcurveto
          144 -64 42 -66 -63 callsubr
          73 -617 rmoveto
          -100 callsubr
        </CharString>
        <CharString name="ndotaccent">
          -31 -48 callsubr
          91 117 hstemhm
          73 124 21 131 18 124 hintmask 01111110
          -98 callgsubr
          hintmask 10111110
          -97 callgsubr
          -63 callsubr
          80 145 -70 callgsubr
        </CharString>
        <CharString name="nine">
          -38 -12 84 206 72 282 80 hstemhm
          45 109 -109 130 192 120 hintmask 11110100
          258 72 rmoveto
          -64 -33 37 93 -7 hvcurveto
          -111 -13 rlineto
          -114 17 47 -87 154 hhcurveto
          159 67 112 276 211 -39 125 -175 -135 -93 -73 -159 -161 105 -41 104 52 29 11 19 26 hvcurveto
          -165 -4 -28 -71 -71 hhcurveto
          13 278 rmoveto
          hintmask 11101100
          -66 -30 28 93 110 35 51 58 84 15 -100 -146 hvcurveto
          -23 -20 -32 -13 -44 hhcurveto
          endchar
        </CharString>
        <CharString name="nineinferior">
          -250 -12 15 callgsubr
          45 -55 callgsubr
        </CharString>
        <CharString name="ninesuperior">
          -250 350 15 callgsubr
          407 -55 callgsubr
        </CharString>
        <CharString name="ntilde">
          -31 -48 callsubr
          84 90 -37 37 -37 90 -18 callsubr
          hintmask 01110011
          -98 callgsubr
          hintmask 10101011
          -97 callgsubr
          -63 callsubr
          260 223 -60 callgsubr
          hintmask 01100111
          -33 -35 53 -45 -89 callgsubr
          hintmask 01110011
          33 35 -53 45 -66 callgsubr
        </CharString>
        <CharString name="numbersign">
          107 11 -21 198 87 155 83 187 -20 hstem
          626 275 rmoveto
          -1 -48 -39 -2 -37 hhcurveto
          25 160 rlineto
          -1 32 34 -1 41 hhcurveto
          15 87 -36 -2 -36 0 -36 -1 rlinecurve
          10 54 10 59 14 73 -102 -10 rcurveline
          -8 -69 -7 -57 -7 -51 rrcurveto
          -170 hlineto
          9 54 11 59 14 74 -102 -10 rcurveline
          -8 -69 -7 -56 -7 -51 rrcurveto
          -37 -38 1 2 -48 hvcurveto
          -14 -87 rlineto
          1 49 40 1 38 hhcurveto
          -8 -55 -7 -51 -9 -54 rrcurveto
          -33 -36 2 1 -43 hvcurveto
          -14 -87 rlineto
          1 43 36 1 34 hhcurveto
          -36 -200 100 10 23 191 rlineto
          1 27 29 0 34 hhcurveto
          83 hlineto
          -36 -202 100 10 23 190 rlineto
          36 37 -1 -1 47 hvcurveto
          -344 246 rmoveto
          77 hlineto
          37 31 0 -1 29 hvcurveto
          -7 -56 -8 -52 -9 -54 rrcurveto
          -175 hlineto
          endchar
        </CharString>
        <CharString name="o">
          -22 callsubr
          hstem
          14 callgsubr
          130 vstem
          -104 callgsubr
          endchar
        </CharString>
        <CharString name="oacute">
          -22 callsubr
          248 -20 hstem
          14 callgsubr
          130 vstem
          -104 callgsubr
          246 518 -80 callsubr
        </CharString>
        <CharString name="obreve">
          -22 callsubr
          90 -26 callsubr
          33 131 -61 91 161 130 hintmask 11011010
          -104 callgsubr
          292 507 rmoveto
          hintmask 11101010
          19 callgsubr
          hintmask 11010110
          -65 callsubr
        </CharString>
        <CharString name="ocircumflex">
          -22 callsubr
          256 -20 hstem
          14 callgsubr
          130 vstem
          -104 callgsubr
          57 359 -84 callsubr
        </CharString>
        <CharString name="odieresis">
          -22 callsubr
          91 119 hstemhm
          33 131 -45 35 callsubr
          -64 130 hintmask 11110010
          -104 callgsubr
          hintmask 11101100
          86 417 -89 callsubr
        </CharString>
        <CharString name="odotbelow">
          -54 -34 callgsubr
          68 80 362 82 hstem
          33 131 30 131 30 130 vstem
          -104 callgsubr
          161 -385 -99 callsubr
        </CharString>
        <CharString name="oe">
          213 -12 80 -80 101 137 74 130 82 hstemhm
          14 callgsubr
          131 166 104 hintmask 10111110
          33 242 rmoveto
          -155 82 -99 134 62 53 21 38 40 vhcurveto
          -47 39 57 -12 58 hhcurveto
          59 68 13 38 42 hvcurveto
          83 vlineto
          hintmask 01111110
          -13 -30 -48 -20 -53 hhcurveto
          -70 -34 35 102 -6 hvcurveto
          254 hlineto
          9 21 7 38 38 vvcurveto
          87 -37 102 -136 -62 -49 -27 -42 -39 vhcurveto
          46 -39 -57 23 -67 hhcurveto
          -144 -93 -105 -165 hvcurveto
          228 188 rmoveto
          76 18 -66 -107 hvcurveto
          hintmask 10111110
          -114 -37 -75 -62 -67 -25 66 111 114 35 71 62 vhcurveto
          312 9 rmoveto
          65 14 -75 -43 hvcurveto
          -8 -1 -7 -6 vvcurveto
          -165 hlineto
          95 7 30 44 50 hhcurveto
          endchar
        </CharString>
        <CharString name="ogonek">
          -209 -230 63 192 -20 hstem
          65 94 vstem
          167 15 rmoveto
          -28 -15 -74 -64 -76 -88 callgsubr
          63 50 67 22 16 hvcurveto
          endchar
        </CharString>
        <CharString name="ograve">
          -22 callsubr
          248 -20 hstem
          14 callgsubr
          130 vstem
          -104 callgsubr
          84 506 rmoveto
          -51 callsubr
        </CharString>
        <CharString name="ohungarumlaut">
          -22 callsubr
          248 -20 hstem
          14 callgsubr
          130 vstem
          -104 callgsubr
          150 518 -41 callsubr
        </CharString>
        <CharString name="omacron">
          -22 callsubr
          110 78 4 -20 hstemhm
          14 callgsubr
          130 hintmask 11011100
          -104 callgsubr
          398 462 -54 callsubr
        </CharString>
        <CharString name="one">
          -256 21 -21 700 -20 hstem
          120 119 vstem
          30 507 rmoveto
          87 -4 rlineto
          2 -55 1 -54 -54 vvcurveto
          -114 -4 -113 -4 -113 vhcurveto
          130 hlineto
          -96 callsubr
          -97 -10 -12 -58 -28 -47 -87 -15 rlinecurve
          endchar
        </CharString>
        <CharString name="oneeighth">
          77 18 callgsubr
          363 -20 hstemhm
          89 79 179 9 callgsubr
          hintmask 1111101100000000
          386 -86 callgsubr
          -461 -90 -77 callgsubr
          577 -396 -53 callsubr
          hintmask 1111110010000000
          -58 callgsubr
          hintmask 1111110100000000
          -91 callgsubr
          endchar
        </CharString>
        <CharString name="onehalf">
          75 0 66 -55 -21 249 117 -59 59 356 -20 hstemhm
          89 79 210 230 -80 80 hintmask 01101110
          386 -44 callsubr
          -133 -310 -35 -80 -149 -310 rrcurveto
          hintmask 10011110
          -1 callgsubr
          -461 -90 -77 callgsubr
          462 -475 rmoveto
          -43 -63 -63 -55 -8 -10 5 -54 rcurveline
          62 hlineto
          -33 callgsubr
          hintmask 10101101
          29 callgsubr
        </CharString>
        <CharString name="oneinferior">
          -376 21 -21 350 -20 hstem
          71 81 vstem
          17 248 rmoveto
          54 -2 rlineto
          -82 -2 -83 -1 -81 vhcurveto
          85 hlineto
          -1 51 0 47 80 vvcurveto
          86 0 43 4 43 vhcurveto
          -69 -5 -6 -29 -24 -14 -43 -7 rlinecurve
          endchar
        </CharString>
        <CharString name="onequarter">
          85 11 -21 31 -21 83 61 568 -20 hstemhm
          90 79 328 84 hintmask 10111100
          387 -44 callsubr
          -133 -310 -35 -80 -149 -310 rrcurveto
          hintmask 01111100
          -1 callgsubr
          -461 -90 -77 callgsubr
          466 -657 rmoveto
          85 hlineto
          -55 callsubr
          -40 callsubr
          endchar
        </CharString>
        <CharString name="onesuperior">
          -376 383 -21 350 -20 hstem
          73 79 vstem
          17 610 -77 callgsubr
          endchar
        </CharString>
        <CharString name="onethird">
          72 -12 23 callsubr
          363 -20 hstemhm
          89 79 204 24 callgsubr
          hintmask 11111101
          386 -86 callgsubr
          -461 -90 -77 callgsubr
          454 -613 -71 callsubr
          hintmask 11111110
          -87 callgsubr
          endchar
        </CharString>
        <CharString name="oogonek">
          -53 -230 63 597 82 hstemhm
          34 131 -7 94 104 130 hintmask 11101000
          34 242 rmoveto
          -145 72 -97 119 -11 vhcurveto
          hintmask 11011000
          -31 -29 -36 -47 -53 -88 callgsubr
          41 21 43 20 29 hvcurveto
          117 19 76 104 150 vvcurveto
          155 -80 92 -135 vhcurveto
          hintmask 11101000
          -144 -93 -105 -165 hvcurveto
          228 188 rmoveto
          76 18 -66 -107 -114 -37 -75 -62 -67 -25 66 111 114 35 71 62 hvcurveto
          endchar
        </CharString>
        <CharString name="ordfeminine">
          -209 398 59 75 54 58 68 hstem
          40 87 81 85 vstem
          133 398 rmoveto
          33 33 15 35 17 hvcurveto
          -36 6 32 -11 28 hhcurveto
          11 12 2 4 10 hvcurveto
          8 50 rlineto
          -17 hlineto
          -14 -5 6 19 hvcurveto
          21 6 78 29 vvcurveto
          70 -37 32 -75 -36 -56 -8 -13 -28 vhcurveto
          18 -67 rlineto
          17 30 40 3 18 hhcurveto
          35 6 -14 -35 hvcurveto
          -28 vlineto
          13 -20 -24 6 -22 hhcurveto
          -57 -45 -34 -61 -49 30 -44 63 hvcurveto
          30 65 rmoveto
          -20 -16 12 23 26 21 8 20 21 20 -8 -22 -26 -25 -13 -21 hvcurveto
          endchar
        </CharString>
        <CharString name="ordmasculine">
          -204 398 58 197 59 hstem
          39 89 115 88 vstem
          186 653 rmoveto
          46 11 -36 -58 -62 -23 -41 -37 -40 -15 35 61 62 21 39 37 hvcurveto
          -147 -103 rmoveto
          -93 54 -59 86 91 61 65 101 93 -52 55 -87 -93 -60 -63 -99 vhcurveto
          endchar
        </CharString>
        <CharString name="oslash">
          36 callsubr
          hstemhm
          39 131 191 130 hintmask 01101100
          9 callsubr
          hintmask 10011100
          -8 callgsubr
          hintmask 10101100
          -52 callgsubr
          endchar
        </CharString>
        <CharString name="oslashacute">
          36 callsubr
          280 -20 hstemhm
          39 131 191 130 hintmask 01101110
          9 callsubr
          hintmask 10011110
          -8 callgsubr
          hintmask 10101110
          -52 callgsubr
          21 330 -80 callsubr
        </CharString>
        <CharString name="otilde">
          -22 callsubr
          84 -38 callsubr
          14 callgsubr
          130 hintmask 11010110
          -104 callgsubr
          343 493 -60 callgsubr
          hintmask 11001110
          -33 -35 53 -45 -89 callgsubr
          hintmask 11100110
          33 35 -53 45 -66 callgsubr
        </CharString>
        <CharString name="p">
          -49 35 callgsubr
          70 339 115 hstem
          72 124 163 129 vstem
          488 300 rmoveto
          170 -64 42 -65 -73 -58 -50 -42 -42 vhcurveto
          -8 29 -15 25 -26 38 -117 -81 rcurveline
          -35 callsubr
          -178 0 -145 -8 -162 vhcurveto
          136 11 rlineto
          -3 74 -1 63 90 vvcurveto
          -12 22 25 -8 31 hhcurveto
          127 87 103 209 hvcurveto
          -292 -29 rmoveto
          40 0 30 -2 25 vhcurveto
          17 25 33 14 39 hhcurveto
          41 27 -20 -109 -138 -33 -72 -58 -32 -24 17 31 -16 hvcurveto
          endchar
        </CharString>
        <CharString name="paragraph">
          52 -159 -21 793 98 hstem
          263 93 97 92 vstem
          553 700 rmoveto
          9 -115 -100 2 -115 hhcurveto
          -149 -46 -111 -112 -131 62 -81 116 13 23 1 3 21 hvcurveto
          -202 -1 -104 -2 -154 vhcurveto
          103 hlineto
          -5 197 -2 -35 309 vvcurveto
          112 0 102 4 108 vhcurveto
          88 hlineto
          4 -144 1 -75 -125 vvcurveto
          -279 -5 -6 -3 -164 vhcurveto
          103 hlineto
          -3 139 0 69 20 callsubr
        </CharString>
        <CharString name="parenleft">
          -273 -91 -21 922 -20 hstem
          35 127 vstem
          286 -67 rmoveto
          -56 37 -68 97 282 vvcurveto
          276 65 100 59 39 vhcurveto
          -39 46 rlineto
          -67 -45 -145 -87 -334 vvcurveto
          -334 145 -85 67 -37 vhcurveto
          endchar
        </CharString>
        <CharString name="parenright">
          -273 -91 -21 922 -20 hstem
          138 127 vstem
          53 -112 rmoveto
          67 37 145 85 334 vvcurveto
          334 -145 87 -67 45 vhcurveto
          -39 -46 rlineto
          59 -39 65 -100 -276 vvcurveto
          -282 -68 -97 -56 -37 vhcurveto
          endchar
        </CharString>
        <CharString name="percent">
          244 2 callsubr
          hintmask 10111111
          507 -86 callgsubr
          -430 -47 -93 callgsubr
          hintmask 11011111
          606 -237 -93 callgsubr
          endchar
        </CharString>
        <CharString name="period">
          -320 -11 141 hstem
          47 159 vstem
          47 55 rmoveto
          -67 callsubr
        </CharString>
        <CharString name="periodcentered">
          -310 184 141 hstem
          52 159 vstem
          52 250 rmoveto
          -67 callsubr
        </CharString>
        <CharString name="perthousand">
          608 2 callsubr
          55 91 128 90 hintmask 1011111111000000
          507 -86 callgsubr
          -430 -47 -93 callgsubr
          hintmask 1101111111000000
          606 -237 -93 callgsubr
          520 125 -93 callgsubr
          endchar
        </CharString>
        <CharString name="plus">
          -132 137 236 -92 92 147 -20 hstem
          175 92 vstem
          267 134 -47 callgsubr
          endchar
        </CharString>
        <CharString name="plusminus">
          -92 59 84 -67 -21 162 236 -92 92 147 -20 hstemhm
          58 227 -92 226 hintmask 10011100
          285 214 -47 callgsubr
          232 -73 22 callgsubr
          hintmask 01101100
          -5 -92 rlineto
          hintmask 10101100
          2 71 38 2 71 hhcurveto
          hintmask 01101010
          30 callgsubr
        </CharString>
        <CharString name="q">
          -65 35 callgsubr
          115 339 70 -12 -20 hstemhm
          35 131 152 124 hintmask 11011100
          447 -220 rmoveto
          -4 119 -1 114 113 vvcurveto
          223 3 90 16 61 vhcurveto
          -53 hlineto
          -40 -46 rlineto
          hintmask 11101100
          37 -28 -36 21 -43 hhcurveto
          -134 -92 -103 -209 -170 72 -42 72 56 47 32 34 36 hvcurveto
          -1 -128 -2 -79 -5 -77 rrcurveto
          -61 333 rmoveto
          -50 -33 20 109 138 33 72 58 26 20 -9 -18 14 hvcurveto
          1 -69 0 -77 -105 vvcurveto
          -38 vlineto
          -13 -19 -23 -10 -27 hhcurveto
          endchar
        </CharString>
        <CharString name="question">
          -126 -12 141 346 234 -88 88 hstemhm
          29 118 9 159 -131 227 -121 121 hintmask 11011000
          156 54 rmoveto
          -43 34 -23 43 49 33 31 41 43 -35 26 -43 -50 -4 callsubr
          135 264 rmoveto
          hintmask 10110010
          83 67 37 47 88 vvcurveto
          94 -43 95 -136 -86 -117 -38 -199 vhcurveto
          118 7 rlineto
          98 34 44 45 35 29 -29 -69 -76 -37 -41 -73 -61 vhcurveto
          hintmask 11010100
          3 -39 1 -22 -29 -16 -1 -18 -23 vvcurveto
          103 hlineto
          36 1 40 4 44 vhcurveto
          endchar
        </CharString>
        <CharString name="questiondown">
          -135 -230 88 522 141 hstemhm
          30 121 -121 227 -131 159 9 118 hintmask 11001100
          285 455 37 callgsubr
          35 -26 43 50 31 35 40 vhcurveto
          -135 -294 rmoveto
          hintmask 11100100
          -83 -67 -37 -47 -88 vvcurveto
          -94 43 -95 136 86 117 38 199 vhcurveto
          -118 -7 rlineto
          -98 -34 -44 -45 -35 -29 29 69 76 37 41 73 61 vhcurveto
          hintmask 11010100
          -3 41 -1 49 30 16 1 18 23 vvcurveto
          -103 hlineto
          -37 -1 -68 -4 -45 vhcurveto
          endchar
        </CharString>
        <CharString name="quotedbl">
          -217 4 callgsubr
          64 10 rmoveto
          11 -254 69 -5 22 249 rlineto
          endchar
        </CharString>
        <CharString name="quotedblbase">
          -132 -209 -21 281 -20 hstem
          82 108 107 108 vstem
          32 -29 rmoveto
          -51 callgsubr
          215 hmoveto
          -51 callgsubr
          endchar
        </CharString>
        <CharString name="quotedblleft">
          -126 16 callsubr
          40 108 107 108 vstem
          198 569 rmoveto
          -52 callsubr
          215 hmoveto
          -52 callsubr
          endchar
        </CharString>
        <CharString name="quotedblright">
          -139 16 callsubr
          85 108 107 108 vstem
          250 -29 callsubr
          -215 hmoveto
          -27 callsubr
        </CharString>
        <CharString name="quoteleft">
          -341 16 callsubr
          40 108 vstem
          198 569 rmoveto
          -52 callsubr
          endchar
        </CharString>
        <CharString name="quoteright">
          -354 16 callsubr
          85 108 vstem
          35 -29 callsubr
          endchar
        </CharString>
        <CharString name="quotesinglbase">
          -347 -209 -21 281 -20 hstem
          82 108 vstem
          32 -29 rmoveto
          -51 callgsubr
          endchar
        </CharString>
        <CharString name="quotesingle">
          -383 4 callgsubr
          endchar
        </CharString>
        <CharString name="r">
          -210 21 -21 518 -20 hstem
          73 124 vstem
          21 437 rmoveto
          43 -63 9 -22 -123 vvcurveto
          -77 -4 -95 -2 -57 vhcurveto
          -15 callgsubr
          -6 46 -5 115 86 vvcurveto
          37 0 30 -1 25 vhcurveto
          26 24 62 11 65 hhcurveto
          -9 142 -69 -11 -54 -58 -27 -40 rlinecurve
          -7 36 -15 29 -28 44 rrcurveto
          endchar
        </CharString>
        <CharString name="racute">
          -209 21 -21 760 -20 hstem
          74 124 vstem
          22 437 rmoveto
          43 -63 9 -22 -123 vvcurveto
          -77 -4 -95 -2 -57 vhcurveto
          -15 callgsubr
          -6 46 -5 115 86 vvcurveto
          37 0 30 -1 25 vhcurveto
          26 24 62 11 65 hhcurveto
          -9 142 -69 -11 -54 -58 -27 -40 rlinecurve
          -7 36 -15 29 -28 44 rrcurveto
          94 242 -80 callsubr
        </CharString>
        <CharString name="rcaron">
          -210 21 -21 768 -20 hstem
          73 124 vstem
          21 437 rmoveto
          43 -63 9 -22 -123 vvcurveto
          -77 -4 -95 -2 -57 vhcurveto
          -15 callgsubr
          -6 46 -5 115 86 vvcurveto
          37 0 30 -1 25 vhcurveto
          26 24 62 11 65 hhcurveto
          -9 142 -69 -11 -54 -58 -27 -40 rlinecurve
          -7 36 -15 29 -28 44 rrcurveto
          4 71 rmoveto
          -87 callsubr
        </CharString>
        <CharString name="rcommaaccent">
          -210 -11 callsubr
          51 518 -20 hstemhm
          73 124 -65 87 hintmask 11110000
          21 437 rmoveto
          43 -63 9 -22 -123 vvcurveto
          -77 -4 -95 -2 -57 vhcurveto
          -15 callgsubr
          -6 46 -5 115 86 vvcurveto
          37 0 30 -1 25 vhcurveto
          26 24 62 11 65 hhcurveto
          -9 142 -69 -11 -54 -58 -27 -40 rlinecurve
          -7 36 -15 29 -28 44 rrcurveto
          -45 -623 rmoveto
          hintmask 11101000
          -100 callsubr
        </CharString>
        <CharString name="rdotbelow">
          -210 -34 callgsubr
          101 -21 518 -20 hstem
          73 124 vstem
          21 437 rmoveto
          43 -63 9 -22 -123 vvcurveto
          -77 -4 -95 -2 -57 vhcurveto
          -15 callgsubr
          -6 46 -5 115 86 vvcurveto
          37 0 30 -1 25 vhcurveto
          26 24 62 11 65 hhcurveto
          -9 142 -69 -11 -54 -58 -27 -40 rlinecurve
          -7 36 -15 29 -28 44 rrcurveto
          -64 -661 -99 callsubr
        </CharString>
        <CharString name="registered">
          -64 349 51 60 121 -37 136 52 51 hstemhm
          43 54 81 49 66 52 69 53 hintmask 10111111
          256 732 rmoveto
          124 34 -57 -104 -106 -66 -65 -95 -109 -47 57 107 108 63 60 96 hvcurveto
          -213 -170 rmoveto
          -124 78 -89 128 131 87 96 131 126 -76 81 -129 -134 -85 -90 -131 vhcurveto
          133 111 rmoveto
          2 -32 0 -31 -34 vvcurveto
          -61 0 -14 -3 -39 vhcurveto
          53 hlineto
          -1 24 0 27 30 vvcurveto
          6 6 1 5 hhcurveto
          40 9 -16 -33 -11 -1 -12 -2 -13 hvcurveto
          54 3 rlineto
          10 1 10 8 vvcurveto
          42 -9 19 -29 12 vhcurveto
          24 12 14 18 26 vvcurveto
          28 -17 33 -77 -25 -29 -3 -4 -21 vhcurveto
          79 -30 rmoveto
          25 15 -10 -19 hvcurveto
          hintmask 11011111
          -21 -17 -12 -31 -7 -7 0 1 -6 vhcurveto
          57 vlineto
          3 10 9 1 9 hhcurveto
          endchar
        </CharString>
        <CharString name="ring">
          -235 574 57 77 57 hstem
          70 58 79 61 vstem
          70 662 -72 callsubr
          endchar
        </CharString>
        <CharString name="ring.cap">
          -387 782 54 72 53 hstem
          0 54 75 57 vstem
          865 vmoveto
          -59 callsubr
        </CharString>
        <CharString name="s">
          34 callgsubr
          hstem
          42 102 113 105 vstem
          -101 callgsubr
          endchar
        </CharString>
        <CharString name="sacute">
          -176 -12 106 317 101 248 -20 hstem
          42 102 113 105 vstem
          -101 callgsubr
          37 666 -80 callsubr
        </CharString>
        <CharString name="scaron">
          34 callgsubr
          0 84 172 -20 hstemhm
          42 102 113 105 hintmask 11011100
          -101 callgsubr
          -53 495 rmoveto
          hintmask 10111100
          -87 callsubr
        </CharString>
        <CharString name="schwa">
          -106 -12 81 131 74 157 81 hstem
          29 104 170 130 vstem
          29 176 rmoveto
          -87 57 -101 120 140 87 107 170 178 -101 69 -104 -62 -70 -12 -34 -43 vhcurveto
          10 -78 rlineto
          20 41 47 23 48 hhcurveto
          81 21 -51 -106 2 hvcurveto
          -258 hlineto
          -9 -21 -7 -38 -39 vvcurveto
          187 -107 rmoveto
          -71 -12 66 46 6 0 7 1 6 hvcurveto
          166 hlineto
          -82 -7 -26 -49 -51 hhcurveto
          endchar
        </CharString>
        <CharString name="scircumflex">
          34 callgsubr
          256 -20 hstem
          42 102 113 105 vstem
          -101 callgsubr
          -152 507 -84 callsubr
        </CharString>
        <CharString name="sdotbelow">
          -176 -34 callgsubr
          68 106 317 101 hstemhm
          42 102 -11 131 -7 105 hintmask 11110100
          -101 callgsubr
          hintmask 11101000
          -72 -237 -99 callsubr
        </CharString>
        <CharString name="section">
          -149 -22 101 531 102 hstemhm
          60 85 -85 105 103 102 -82 82 hintmask 11011000
          229 610 rmoveto
          34 66 -9 -15 30 hvcurveto
          105 vlineto
          17 -45 -50 4 -32 hhcurveto
          -106 -66 -44 -105 -56 18 -31 29 -23 hvcurveto
          -35 -26 -22 -39 -47 -156 218 29 -88 vvcurveto
          -32 -23 -15 -40 -54 -61 27 26 -39 vhcurveto
          -106 vlineto
          -24 26 66 -24 66 hhcurveto
          61 100 21 132 53 -17 34 -25 23 hvcurveto
          30 24 22 35 51 164 -215 -22 72 vvcurveto
          26 15 19 49 vhcurveto
          37 -330 rmoveto
          hintmask 11100100
          -89 36 -32 24 31 vvcurveto
          16 10 19 16 12 vhcurveto
          61 -24 56 -24 -43 vvcurveto
          -17 -9 -17 -13 -13 vhcurveto
          endchar
        </CharString>
        <CharString name="semicolon">
          -309 -142 -21 522 141 hstemhm
          52 158 -108 108 hintmask 11100000
          52 50 rmoveto
          hintmask 11010000
          -69 callgsubr
          hintmask 11100000
          -28 callsubr
          375 vmoveto
          -67 callsubr
        </CharString>
        <CharString name="servicemark">
          280 351 62 -48 -21 309 59 hstemhm
          61 79 93 83 65 74 258 73 hintmask 10111110
          171 413 rmoveto
          -39 -53 12 13 -24 hvcurveto
          3 -67 rlineto
          -14 45 50 -6 37 hhcurveto
          73 53 35 69 72 -54 22 -48 16 hvcurveto
          -27 9 -47 8 33 vvcurveto
          21 20 17 49 28 36 -8 -13 32 vhcurveto
          68 vlineto
          6 -28 -39 6 -43 hhcurveto
          -55 -79 -16 -87 -66 41 -17 64 -22 hvcurveto
          35 -12 32 -10 -31 vvcurveto
          -25 -21 -13 -41 vhcurveto
          495 287 rmoveto
          -22 -108 -28 -90 -32 -91 -25 callsubr
          rlineto
          hintmask 01111110
          23 -83 26 -90 33 -74 92 6 rcurveline
          30 74 26 83 21 80 9 31 rcurveline
          0 callsubr
          endchar
        </CharString>
        <CharString name="seven">
          -142 21 -21 609 91 12 -20 hstemhm
          hintmask 11000000
          408 700 rmoveto
          -70 hlineto
          hintmask 10100000
          -104 -169 7 5 -44 hvcurveto
          hintmask 11000000
          9 -103 rlineto
          248 hlineto
          -38 -192 -86 -238 -72 -179 rrcurveto
          148 hlineto
          51 202 64 275 72 167 rrcurveto
          endchar
        </CharString>
        <CharString name="seveneighths">
          88 18 callgsubr
          290 61 6 -20 hstemhm
          371 74 99 74 -74 87 hintmask 11110110
          389 -86 callgsubr
          121 -439 -53 callsubr
          -47 -7 -20 -39 -44 vvcurveto
          -67 58 -34 81 vhcurveto
          hintmask 11110101
          82 52 36 62 47 -22 39 -46 7 hvcurveto
          hintmask 11110110
          -91 callgsubr
          -287 449 rmoveto
          -35 hlineto
          hintmask 11101101
          -60 -98 3 3 -25 hvcurveto
          hintmask 11110101
          4 -67 rlineto
          124 hlineto
          -19 -91 -43 -113 -36 -85 rrcurveto
          99 hlineto
          26 96 32 131 36 80 rrcurveto
          endchar
        </CharString>
        <CharString name="seveninferior">
          -326 21 -21 289 61 6 -20 hstemhm
          hintmask 11000000
          231 350 rmoveto
          -35 hlineto
          hintmask 10100000
          -60 -98 3 3 -25 hvcurveto
          hintmask 11000000
          4 -67 rlineto
          124 hlineto
          -19 -91 -43 -113 -36 -85 rrcurveto
          99 hlineto
          26 96 32 131 36 80 rrcurveto
          endchar
        </CharString>
        <CharString name="sevensuperior">
          -325 371 -21 289 61 6 -20 hstemhm
          hintmask 11000000
          232 700 rmoveto
          -35 hlineto
          hintmask 10100000
          -60 -98 3 3 -25 hvcurveto
          hintmask 11000000
          4 -67 rlineto
          124 hlineto
          -19 -91 -43 -113 -36 -85 rrcurveto
          99 hlineto
          26 96 32 131 36 80 rrcurveto
          endchar
        </CharString>
        <CharString name="six">
          -43 -12 80 292 72 196 84 hstemhm
          48 120 192 112 -112 130 hintmask 11111000
          277 628 rmoveto
          52 27 -37 -93 5 hvcurveto
          111 13 rlineto
          114 -7 -51 87 -140 hhcurveto
          -159 -67 -112 -276 -211 39 -125 175 hvcurveto
          hintmask 11110100
          135 93 73 159 169 -105 43 -104 -53 -29 -11 -20 -26 hvcurveto
          159 4 29 68 71 hhcurveto
          -13 -268 rmoveto
          66 30 -30 -101 -110 -35 -51 -58 -84 -15 104 152 hvcurveto
          23 20 32 13 44 hhcurveto
          endchar
        </CharString>
        <CharString name="sixinferior">
          -250 -12 14 callsubr
          293 -56 callsubr
        </CharString>
        <CharString name="sixsuperior">
          -250 350 14 callsubr
          655 -56 callsubr
        </CharString>
        <CharString name="slash">
          -53 -103 -21 824 -20 hstem
          119 -24 callgsubr
        </CharString>
        <CharString name="space">
          -361 endchar
        </CharString>
        <CharString name="sterling">
          -57 -12 91 -72 -21 21 89 213 81 228 92 hstemhm
          117 109 hintmask 01011100
          41 319 rmoveto
          77 -67 hlineto
          -139 -5 -34 -74 -15 vhcurveto
          38 -78 rlineto
          0 84 21 59 vhcurveto
          hintmask 10011100
          56 71 -19 39 hhcurveto
          40 38 20 16 22 hvcurveto
          -22 87 rlineto
          -17 -29 -13 -15 -36 hhcurveto
          hintmask 00111100
          -38 -38 17 -67 hhcurveto
          -23 -22 -2 -12 -33 hvcurveto
          45 46 12 49 4 136 122 -8 rcurveline
          9 85 rlineto
          -129 hlineto
          25 0 27 1 31 vhcurveto
          100 2 0 45 76 hhcurveto
          48 51 -18 -24 45 hvcurveto
          11 99 rlineto
          26 -39 -86 9 -37 hhcurveto
          -147 -36 -140 -142 hvcurveto
          -38 -83 vlineto
          endchar
        </CharString>
        <CharString name="t">
          -228 -12 -14 callgsubr
          hintmask 11010100
          22 429 rmoveto
          73 hlineto
          hintmask 10111000
          -78 callsubr
          hintmask 11011000
          -19 callsubr
          endchar
        </CharString>
        <CharString name="tbar">
          -225 -12 111 171 82 66 74 8 -20 199 -20 hstemhm
          21 183 -121 121 hintmask 11011010
          24 429 rmoveto
          73 hlineto
          -6 -80 rlineto
          -20 -22 1 2 -26 hvcurveto
          -3 -82 rlineto
          1 25 21 2 20 hhcurveto
          -2 -34 -1 -30 -25 vvcurveto
          -145 44 -51 88 -1 callsubr
          -27 hhcurveto
          -39 -11 17 109 hvcurveto
          49 vlineto
          40 -1 12 -2 54 -1 4 82 rcurveline
          -4 -51 -18 0 -38 hhcurveto
          4 74 104 -7 9 85 rlineto
          -108 hlineto
          5 53 6 53 12 73 -93 -27 rcurveline
          hintmask 11101100
          -19 callsubr
          endchar
        </CharString>
        <CharString name="tcaron">
          -228 -12 111 319 74 8 -20 290 -20 hstemhm
          81 121 -107 107 102 85 hintmask 11010110
          22 429 rmoveto
          73 hlineto
          hintmask 10111010
          -78 callsubr
          hintmask 11011010
          -19 callsubr
          255 223 -76 callsubr
        </CharString>
        <CharString name="tdotbelow">
          -228 -34 callgsubr
          68 -14 callgsubr
          -89 131 hintmask 11101010
          22 429 rmoveto
          73 hlineto
          hintmask 11011100
          -78 callsubr
          hintmask 11101001
          -19 callsubr
          98 -635 -99 callsubr
        </CharString>
        <CharString name="thorn">
          -61 35 callgsubr
          70 339 115 258 -20 hstem
          56 129 162 129 vstem
          56 760 rmoveto
          4 -119 3 -225 -111 vvcurveto
          -229 0 -99 -8 -207 vhcurveto
          134 11 rlineto
          -3 74 -1 62 90 vvcurveto
          -11 22 25 -8 30 -23 callgsubr
          161 1 93 -26 callgsubr
          86 -373 -62 callsubr
          endchar
        </CharString>
        <CharString name="three">
          -64 -12 82 251 81 224 85 hstemhm
          39 115 -101 113 153 123 -105 105 -105 131 hintmask 11110001
          247 70 rmoveto
          -64 -29 42 106 hvcurveto
          -115 -13 rlineto
          -190 113 -27 90 138 88 64 136 92 -41 68 -94 13 vhcurveto
          hintmask 11101100
          74 23 35 70 72 vvcurveto
          94 -60 91 -126 -96 -107 -52 -151 vhcurveto
          113 12 rlineto
          61 25 45 54 54 20 -46 -70 -66 -18 -42 -116 vhcurveto
          10 -81 rlineto
          hintmask 11110010
          105 37 -23 -102 -77 -21 -49 -69 hvcurveto
          endchar
        </CharString>
        <CharString name="threeeighths">
          135 18 callgsubr
          3 23 callsubr
          hstemhm
          40 24 callgsubr
          122 9 callgsubr
          hintmask 1111111100110000
          454 -86 callgsubr
          103 -439 -53 callsubr
          hintmask 1111111101001000
          -58 callgsubr
          hintmask 1111111011010000
          -91 callgsubr
          -431 157 -71 callsubr
          hintmask 1111111101010000
          -87 callgsubr
          endchar
        </CharString>
        <CharString name="threeinferior">
          -275 -12 23 callsubr
          hstemhm
          30 24 callgsubr
          hintmask 11110100
          142 44 -71 callsubr
          hintmask 11111000
          -87 callgsubr
          endchar
        </CharString>
        <CharString name="threequarters">
          142 0 144 -133 -21 93 61 208 23 callsubr
          hstemhm
          40 24 callgsubr
          271 84 hintmask 0111111101000000
          469 -44 callsubr
          -133 -310 -35 -80 -149 -310 rrcurveto
          hintmask 1001111101000000
          -1 callgsubr
          -23 -700 rmoveto
          85 hlineto
          hintmask 0111111101000000
          -55 callsubr
          hintmask 1001111011000000
          -40 callsubr
          -406 264 -71 callsubr
          hintmask 1001111101000000
          -87 callgsubr
          endchar
        </CharString>
        <CharString name="threesuperior">
          -275 352 23 callsubr
          hstemhm
          30 24 callgsubr
          hintmask 11110100
          142 408 -71 callsubr
          hintmask 11111000
          -87 callgsubr
          endchar
        </CharString>
        <CharString name="tilde">
          4 596 -38 callsubr
          hintmask 01000000
          405 735 -60 callgsubr
          hintmask 00100000
          -33 -35 53 -45 -89 callgsubr
          hintmask 10000000
          33 35 -53 45 -66 callgsubr
        </CharString>
        <CharString name="tilde.cap">
          -210 770 -38 callsubr
          hintmask 01000000
          309 909 -60 callgsubr
          hintmask 00100000
          -39 -41 53 -53 -89 callgsubr
          hintmask 10000000
          39 41 -53 53 -66 callgsubr
        </CharString>
        <CharString name="trademark">
          287 365 -21 294 62 6 -20 hstemhm
          152 85 151 74 258 73 hintmask 11011100
          673 700 rmoveto
          -22 -108 -28 -90 -32 -91 rrcurveto
          hintmask 10111100
          -25 callsubr
          23 -83 26 -90 33 -74 rlinecurve
          92 6 30 74 26 83 21 80 rlinecurve
          9 31 0 callsubr
          hintmask 11011100
          -460 -6 rmoveto
          -285 -62 99 hlineto
          1 -34 0 -33 -32 vvcurveto
          -102 -2 -23 -2 -64 vhcurveto
          91 hlineto
          -2 51 0 47 80 vvcurveto
          47 0 34 1 29 vhcurveto
          99 hlineto
          endchar
        </CharString>
        <CharString name="two">
          -92 0 106 -92 -21 485 234 -88 88 hstemhm
          52 108 153 121 hintmask 10101100
          241 363 rmoveto
          -78 -126 -117 -150 -14 -19 11 -68 rcurveline
          104 hlineto
          hintmask 01101100
          99 154 -1 -6 29 hvcurveto
          hintmask 10011100
          10 113 -76 -3 -77 -2 -76 -1 rlinecurve
          60 110 57 79 40 64 rrcurveto
          43 69 24 52 62 vvcurveto
          84 -45 92 -138 -89 -110 -38 -199 vhcurveto
          108 7 rlineto
          98 30 44 54 43 26 -29 -49 -56 -34 -65 -38 -62 vhcurveto
          endchar
        </CharString>
        <CharString name="twoinferior">
          -284 0 4 callsubr
          182 rmoveto
          -43 -63 -63 -55 -8 -10 5 -54 rcurveline
          62 hlineto
          hintmask 01011000
          -33 callgsubr
          hintmask 10100100
          29 callgsubr
        </CharString>
        <CharString name="twosuperior">
          -284 356 4 callsubr
          538 rmoveto
          -61 -84 -39 -26 -14 -18 5 -54 rcurveline
          62 hlineto
          hintmask 01011000
          -34 callsubr
          hintmask 10100100
          29 callsubr
        </CharString>
        <CharString name="twothirds">
          135 -12 23 callsubr
          7 66 173 117 -59 59 hstemhm
          38 230 -80 80 167 24 callgsubr
          hintmask 1111101010100000
          469 -86 callgsubr
          -30 -656 -71 callsubr
          hintmask 1111011011000000
          -87 callgsubr
          -395 494 rmoveto
          -61 -84 -39 -26 -14 -18 5 -54 rcurveline
          62 hlineto
          -34 callsubr
          hintmask 1111100111000000
          29 callsubr
        </CharString>
        <CharString name="u">
          -39 -12 11 callsubr
          55 -21 callgsubr
          hintmask 11011000
          515 69 rmoveto
          -43 54 -9 19 103 vvcurveto
          89 6 103 2 63 vhcurveto
          -135 hlineto
          3 -79 0 -70 -122 vvcurveto
          -38 0 -30 1 -24 vhcurveto
          -19 -23 -26 -15 -39 hhcurveto
          -47 -28 25 78 hvcurveto
          49 9 84 76 vvcurveto
          hintmask 10111000
          26 -1 41 -9 30 vhcurveto
          -137 -24 rlineto
          15 -27 5 -43 -44 -40 -4 -124 -36 vvcurveto
          -144 64 -42 66 72 51 50 44 40 vhcurveto
          8 -30 15 -26 27 -38 rrcurveto
          endchar
        </CharString>
        <CharString name="uacute">
          -36 callgsubr
          280 -20 hstem
          50 -21 callgsubr
          vstem
          -107 callsubr
          -93 772 -80 callsubr
        </CharString>
        <CharString name="ubreve">
          -36 callgsubr
          122 -26 callsubr
          50 122 -69 91 140 81 -81 124 hintmask 11011001
          -107 callsubr
          -68 761 rmoveto
          hintmask 11101010
          19 callgsubr
          hintmask 11010110
          -65 callsubr
        </CharString>
        <CharString name="ucircumflex">
          -36 callgsubr
          288 -20 hstem
          50 -21 callgsubr
          vstem
          -107 callsubr
          -302 613 -84 callsubr
        </CharString>
        <CharString name="udieresis">
          -36 callgsubr
          123 119 hstemhm
          50 122 -64 35 callsubr
          -74 124 hintmask 11110010
          -107 callsubr
          hintmask 11101100
          -285 671 -89 callsubr
        </CharString>
        <CharString name="udotbelow">
          -44 -34 callgsubr
          68 11 callsubr
          50 122 15 131 16 124 hintmask 11101110
          510 69 rmoveto
          -43 54 -9 19 103 vvcurveto
          89 6 103 2 63 vhcurveto
          -135 hlineto
          3 -79 0 -70 -122 vvcurveto
          -38 0 -30 1 -24 vhcurveto
          -19 -23 -26 -15 -39 hhcurveto
          -47 -28 25 78 hvcurveto
          49 9 84 76 vvcurveto
          hintmask 11011110
          26 -1 41 -9 30 vhcurveto
          -137 -24 rlineto
          15 -27 5 -43 -44 -40 -4 -124 -36 vvcurveto
          -144 64 -42 66 72 51 50 44 40 vhcurveto
          8 -30 15 -26 27 -38 rrcurveto
          -206 -131 -99 callsubr
        </CharString>
        <CharString name="ugrave">
          -36 callgsubr
          280 -20 hstem
          50 -21 callgsubr
          vstem
          -107 callsubr
          -249 760 rmoveto
          -51 callsubr
        </CharString>
        <CharString name="uhungarumlaut">
          -36 callgsubr
          280 -20 hstem
          50 -21 callgsubr
          vstem
          -107 callsubr
          -219 772 -41 callsubr
        </CharString>
        <CharString name="umacron">
          -36 callgsubr
          142 78 4 -20 hstemhm
          50 -21 callgsubr
          hintmask 11011100
          -107 callsubr
          46 716 -54 callsubr
        </CharString>
        <CharString name="underscore">
          -39 -96 -19 callgsubr
          480 -8 rmoveto
          hintmask 10000000
          -3 -64 -84 -1 -63 hhcurveto
          hintmask 01100000
          -64 -83 1 3 -63 -7 callgsubr
          63 84 2 63 hhcurveto
          hintmask 01100000
          63 83 -2 -2 64 hvcurveto
          endchar
        </CharString>
        <CharString name="uni00A0">
          -361 endchar
        </CharString>
        <CharString name="uni00AD">
          -43 callgsubr
        </CharString>
        <CharString name="uni015E">
          -14 -230 59 64 209 -114 -5 callgsubr
          hstemhm
          51 119 183 96 -54 126 hintmask 10111100
          271 102 rmoveto
          -77 -104 27 23 -48 hvcurveto
          4 -123 71 -26 78 -13 62 -2 rlinecurve
          -16 -98 rlineto
          hintmask 11011100
          -76 callgsubr
          5 39 rlineto
          hintmask 10111010
          117 15 80 69 120 vvcurveto
          139 -107 44 -96 27 vhcurveto
          -55 15 -93 24 71 vvcurveto
          48 42 39 96 55 73 -13 -19 64 vhcurveto
          116 vlineto
          11 -46 -65 13 -69 hhcurveto
          -110 -159 -32 -174 -126 83 -31 127 -44 hvcurveto
          70 -24 64 -23 -69 vvcurveto
          -55 -41 -31 -83 vhcurveto
          endchar
        </CharString>
        <CharString name="uni015F">
          -176 -230 59 64 201 317 101 hstemhm
          42 102 108 96 -96 110 hintmask 11111000
          205 94 rmoveto
          -47 -81 25 23 -34 hvcurveto
          4 -113 36 -19 38 -11 36 -6 rlinecurve
          -17 -103 rlineto
          -76 callgsubr
          hintmask 11110100
          5 36 rlineto
          82 4 57 44 97 vvcurveto
          100 -55 31 -66 25 vhcurveto
          -55 20 -42 16 41 vvcurveto
          28 22 16 42 28 60 -7 -17 45 vhcurveto
          106 vlineto
          12 -30 -52 7 -38 hhcurveto
          -69 -110 -22 -128 -110 72 -25 64 -25 hvcurveto
          56 -22 23 -9 -35 vvcurveto
          -26 -15 -16 -37 vhcurveto
          endchar
        </CharString>
        <CharString name="uni0162">
          -23 -230 59 192 -21 602 98 hstemhm
          210 130 -4 96 hintmask 11110000
          540 700 rmoveto
          -530 -98 198 hlineto
          2 -76 0 -73 -74 vvcurveto
          -205 -5 -46 -3 -128 vhcurveto
          40 hlineto
          -18 -110 rlineto
          2 15 17 1 15 hhcurveto
          hintmask 11101000
          35 30 -7 -26 -24 -96 -7 -32 hvcurveto
          15 -59 rlineto
          51 158 20 79 81 -130 3 0 hvcurveto
          7 47 rlineto
          34 hlineto
          hintmask 11110000
          -3 103 0 24 callsubr
          109 0 75 2 62 vhcurveto
          198 hlineto
          endchar
        </CharString>
        <CharString name="uni0163">
          -226 -230 59 64 206 319 74 8 -20 199 -20 hstemhm
          82 121 -107 107 36 96 hintmask 11101011
          23 429 rmoveto
          73 hlineto
          hintmask 11011101
          -6 -93 -8 -92 -60 vvcurveto
          -114 27 -56 54 -18 vhcurveto
          -36 -106 rlineto
          -76 callgsubr
          18 35 33 2 23 9 30 15 rlinecurve
          -27 callgsubr
          -27 hhcurveto
          -39 -11 17 109 48 2 70 5 79 37 callsubr
          53 6 53 12 73 -93 -27 rcurveline
          hintmask 11101101
          -19 callsubr
          endchar
        </CharString>
        <CharString name="uni01C4">
          643 -12 82 -70 100 501 99 -78 90 -12 90 142 -20 -16 callsubr
          291 134 hintmask 01100111
          74 690 rmoveto
          -104 callsubr
          hintmask 10010111
          -103 callsubr
          hintmask 10100111
          886 78 rmoveto
          -70 hlineto
          hintmask 10010111
          -30 callgsubr
          hintmask 01100111
          -74 callgsubr
          hintmask 10100111
          -31 callsubr
          hintmask 01100111
          -64 callsubr
          -307 139 rmoveto
          hintmask 10001111
          -92 callsubr
        </CharString>
        <CharString name="uni01C5">
          27 callgsubr
          56 -20 -16 callsubr
          291 134 hintmask 01111110
          74 690 rmoveto
          -104 callsubr
          hintmask 10111110
          -103 callsubr
          769 -122 -3 callgsubr
          hintmask 01111110
          -4 callgsubr
          hintmask 10111110
          -79 callsubr
          -226 135 rmoveto
          -87 callsubr
        </CharString>
        <CharString name="uni01C6">
          371 -12 115 -103 103 397 96 -84 -20 278 -20 hstemhm
          8 callsubr
          hintmask 10011110
          -101 callsubr
          hintmask 10101110
          652 397 rmoveto
          -33 hlineto
          hintmask 01011110
          -78 callgsubr
          -4 callgsubr
          hintmask 10101110
          -79 callsubr
          -226 135 rmoveto
          -87 callsubr
        </CharString>
        <CharString name="uni01C7">
          191 -126 -21 147 98 602 -10 callgsubr
          352 121 vstem
          -93 callsubr
          90 142 -67 callgsubr
        </CharString>
        <CharString name="uni01C8">
          158 21 callgsubr
          119 98 402 -20 123 129 -16 callsubr
          336 12 callsubr
          hintmask 11111100
          -93 callsubr
          74 -4 rmoveto
          -100 callgsubr
          43 1 65 -3 callsubr
          -137 hlineto
          -22 callgsubr
          -8 369 -29 callgsubr
          hintmask 11111010
          -69 callsubr
          endchar
        </CharString>
        <CharString name="uni01C9">
          -72 21 callgsubr
          140 -18 callgsubr
          38 -20 hstemhm
          65 124 126 12 callsubr
          hintmask 11111110
          -84 callgsubr
          118 -774 rmoveto
          -100 callgsubr
          43 1 65 -3 callsubr
          -137 hlineto
          -22 callgsubr
          -8 369 -29 callgsubr
          hintmask 11111101
          -69 callsubr
          endchar
        </CharString>
        <CharString name="uni01CA">
          425 -126 -21 168 -21 712 -20 hstem
          -7 callsubr
          157 121 vstem
          508 -13 callsubr
          6 -101 -102 vvcurveto
          -130 -2 -96 -2 -64 vhcurveto
          -107 238 -71 212 -41 173 -221 -22 rcurveline
          -104 callsubr
          136 hlineto
          -3 103 -5 24 callsubr
          78 0 95 1 51 vhcurveto
          -46 callsubr
          201 12 rcurveline
          -96 callsubr
          149 -558 -67 callgsubr
        </CharString>
        <CharString name="uni01CB">
          392 21 callgsubr
          140 3 callsubr
          -7 callsubr
          141 12 callsubr
          hintmask 11111110
          508 -13 callsubr
          6 -101 -102 vvcurveto
          -130 -2 -96 -2 -64 vhcurveto
          -107 238 -71 212 -41 173 -221 -22 rcurveline
          -104 callsubr
          136 hlineto
          -3 103 -5 24 callsubr
          78 0 95 1 51 vhcurveto
          -46 callsubr
          201 12 rcurveline
          -96 callsubr
          133 -704 rmoveto
          -100 callgsubr
          43 1 65 -3 callsubr
          -137 hlineto
          -22 callgsubr
          -8 369 -29 callgsubr
          hintmask 11111101
          -69 callsubr
          endchar
        </CharString>
        <CharString name="uni01CC">
          223 21 callgsubr
          140 -42 callsubr
          -12 -20 123 129 -18 callsubr
          119 12 callsubr
          hintmask 1110111100000000
          -98 callgsubr
          -26 1 -41 9 -30 vhcurveto
          139 24 rlineto
          -15 27 -5 43 44 40 4 124 36 vvcurveto
          144 -64 42 -66 -63 callsubr
          472 -516 rmoveto
          -100 callgsubr
          hintmask 1101111100000000
          43 1 65 -3 callsubr
          -137 hlineto
          -22 callgsubr
          -8 369 -29 callgsubr
          hintmask 1110111010000000
          -69 callsubr
          endchar
        </CharString>
        <CharString name="uni01F1">
          631 -12 82 -70 100 501 99 -78 90 -16 callsubr
          291 134 hintmask 01101100
          74 690 rmoveto
          -104 callsubr
          hintmask 10011100
          -103 callsubr
          hintmask 10101100
          874 78 rmoveto
          -70 hlineto
          hintmask 10011100
          -30 callgsubr
          hintmask 01101100
          -74 callgsubr
          hintmask 10101100
          -31 callsubr
          hintmask 01101100
          -64 callsubr
          endchar
        </CharString>
        <CharString name="uni01F2">
          27 callgsubr
          -16 callsubr
          291 134 hintmask 01111100
          74 690 rmoveto
          -104 callsubr
          hintmask 10111100
          -103 callsubr
          769 -122 -3 callgsubr
          hintmask 01111100
          -4 callgsubr
          hintmask 10111100
          -79 callsubr
          endchar
        </CharString>
        <CharString name="uni01F3">
          371 -12 115 -103 103 339 70 -12 -20 290 -20 hstemhm
          8 callsubr
          hintmask 10101110
          -101 callsubr
          hintmask 10011110
          652 397 rmoveto
          -33 hlineto
          hintmask 01101110
          -78 callgsubr
          -4 callgsubr
          hintmask 10011110
          -79 callsubr
          endchar
        </CharString>
        <CharString name="uni0218">
          -14 -11 callsubr
          39 0 -5 callgsubr
          hstemhm
          51 119 102 87 36 126 hintmask 10111110
          -102 callgsubr
          -38 -207 2 callgsubr
          hintmask 11011110
          31 -22 28 -38 -31 -32 -18 -36 -3 vhcurveto
          endchar
        </CharString>
        <CharString name="uni0219">
          -177 -11 callsubr
          39 0 106 317 101 hstemhm
          42 102 46 87 -20 105 hintmask 10111010
          -101 callgsubr
          -54 -199 rmoveto
          hintmask 11011100
          -100 callsubr
        </CharString>
        <CharString name="uni021A">
          -23 -11 callsubr
          51 602 98 hstemhm
          210 130 -95 95 hintmask 11110000
          540 700 rmoveto
          -530 -98 198 hlineto
          2 -76 0 -73 -74 vvcurveto
          -205 -5 -46 -3 -128 vhcurveto
          -20 callgsubr
          103 0 24 callsubr
          109 0 75 2 62 vhcurveto
          198 hlineto
          -334 -707 rmoveto
          hintmask 11101000
          -100 callsubr
        </CharString>
        <CharString name="uni021B">
          -228 -11 callsubr
          39 0 -14 callgsubr
          -21 87 hintmask 1101010100000000
          22 429 rmoveto
          73 hlineto
          hintmask 1010111000000000
          -78 callsubr
          hintmask 1101010010000000
          -19 callsubr
          127 -597 rmoveto
          -100 callsubr
        </CharString>
        <CharString name="uni03BC">
          -31 35 callgsubr
          11 callsubr
          61 106 -106 -21 callgsubr
          hintmask 11100110
          521 -72 callgsubr
        </CharString>
        <CharString name="uni2215">
          -128 -103 -21 824 -20 hstem
          82 -24 callgsubr
        </CharString>
        <CharString name="uni2219">
          -310 184 141 hstem
          52 159 vstem
          52 250 rmoveto
          -67 callsubr
        </CharString>
        <CharString name="uogonek">
          -42 -230 63 155 11 callsubr
          50 122 103 94 -35 124 hintmask 11101010
          510 69 rmoveto
          -43 54 -9 19 103 vvcurveto
          89 6 103 2 63 vhcurveto
          -135 hlineto
          3 -79 0 -70 -122 vvcurveto
          -38 0 -30 1 -24 vhcurveto
          -19 -23 -26 -15 -39 hhcurveto
          -47 -28 25 78 hvcurveto
          49 9 84 76 vvcurveto
          hintmask 11011100
          26 -1 41 -9 30 vhcurveto
          -137 -24 rlineto
          15 -27 5 -43 -44 -40 -4 -124 -36 vvcurveto
          -144 64 -42 66 72 51 50 44 40 vhcurveto
          6 -23 10 -20 16 -25 rrcurveto
          -30 -17 -70 -63 -74 -88 callgsubr
          52 33 53 108 85 hvcurveto
          endchar
        </CharString>
        <CharString name="uring">
          -36 callgsubr
          94 57 77 57 hstemhm
          50 122 -8 58 79 61 -28 124 hintmask 11111001
          -107 callsubr
          hintmask 11110110
          -229 674 -72 callsubr
          endchar
        </CharString>
        <CharString name="utilde">
          -36 callgsubr
          116 -38 callsubr
          50 -21 callgsubr
          hintmask 11010110
          -107 callsubr
          -19 747 -60 callgsubr
          hintmask 11001110
          -33 -35 53 -45 -89 callgsubr
          hintmask 11100110
          33 35 -53 45 -66 callgsubr
        </CharString>
        <CharString name="v">
          -65 9 -21 524 -20 hstem
          365 500 rmoveto
          -31 -136 -38 -125 -46 -126 -42 127 -34 136 -28 136 -129 -12 rcurveline
          48 -189 56 -159 69 -164 121 12 rcurveline
          73 164 59 159 51 189 rrcurveto
          endchar
        </CharString>
        <CharString name="w">
          204 9 -21 524 -20 hstem
          633 -99 callgsubr
          endchar
        </CharString>
        <CharString name="wacute">
          203 9 -21 772 -20 hstem
          632 -99 callgsubr
          -344 248 -80 callsubr
        </CharString>
        <CharString name="wcircumflex">
          203 9 -21 780 -20 hstem
          632 -99 callgsubr
          -544 89 -84 callsubr
        </CharString>
        <CharString name="wdieresis">
          203 9 -21 615 119 hstem
          257 35 callsubr
          vstem
          632 -99 callgsubr
          -504 147 -89 callsubr
        </CharString>
        <CharString name="wgrave">
          203 9 -21 772 -20 hstem
          632 -99 callgsubr
          -506 236 rmoveto
          -51 callsubr
        </CharString>
        <CharString name="x">
          -77 13 callgsubr
          hstem
          342 500 rmoveto
          -34 -60 -26 -47 -33 -54 -46 75 -20 36 -25 50 rrcurveto
          -145 hlineto
          62 -85 53 -78 55 -81 -84 -124 -31 -43 -62 -89 rrcurveto
          143 hlineto
          31 54 30 54 39 62 35 -60 23 -46 38 -64 rrcurveto
          143 hlineto
          -53 74 -46 71 -74 109 98 145 26 40 48 61 rrcurveto
          endchar
        </CharString>
        <CharString name="y">
          -73 -208 -21 741 -20 hstem
          -95 callgsubr
          endchar
        </CharString>
</ttFont>
